<?xml version="1.0" encoding="utf-8"?>
<!-- Generator: Adobe Illustrator 24.2.3, SVG Export Plug-In . SVG Version: 6.00 Build 0)  -->
<svg version="1.1" id="Layer_1" xmlns="http://www.w3.org/2000/svg" xmlns:xlink="http://www.w3.org/1999/xlink" x="0px" y="0px"
	 viewBox="0 0 56.7 56.7" style="enable-background:new 0 0 56.7 56.7;" xml:space="preserve">
<style type="text/css">
	.st0{fill:#1FA1F1;}
</style>
<path class="st0" d="M52.3,26.5c0.4-0.9,0.5-1.8,0.5-2.7c0-0.4,0-0.8,0-1.2c-0.1-0.2-0.2-0.4-0.2-0.7c-0.1-0.8-0.5-1.6-0.9-2.3
	c-0.3-0.5-0.8-0.9-1.2-1.4c-0.4-0.5-1-0.9-1.6-1.2c-0.6-0.4-1.2-0.6-1.9-0.8c-0.1,0-0.2-0.1-0.2-0.2c0-0.3,0.1-0.7,0.1-1
	c-0.1-0.8-0.1-1.5-0.4-2.1c-0.3-1-0.7-1.9-1.4-2.7c-0.5-0.6-1.1-1.1-1.7-1.6c-0.9-0.6-1.9-1-2.9-1.2c-0.9-0.2-1.9-0.2-2.8,0
	c-0.7,0.1-1.3,0.4-2,0.6c-0.2,0-0.3,0-0.4-0.2C35.1,7.5,35,7.3,34.8,7c-0.3-0.4-0.5-0.7-0.8-1c-0.7-0.8-1.5-1.4-2.5-1.8
	C31.3,4.1,31,4,30.8,3.9c-0.4-0.1-0.9-0.2-1.3-0.3c-1-0.2-1.9-0.1-2.9,0.1c-0.9,0.2-1.7,0.5-2.5,1c-0.9,0.5-1.6,1.1-2.1,1.9
	c-0.1,0.2-0.3,0.5-0.5,0.7c0,0.1-0.1,0.1-0.2,0.1c-0.2,0-0.5-0.1-0.7-0.2C20,7,19.4,6.9,18.8,6.7c-1-0.2-2,0-2.9,0.3
	c-0.9,0.3-1.7,0.6-2.4,1.2C13,8.6,12.6,9,12.2,9.4c-0.3,0.2-0.5,0.6-0.7,0.9c-0.2,0.5-0.5,0.9-0.7,1.4c-0.4,1-0.6,2.1-0.5,3.3
	c0,0.4-0.1,0.4-0.4,0.5c-0.5,0.1-0.9,0.2-1.3,0.4c-1,0.5-1.9,1.2-2.7,2c-0.5,0.7-0.9,1.4-1.3,2.2c-0.3,0.5-0.4,1.1-0.5,1.7
	c-0.1,0.8-0.1,1.7,0,2.5c0.1,0.9,0.5,1.8,0.9,2.6c0.3,0.5,0.6,0.9,0.9,1.3c0.1,0.1,0.1,0.3,0,0.4c-0.2,0.4-0.6,0.7-0.8,1.1
	c-0.5,0.7-0.8,1.5-1,2.3c-0.3,1-0.2,2-0.1,3c0,0.5,0.1,1,0.5,1.5C4.7,37,5,37.5,5.3,38c0.4,0.6,0.9,1.1,1.4,1.6c0.6,0.6,1.2,1,2,1.3
	c0.4,0.2,0.8,0.3,1.2,0.4c0.2,0.1,0.4,0.2,0.4,0.5c0,0.5,0,0.9,0,1.3c0,0.4,0,0.8,0.1,1.2c0.2,1,0.6,2,1.3,2.9
	c0.6,0.8,1.3,1.5,2.2,2c0.7,0.3,1.4,0.7,2.1,0.9c0.8,0.2,1.6,0.3,2.4,0.2c0.8,0,1.6-0.2,2.4-0.5c0.3-0.1,0.5-0.1,0.6,0.1
	c0.4,0.6,0.9,1.2,1.4,1.7c1,1,2.1,1.6,3.4,1.9c0.4,0.1,0.9,0.2,1.3,0.2c0.6,0,1.2,0.1,1.8,0c0.4-0.1,0.9-0.2,1.3-0.4
	c0.6-0.2,1.2-0.4,1.7-0.8c0.6-0.4,1.2-1,1.8-1.6c0.2-0.2,0.4-0.4,0.5-0.7c0-0.3,0.2-0.3,0.4-0.2c0.8,0.3,1.6,0.6,2.5,0.7
	s1.8,0,2.7-0.2c0.8-0.2,1.6-0.6,2.3-1c0.9-0.6,1.6-1.3,2.2-2.2c0.3-0.5,0.6-1.1,0.8-1.6c0.3-0.7,0.5-1.4,0.5-2.2c0-0.3,0-0.6,0-0.9
	c0-0.6,0-0.6,0.6-0.8c0.7-0.1,1.3-0.3,1.9-0.7c0.1,0,0.2-0.2,0.3-0.2c0.5-0.1,0.9-0.5,1.3-0.9c0.4-0.4,0.8-0.8,1.1-1.3
	c0.3-0.3,0.6-0.7,0.7-1.1c0.2-0.8,0.6-1.6,0.6-2.5c0-0.6,0-1.3-0.1-1.9c-0.1-0.6-0.3-1.3-0.5-1.9c-0.2-0.7-0.6-1.3-1-1.8
	c-0.2-0.2-0.2-0.5,0-0.7C51.5,28.1,51.9,27.3,52.3,26.5z M36.7,25.8c-4.3,3.5-7.9,8.5-10.8,13.3c-3.3-2.9-5.8-6.3-9.7-8.5
	c-0.2-0.1-0.3-0.2-0.6-0.3c0.3-0.2,0.5-0.3,0.7-0.5c0.5-0.3,1-0.6,1.5-1c1-0.6,2.1-1.3,3.1-1.9c0.3-0.2,0.6-0.4,0.9-0.6
	c0.3-0.2,0.5-0.2,0.6,0.2c0.4,0.8,0.8,1.5,1.1,2.3c0.5,0.9,0.9,1.9,1.4,2.9c0.1,0.2,0.2,0.4,0.3,0.6c0,0.1,0.1,0.1,0.2,0.1l0.1-0.1
	c0.2-0.5,0.4-1,0.7-1.5c2.4-4.8,5.3-10.2,9.6-13.7c0.8-0.6,1.6-1.2,2.4-1.8c0.2-0.1,0.3-0.2,0.6-0.3c0.4,0.9-0.2,2.6-0.2,3.7
	c0,1.5,0.1,3,0.4,4.5C39.3,25,37.9,24.8,36.7,25.8z"/>
</svg>
