<?xml version="1.0" encoding="utf-8"?>
<!-- Generator: Adobe Illustrator 23.0.3, SVG Export Plug-In . SVG Version: 6.00 Build 0)  -->
<svg version="1.1" id="Layer_1" xmlns="http://www.w3.org/2000/svg" xmlns:xlink="http://www.w3.org/1999/xlink" x="0px" y="0px"
	 viewBox="0 0 56.7 56.7" style="enable-background:new 0 0 56.7 56.7;" xml:space="preserve">
<g>
	<path d="M16.7,48.5c-0.9,1.5-1.8,3-2.8,4.4c-0.2,0.3-0.5,0.5-0.8,0.7c-0.2-0.3-0.6-0.5-0.7-0.9c-1.8-4.2-3.5-8.4-5.3-12.7
		c-0.4-1-0.1-1.5,1-1.6c4.5-0.4,9-0.8,13.6-1.2c0.2,0,0.3,0,0.5,0c0.6,0,0.9,0.5,0.5,1c-0.9,1.6-1.9,3.1-2.8,4.8
		c0.2,0.1,0.5,0.3,0.7,0.4c5.1,2.6,10.2,2.7,15.3,0.1C42.8,40,46.2,32.6,44.4,25c-0.2-1,0-1.4,1-1.5c1.2-0.1,2.5-0.3,3.7-0.4
		c1-0.1,1.3,0.1,1.5,1.1c1.4,7.5-0.3,14.1-5.4,19.8c-5,5.6-11.5,7.9-19,7.3c-3.3-0.2-6.3-1.3-9.1-2.9C17,48.6,16.9,48.6,16.7,48.5z"
		/>
	<path d="M40,8.2c1-1.5,1.9-3,2.8-4.5c0.1-0.2,0.2-0.3,0.3-0.5c0.4-0.4,0.7-0.3,0.9,0.2c1.8,4.3,3.6,8.6,5.3,13
		c0.5,1.1,0.1,1.6-1,1.7c-4.5,0.4-9,0.8-13.5,1.2c-0.1,0-0.2,0-0.4,0c-0.6-0.1-0.8-0.4-0.5-1c0.8-1.4,1.6-2.8,2.5-4.1
		c0.1-0.2,0.2-0.4,0.3-0.6c-0.2-0.1-0.3-0.2-0.5-0.3C26.4,7.8,14,13.7,12,24.8c-0.4,2.2-0.3,4.4,0.2,6.5c0.2,1,0.1,1.3-0.9,1.4
		c-1.3,0.2-2.7,0.3-4,0.4c-0.7,0.1-1-0.2-1.2-1c-1.1-6.2,0-12,3.6-17.3c3.8-5.6,9.2-8.9,16-9.7c4.8-0.6,9.4,0.4,13.7,2.8
		C39.5,8,39.7,8.1,40,8.2z"/>
</g>
</svg>
