<?xml version="1.0" encoding="utf-8"?>
<!-- Generator: Adobe Illustrator 23.0.3, SVG Export Plug-In . SVG Version: 6.00 Build 0)  -->
<svg version="1.1" id="Layer_1" xmlns="http://www.w3.org/2000/svg" xmlns:xlink="http://www.w3.org/1999/xlink" x="0px" y="0px"
	 viewBox="0 0 56.7 56.7" style="enable-background:new 0 0 56.7 56.7;" xml:space="preserve">
<style type="text/css">
	.st0{display:none;}
	.st1{display:inline;}
	.st2{fill:#FFFFFF;}
	.st3{fill:#1A171B;}
</style>
<g>
	<g class="st0">
		<g class="st1">
			<path class="st2" d="M24.9,24.4c-0.6,0-1.1-0.4-1.1-1c0-0.2-0.2-0.4-0.4-0.4c-0.2,0-0.4,0.2-0.4,0.4c0,0.8,0.6,1.5,1.5,1.7v0.4
				c0,0.2,0.2,0.4,0.4,0.4c0.2,0,0.4-0.2,0.4-0.4v-0.4c0.8-0.2,1.5-0.9,1.5-1.7c0-0.8-0.5-1.7-1.9-1.7c-0.7,0-1.1-0.3-1.1-1
				c0-0.5,0.5-1,1.1-1s1.1,0.4,1.1,1c0,0.2,0.2,0.4,0.4,0.4c0.2,0,0.4-0.2,0.4-0.4c0-0.8-0.6-1.5-1.5-1.7v-0.4
				c0-0.2-0.2-0.4-0.4-0.4c-0.2,0-0.4,0.2-0.4,0.4V19c-0.8,0.2-1.5,0.9-1.5,1.7c0,0.8,0.5,1.7,1.9,1.7c0.7,0,1.1,0.3,1.1,1
				C26,23.9,25.5,24.4,24.9,24.4z"/>
		</g>
	</g>
	<g>
		<path class="st3" d="M9.2,26.9c1,1.1,2.1,2.3,3.2,3.5c1.7,1.7,3.7,2.1,5.9,1.3c2.1-0.8,3.3-2.4,3.6-4.6c0.2-1.5-0.2-3-1.3-4.1
			c-1.2-1.2-2.5-2.4-3.9-3.7c2.4-1.9,4.9-2.3,7.5-1.4c1.3,0.5,2.6,1.3,3.6,2.3c3.5,3.4,7,6.9,10.4,10.4c2.3,2.3,5.9,2.6,8.4,0.6
			c2.6-2.1,3.2-5.8,1.3-8.5c-1-1.5-2.5-2.7-3.7-4c-2.7-2.8-5.5-5.5-8.3-8.3c-1.6-1.6-3.2-3.1-4.8-4.7c-0.3-0.2-0.5-0.5-0.8-0.9
			C32,4,33.7,3.9,35.2,4.5C36.5,5,37.9,5.7,39,6.7c4.7,4.5,9.2,9.1,13.8,13.7c3.4,3.4,3.4,8.2,0,11.6c-6.5,6.6-13.1,13.1-19.6,19.6
			c-3.4,3.4-8.2,3.4-11.6,0c-4.4-4.4-8.8-8.7-13.1-13.1C5.2,35.2,5.4,29.8,9.2,26.9z"/>
		<path class="st3" d="M14.2,16.5c-1.9-1.8-1.9-4-0.3-5.7c2.1-2.3,4.9-3.4,8-3.6c3-0.3,5.6,0.5,7.7,2.8c1.2,1.2,2.4,2.4,3.6,3.6
			c3.6,3.6,7.2,7.2,10.8,10.8c0.8,0.8,1.1,1.8,0.7,2.8c-0.7,1.6-2.5,1.9-3.7,0.6c-4-4-8-8-12.1-12c-0.8-0.8-1.7-1.5-2.7-2.1
			c-3.8-2.1-8-1.5-11.2,1.7C14.6,15.7,14.4,16.1,14.2,16.5z"/>
		<path class="st3" d="M3.9,20.2c0.6,1.3,1.3,2.7,1.9,4C4.9,25.6,4,27.1,3,28.6C0.5,26.7,1,22.5,3.9,20.2z"/>
		<path class="st3" d="M14,26.6c0-1.3,1-2.3,2.3-2.3c1.4,0,2.4,1.1,2.3,2.4c0,1.3-1.1,2.3-2.4,2.3C15,28.9,14,27.9,14,26.6z"/>
	</g>
</g>
</svg>
