<?xml version="1.0" encoding="utf-8"?>
<!-- Generator: Adobe Illustrator 23.0.3, SVG Export Plug-In . SVG Version: 6.00 Build 0)  -->
<svg version="1.1" id="Layer_1" xmlns="http://www.w3.org/2000/svg" xmlns:xlink="http://www.w3.org/1999/xlink" x="0px" y="0px"
	 viewBox="0 0 56.7 56.7" style="enable-background:new 0 0 56.7 56.7;" xml:space="preserve">
<g>
	<g>
		<path d="M31,45.8c0.9-1.7,1.7-3.3,2.6-4.9c1.7-3.1,3.7-6,6-8.6c1.5-1.7,3.2-3.3,5.2-4.5c0.5-0.3,1-0.5,1.6-0.8
			c0,0.5-0.1,0.9-0.1,1.3c-0.1,1.9-0.2,3.8,0,5.7c0,0.5,0.1,0.9,0.3,1.4c0.1,0.4,0.3,0.7,0.5,1c-2.9,1.6-5.4,4-7.8,6.4
			c-2.9,3-5.5,6.3-7.6,9.9c0,0-0.1,0.1-0.1,0.2c-0.3-0.3-0.6-0.6-0.9-0.9c-0.9-0.9-1.8-1.8-2.6-2.7c-1.9-2.1-4.1-3.7-6.6-5
			c-0.5-0.3-1-0.5-1.5-0.8c-0.1,0-0.2-0.1-0.3-0.1c2.5-1.6,4.9-3.1,7.3-4.7C28.4,41.1,29.7,43.4,31,45.8z"/>
		<path d="M17.2,16.9c0-0.7,0-1.5,0-2.2c0-0.3,0-0.6,0-0.9c0-0.7,0.5-1.1,1.1-1.1c1.5,0,3.1,0,4.6,0c0.2,0,0.3,0,0.6,0
			c0-0.1,0-0.2,0-0.3c0-1.7,0-3.4,0-5c0-2,1.5-3.6,3.6-3.5c0.6,0,1.1,0,1.7,0.1c1.6,0.3,2.7,1.7,2.7,3.3c0,1.7,0,3.4,0,5.1
			c0,0.1,0,0.2,0,0.3c0.1,0,0.2,0,0.3,0c1.5,0,3,0,4.5,0c0.7,0,1.2,0.4,1.2,1.2c0,0.9,0,1.8,0,2.8c0,0.1,0,0.1,0,0.2
			C30.6,16.9,23.9,16.9,17.2,16.9z M28.9,9.6c0-0.8-0.6-1.4-1.4-1.4S26.1,8.8,26,9.6c0,0.8,0.6,1.5,1.4,1.5
			C28.3,11,28.9,10.4,28.9,9.6z"/>
		<path d="M25.3,50.3c-0.1,0-0.2,0-0.2,0c-3.6,0-7.2,0-10.8,0c-0.8,0-1.6-0.2-2.2-0.8c-0.3-0.4-0.5-0.8-0.5-1.3c0-0.1,0-0.2,0-0.3
			c0-12.4,0-24.7,0-37.1c0-1.4,0.9-2.4,2.3-2.4c1.5,0,2.9,0,4.4,0c1.2,0,2.4,0,3.6,0c0.1,0,0.2,0,0.3,0c0,0.8,0,1.6,0,2.5
			c-0.1,0-0.2,0-0.3,0c-1.9,0-3.9,0-5.8,0c-0.6,0-1.2,0.2-1.6,0.5c-0.4,0.4-0.6,0.8-0.6,1.4c0,0.1,0,0.2,0,0.2c0,10.9,0,21.8,0,32.7
			c0,1.2,0.8,2.1,2.1,2.1c2,0,3.9,0,5.9,0c0.1,0,0.3,0,0.4,0.1c1,0.6,2,1.3,2.9,2.1C25.2,50.1,25.3,50.1,25.3,50.3
			C25.3,50.2,25.3,50.2,25.3,50.3z"/>
		<path d="M40.7,27.9c0-0.1,0-0.2,0-0.3c0-4.8,0-9.6,0-14.4c0-1.4-0.8-2.2-2.2-2.2c-1.8,0-3.6,0-5.3,0c-0.1,0-0.2,0-0.3,0
			c0-0.8,0-1.6,0-2.5c0.1,0,0.2,0,0.3,0c2.4,0,4.8,0,7.2,0c0.7,0,1.3,0.1,1.9,0.6c0.5,0.4,0.8,1,0.8,1.7c0,5,0,10.1,0,15.1
			c0,0.2-0.1,0.3-0.2,0.4C42.1,26.7,41.4,27.3,40.7,27.9z"/>
		<path d="M36.3,50.3c0.2-0.3,0.4-0.5,0.6-0.7c0.4-0.5,0.8-1,1.2-1.5c0.1-0.2,0.3-0.2,0.5-0.2c0.4,0,0.8-0.1,1.2-0.3
			c0.6-0.4,1-0.9,1-1.7c0-0.5,0.1-0.9,0.5-1.2c0.6-0.5,1.1-1,1.6-1.4c0,0,0.1-0.1,0.2-0.1c0,0.1,0,0.2,0,0.3c0,1.5,0,3,0,4.5
			c0.1,1.5-1.2,2.3-2.2,2.3c-0.9,0.1-1.7,0-2.6,0C37.6,50.3,37,50.3,36.3,50.3z"/>
		<path d="M17.8,30.3c0-0.3,0-0.6,0-0.9c6.4,0,12.8,0,19.2,0c0,0.3,0,0.6,0,0.9C30.6,30.3,24.2,30.3,17.8,30.3z"/>
		<path d="M17.8,27.4c0-0.3,0-0.6,0-0.9c6.4,0,12.8,0,19.2,0c0,0.3,0,0.6,0,0.9C30.6,27.4,24.2,27.4,17.8,27.4z"/>
		<path d="M17.8,33.1c0-0.3,0-0.6,0-0.9c6.4,0,12.8,0,19.2,0c0,0.3,0,0.6,0,0.9C30.6,33.1,24.2,33.1,17.8,33.1z"/>
		<path d="M24.6,21.6c0,0.3,0,0.6,0,0.9c-2.3,0-4.5,0-6.8,0c0-0.3,0-0.6,0-0.9C20.1,21.6,22.4,21.6,24.6,21.6z"/>
		<path d="M17.8,24.7c0-0.3,0-0.6,0-0.9c2.3,0,4.5,0,6.8,0c0,0.3,0,0.6,0,0.9C22.4,24.7,20.1,24.7,17.8,24.7z"/>
	</g>
</g>
</svg>
