<?xml version="1.0" encoding="utf-8"?>
<!-- Generator: Adobe Illustrator 24.2.3, SVG Export Plug-In . SVG Version: 6.00 Build 0)  -->
<svg version="1.1" id="Layer_1" xmlns="http://www.w3.org/2000/svg" xmlns:xlink="http://www.w3.org/1999/xlink" x="0px" y="0px"
	 viewBox="0 0 56.7 56.7" style="enable-background:new 0 0 56.7 56.7;" xml:space="preserve">
<style type="text/css">
	.st0{fill:#1A171B;}
</style>
<g>
	<g>
		<path class="st0" d="M50.4,44.6l-8-8c-0.3-0.3-0.7-0.3-1,0l-0.9,0.9l-2.1-2.1c5-7.3,4.1-17.5-2.2-23.8c-7.3-7.3-19.2-7.3-26.5,0
			s-7.3,19.2,0,26.5c3.6,3.6,8.4,5.4,13.3,5.4c3.7,0,7.4-1.1,10.5-3.2l2.1,2l-0.9,0.9c-0.3,0.3-0.3,0.7,0,1l8,8c1,1,2.3,1.5,3.5,1.5
			s2.6-0.5,3.5-1.5l0.6-0.6C52.3,49.7,52.3,46.5,50.4,44.6z M34.1,38.8c-0.2-0.3-0.7-0.3-0.9-0.1c-6.8,5-16.4,4.3-22.4-1.7
			c-6.7-6.7-6.7-17.7,0-24.4c3.4-3.4,7.8-5.1,12.2-5.1s8.8,1.7,12.2,5.1c6,6,6.7,15.6,1.7,22.4c-0.2,0.3-0.2,0.7,0.1,0.9l2.5,2.5
			l-2.9,2.9L34.1,38.8z M37.1,42.8l3.9-3.9l0.9-0.9l2.3,2.3L38.5,46l-2.3-2.3L37.1,42.8z M49.3,50.6l-0.6,0.6
			c-1.4,1.4-3.7,1.4-5.1,0L39.5,47l5.6-5.6l4.2,4.2C50.7,47,50.7,49.3,49.3,50.6z"/>
	</g>
	<g>
		<path class="st0" d="M22.9,11.1c-3.7,0-7.1,1.4-9.7,4s-4,6-4,9.7c0,3.6,1.4,7.1,4,9.7s6,4,9.7,4c3.6,0,7.1-1.4,9.7-4s4-6,4-9.7
			s-1.4-7.1-4-9.7S26.5,11.1,22.9,11.1z M31.6,33.4C29.3,35.7,26.2,37,23,37c-3.3,0-6.3-1.3-8.6-3.6s-3.6-5.4-3.6-8.6
			c0-3.3,1.3-6.3,3.6-8.7c2.3-2.3,5.4-3.6,8.6-3.6c3.3,0,6.3,1.3,8.6,3.6s3.6,5.4,3.6,8.7C35.1,28,33.9,31.1,31.6,33.4z"/>
	</g>
	<g>
		<path class="st0" d="M22.9,29.6c-0.2,0-0.4,0-0.6-0.1c-0.7-0.2-1.3-0.7-1.5-1.4c-0.1-0.3-0.1-0.6-0.2-0.9c-0.3-0.4-1-0.3-1.2,0.1
			c-0.1,0.2-0.1,0.5-0.1,0.7c0.1,0.4,0.2,0.8,0.3,1.1c0.2,0.3,0.4,0.7,0.7,0.9c0.1,0.1,0.3,0.2,0.4,0.4c0.2,0.1,0.3,0.2,0.5,0.3
			c0.4,0.2,0.8,0.2,1.2,0.3c0.2,0,0.4,0,0.6,0c0.4,0,0.7,0,1-0.1c0.5-0.1,1-0.4,1.4-0.8c1-0.9,1.4-2.5,0.9-3.8
			c-0.2-0.6-0.6-1.1-1.1-1.5s-1.2-0.5-1.8-0.6c-0.6-0.1-1.3,0-1.9-0.3s-0.9-1-0.9-1.7s0.4-1.3,1-1.6c0.6-0.4,1.3-0.4,1.9-0.3
			c0.7,0.2,1.3,0.7,1.5,1.4c0.1,0.3,0.1,0.7,0.3,0.9c0.2,0.3,0.8,0.3,1.1,0c0.2-0.2,0.2-0.6,0.2-0.9c-0.1-0.8-0.6-1.6-1.2-2.2
			c-0.7-0.5-1.5-0.8-2.4-0.8c-1.4,0-2.9,0.8-3.4,2.1c-0.3,0.6-0.4,1.3-0.2,2c0.1,0.8,0.6,1.6,1.3,2.1c0.5,0.4,1.2,0.6,1.8,0.6
			c0.6,0.1,1.3,0,1.9,0.3s0.9,1,0.9,1.6c0,0.7-0.4,1.3-1,1.6C23.8,29.5,23.4,29.6,22.9,29.6z"/>
	</g>
	<g>
		<path class="st0" d="M35.7,7.5h6c0.4,0,0.7-0.3,0.7-0.7c0-0.4-0.3-0.7-0.7-0.7h-6c-0.4,0-0.7,0.3-0.7,0.7S35.3,7.5,35.7,7.5z"/>
	</g>
	<g>
		<path class="st0" d="M45.8,7.5h5.3c0.4,0,0.7-0.3,0.7-0.7c0-0.4-0.3-0.7-0.7-0.7h-5.3c-0.4,0-0.7,0.3-0.7,0.7S45.4,7.5,45.8,7.5z"
			/>
	</g>
	<g>
		<path class="st0" d="M51.1,11.1H40.8c-0.4,0-0.7,0.3-0.7,0.7s0.3,0.7,0.7,0.7h10.3c0.4,0,0.7-0.3,0.7-0.7
			C51.8,11.4,51.5,11.1,51.1,11.1z"/>
	</g>
	<g>
		<path class="st0" d="M51.1,16.2h-7.4c-0.4,0-0.7,0.3-0.7,0.7c0,0.4,0.3,0.7,0.7,0.7h7.4c0.4,0,0.7-0.3,0.7-0.7
			S51.5,16.2,51.1,16.2z"/>
	</g>
	<g>
		<path class="st0" d="M51.1,21.2h-6c-0.4,0-0.7,0.3-0.7,0.7c0,0.4,0.3,0.7,0.7,0.7h6c0.4,0,0.7-0.3,0.7-0.7S51.5,21.2,51.1,21.2z"
			/>
	</g>
	<g>
		<path class="st0" d="M51.1,26.3h-6c-0.4,0-0.7,0.3-0.7,0.7c0,0.4,0.3,0.7,0.7,0.7h6c0.4,0,0.7-0.3,0.7-0.7
			C51.8,26.6,51.5,26.3,51.1,26.3z"/>
	</g>
	<g>
		<path class="st0" d="M4.9,7.5h5.6c0.4,0,0.7-0.3,0.7-0.7c0-0.4-0.3-0.7-0.7-0.7H4.9c-0.4,0-0.7,0.3-0.7,0.7
			C4.2,7.2,4.5,7.5,4.9,7.5z"/>
	</g>
	<g>
		<path class="st0" d="M4.9,12.5h1.3c0.4,0,0.7-0.3,0.7-0.7s-0.3-0.7-0.7-0.7H4.9c-0.4,0-0.7,0.3-0.7,0.7
			C4.2,12.2,4.5,12.5,4.9,12.5z"/>
	</g>
</g>
</svg>
