<?xml version="1.0" encoding="utf-8"?>
<!-- Generator: Adobe Illustrator 24.2.3, SVG Export Plug-In . SVG Version: 6.00 Build 0)  -->
<svg version="1.1" id="Layer_1" xmlns="http://www.w3.org/2000/svg" xmlns:xlink="http://www.w3.org/1999/xlink" x="0px" y="0px"
	 viewBox="0 0 28.4 28.4" style="enable-background:new 0 0 28.4 28.4;" xml:space="preserve">
<style type="text/css">
	.st0{fill:#1A171B;}
</style>
<path id="XMLID_427_" class="st0" d="M26.5,16.9L24.6,15c-0.3-0.3-0.9-0.3-1.2,0h-0.1l-6.2-6.2c-0.5-0.5-1.2-0.8-2-0.8h-3.9
	c-0.9-0.9-2-1.5-3.2-1.7V5.1C8,3.9,7.1,3,5.9,3H4.3C3.1,3,2.2,3.9,2.2,5.1v13.1c0,1.1,0.9,2.1,2.1,2.1h1.6C7,20.3,8,19.4,8,18.2V17
	c0.6-0.1,1.1-0.3,1.7-0.5l2.7,2.7c0.7,0.7,1.6,1,2.5,1c0.8,0,1.5,0.3,2,0.8l0.2,0.2l-0.4,0.4c-0.3,0.3-0.3,0.9,0,1.2l1.9,1.9
	c0.2,0.2,0.4,0.3,0.6,0.3s0.4-0.1,0.6-0.3l6.6-6.6c0.2-0.2,0.3-0.4,0.3-0.6C26.8,17.3,26.7,17.1,26.5,16.9z M11.7,10.8H9.5
	c-1.1,0-1.9,0.9-1.9,1.9s0.9,1.9,1.9,1.9h1.1c-0.9,1-2.1,1.6-3.5,1.6C6,16.3,4.9,15.8,4,15V8.3C4.9,7.5,6,7,7.2,7
	C9.4,7,11.3,8.6,11.7,10.8z M6.2,6.4C5.4,6.5,4.7,6.8,4,7.3V5.1C4,5,4.1,4.8,4.3,4.8h1.6c0.1,0,0.3,0.1,0.3,0.3
	C6.2,5.1,6.2,6.4,6.2,6.4z M4,16c0.6,0.5,1.4,0.8,2.1,0.9v1.3c0,0.1-0.1,0.3-0.3,0.3H4.3c-0.1,0-0.3-0.1-0.3-0.3V16z M7.2,18.2
	c0,0.7-0.6,1.3-1.3,1.3H4.3c-0.7,0-1.3-0.6-1.3-1.3V5.1c0-0.7,0.6-1.3,1.3-1.3h1.6c0.7,0,1.3,0.6,1.3,1.3v1.2c0,0,0,0-0.1,0
	s-0.2,0-0.3,0V5.1c0-0.6-0.5-1-1-1H4.3c-0.6,0-1,0.5-1,1V8v7.4v2.8c0,0.6,0.5,1,1,1h1.6c0.6,0,1-0.5,1-1V17c0.1,0,0.2,0,0.3,0
	c0,0,0,0,0.1,0v1.2H7.2z M17.4,20.5c-0.7-0.7-1.6-1-2.5-1c-0.8,0-1.5-0.3-2-0.8L10.3,16c0.5-0.4,1-0.8,1.3-1.4h0.7
	c0.2,1.1,1.1,2.9,3.2,2.9c0.2,0,0.4-0.2,0.4-0.4c0-0.2-0.2-0.4-0.4-0.4c-2.2,0-2.5-2.4-2.5-2.5v-0.3h-0.9H9.5
	c-0.7,0-1.2-0.5-1.2-1.2s0.5-1.2,1.2-1.2h3H15c0.2,0,0.4-0.2,0.4-0.4s-0.2-0.4-0.4-0.4h-2.6c-0.1-0.7-0.4-1.4-0.7-2H15
	c0.6,0,1.1,0.2,1.6,0.6l6.2,6.2l-5.1,5.1L17.4,20.5z M26,17.6l-6.6,6.6c-0.1,0.1-0.1,0.1-0.2,0l-1.9-1.9c-0.1-0.1-0.1-0.1,0-0.2
	l0.6-0.6l0,0l0,0l6-6c0.1-0.1,0.1-0.1,0.2,0l1.9,1.9C26.1,17.5,26.1,17.5,26,17.6C26.1,17.5,26.1,17.6,26,17.6z"/>
<path id="XMLID_445_" class="st0" d="M24.1,16.9l-1.2,1.2c-0.1,0.1-0.1,0.4,0,0.5s0.2,0.1,0.3,0.1c0.1,0,0.2,0,0.3-0.1l1.2-1.2
	c0.1-0.1,0.1-0.4,0-0.5C24.4,16.8,24.2,16.8,24.1,16.9z"/>
</svg>
