<?xml version="1.0" encoding="utf-8"?>
<!-- Generator: Adobe Illustrator 24.2.3, SVG Export Plug-In . SVG Version: 6.00 Build 0)  -->
<svg version="1.1" id="Layer_1" xmlns="http://www.w3.org/2000/svg" xmlns:xlink="http://www.w3.org/1999/xlink" x="0px" y="0px"
	 viewBox="0 0 56.7 56.7" style="enable-background:new 0 0 56.7 56.7;" xml:space="preserve">
<g>
	<g>
		<path d="M28.4,13.6c-7.7,0-15.4,0-23.1,0c-0.5,0-0.9,0-1.4,0c-0.3,0-0.4,0.1-0.5,0.4c0,0.1,0,0.2,0,0.2c0,9.6,0,19.1,0,28.7
			c0,0.2,0,0.3,0,0.5c0,0.8,0.4,1.3,1,1.8c0.5,0.4,1,0.5,1.6,0.5c1.2,0,2.4,0,3.6,0c0.3,0,0.6,0.1,0.8,0.3s0.2,0.5,0.1,0.8
			c-0.1,0.3-0.3,0.4-0.6,0.4c-1,0-1.9,0-2.9,0c-0.6,0-1.2,0-1.7,0c-0.8-0.1-1.5-0.5-2.1-1c-0.5-0.5-0.8-1.1-1.1-1.7
			c0-0.1,0-0.1,0-0.2c0-0.3,0-0.5,0-0.8C2,31.6,2,19.7,2,7.8c0-0.5,0-0.9,0.2-1.4S2.7,5.6,3,5.3C3.6,4.5,4.5,4.2,5.5,4
			C6,3.9,6.6,3.9,7.1,3.9c14.2,0,28.4,0,42.7,0c0.5,0,1,0,1.5,0.2c0.2,0.1,0.5,0.1,0.7,0.2c0.3,0.1,0.6,0.2,0.8,0.4
			c0.7,0.4,1.2,1,1.5,1.8s0.3,1.5,0.3,2.3c0,11.5,0,23,0,34.5c0,0.7-0.2,1.3-0.4,1.9c-0.4,0.8-1,1.4-1.8,1.8
			c-0.7,0.4-1.4,0.4-2.1,0.4c-1.1,0-2.3,0-3.4,0c-0.3,0-0.6,0-0.8-0.3c-0.3-0.5-0.1-1,0.4-1.2c0.2,0,0.3-0.1,0.5-0.1
			c1.1,0,2.2,0,3.3,0c0.3,0,0.5,0,0.8-0.1c0.8-0.1,1.3-0.6,1.7-1.3c0.3-0.4,0.3-0.9,0.3-1.4c0-9.5,0-18.9,0-28.4c0-0.2,0-0.4,0-0.6
			c0-0.3-0.1-0.4-0.4-0.4c-4.1,0-8.3,0-12.4,0C36.3,13.6,32.4,13.6,28.4,13.6z M28.3,12c8,0,16,0,23.9,0c0.2,0,0.3,0,0.5,0
			c0.3,0,0.4-0.1,0.4-0.4c0-1.3,0-2.5,0-3.8c0-0.6-0.3-1.2-0.8-1.6c-0.5-0.5-1.2-0.7-1.9-0.7c-14.7,0-29.3,0-44,0
			c-0.5,0-1,0.1-1.4,0.2c-0.9,0.4-1.4,1-1.4,1.9c-0.1,1.3,0,2.6,0,3.9c0,0.3,0.1,0.4,0.4,0.4c0.2,0,0.4,0,0.6,0
			C12.4,12,20.3,12,28.3,12z"/>
		<path d="M28.3,44.5c-4.8,0-9.6,0-14.4,0c-0.6,0-0.7-0.1-0.7-0.7c0-6.2,0-12.5,0-18.7c0-0.6,0.1-0.7,0.7-0.7c9.6,0,19.1,0,28.7,0
			c0.6,0,0.8,0.1,0.8,0.8c0,6.2,0,12.4,0,18.6c0,0.6-0.1,0.7-0.7,0.7C37.9,44.5,33.1,44.5,28.3,44.5z M14.3,25.4c0,6,0,12.1,0,18.1
			c9.4,0,18.8,0,28.2,0c0-6,0-12.1,0-18.1C33.1,25.4,23.7,25.4,14.3,25.4z"/>
		<path d="M28.9,47c0,0.9,0,1.7,0,2.6c0,0.1,0.1,0.2,0.2,0.3c1.4,1.4,2.8,2.8,4.2,4.2c0.1,0.1,0.1,0.1,0.2,0.2
			c0.2,0.2,0.1,0.4,0,0.6c-0.2,0.2-0.4,0.2-0.6,0.1c-0.1-0.1-0.2-0.1-0.2-0.2c-1.2-1.2-2.3-2.3-3.5-3.5c-0.1-0.1-0.1-0.1-0.2-0.2
			c0,0.1,0,0.2,0,0.3c0,1,0,2,0,3c0,0.1,0,0.1,0,0.2c0,0.3-0.2,0.5-0.5,0.5S28,54.9,28,54.6c0-0.2,0-0.4,0-0.6c0-0.9,0-1.7,0-2.6
			c0-0.1,0-0.2,0-0.3c-0.2,0.2-0.4,0.4-0.5,0.6c-1.1,1.1-2.2,2.2-3.3,3.2c-0.3,0.3-0.8,0.2-0.9-0.2c-0.1-0.2,0.1-0.4,0.2-0.5
			c1-1,2-2,3-3c0.5-0.5,0.9-0.9,1.4-1.4c0.1-0.1,0.1-0.2,0.1-0.2c0-0.8,0-1.7,0-2.6c-0.1,0-0.2,0-0.4,0c-5,0-10,0-15,0
			c-0.1,0-0.2,0-0.3,0c-0.3,0-0.4-0.2-0.4-0.5S12,46,12.3,46c0.1,0,0.2,0,0.3,0c10.6,0,21.2,0,31.8,0c0.5,0,0.7,0.2,0.7,0.5
			S44.9,47,44.4,47c-5,0-10,0-15,0C29.1,47,29,47,28.9,47z"/>
		<path d="M28.4,22.9c-5.3,0-10.6,0-15.9,0c-0.1,0-0.2,0-0.3,0c-0.3,0-0.4-0.2-0.4-0.4c0-0.4,0.1-0.5,0.4-0.5c0.1,0,0.2,0,0.3,0
			c10.6,0,21.2,0,31.8,0c0.1,0,0.2,0,0.3,0c0.2,0.1,0.4,0.2,0.4,0.5c0,0.2-0.2,0.4-0.4,0.5c-0.1,0-0.2,0-0.3,0
			C38.9,22.9,33.7,22.9,28.4,22.9z"/>
		<path d="M44.5,8.8c0-0.4,0.4-0.8,0.8-0.8c0.3,0,0.8,0.5,0.8,0.8c0,0.4-0.4,0.8-0.8,0.8C44.9,9.5,44.5,9.2,44.5,8.8z"/>
		<path d="M41.7,8.8c0,0.5-0.3,0.8-0.8,0.8c-0.4,0-0.8-0.4-0.8-0.8c0-0.3,0.5-0.8,0.8-0.8C41.3,8,41.7,8.4,41.7,8.8z"/>
		<path d="M49.7,9.5c-0.5,0-0.8-0.3-0.8-0.7C49,8.3,49.3,8,49.7,8c0.3,0,0.8,0.5,0.8,0.8C50.5,9.2,50.1,9.5,49.7,9.5z"/>
		<path d="M22.6,37.6c-0.9,0.7-1.4,0.8-2.4,0.4c-0.4,0.3-0.7,0.7-1.1,1c-0.9,0.9-1.7,1.8-2.6,2.6c-0.3,0.3-0.6,0.3-0.8,0.1
			s-0.2-0.5,0.1-0.8c1.2-1.2,2.3-2.4,3.5-3.6c0.1-0.1,0.2-0.2,0.1-0.4c-0.3-0.7,0-1.5,0.6-2s1.4-0.6,2.1-0.2c0.7,0.4,1.1,1.1,1,1.9
			c0,0.1,0,0.2,0.1,0.2c0.2,0.1,0.4,0.3,0.6,0.4c0.3-0.2,0.6-0.3,0.8-0.4c0.4-0.1,0.8-0.1,1.2,0c0.1,0.1,0.2,0,0.3-0.1
			c0.7-0.9,1.4-1.8,2.1-2.7c0.1-0.1,0.1-0.2,0-0.3c-0.4-0.7-0.3-1.4,0.2-2.1c0.5-0.6,1.2-0.8,2-0.6c0.8,0.2,1.2,0.8,1.3,1.6
			c0,0.1,0.1,0.2,0.1,0.2c0.6,0.2,1.2,0.5,1.8,0.7c0.1-0.1,0.1-0.2,0.2-0.2c0.5-0.6,1.2-0.9,2-0.7c0.2,0.1,0.3,0,0.4-0.1
			c1.1-1.6,2.2-3.3,3.3-4.9c0.1-0.1,0.2-0.2,0.3-0.3c0.2-0.1,0.4,0,0.6,0.1c0.2,0.2,0.1,0.4,0,0.6c-0.4,0.5-0.7,1.1-1.1,1.6
			c-0.8,1.2-1.6,2.3-2.4,3.5c-0.1,0.1-0.1,0.3,0,0.4c0.4,0.7,0.3,1.5-0.1,2.1c-0.5,0.6-1.3,0.9-2,0.7s-1.3-0.8-1.4-1.6
			c0-0.1-0.1-0.2-0.2-0.2c-0.5-0.2-1.1-0.4-1.6-0.6c-0.1-0.1-0.2,0-0.3,0.1c-0.6,0.7-1.3,0.9-2.2,0.6c-0.1,0-0.2,0-0.3,0.1
			c-0.7,0.9-1.4,1.8-2.1,2.7c-0.1,0.1-0.1,0.2,0,0.3c0.7,1.3-0.3,2.8-1.8,2.8c-1.1-0.1-1.9-1.1-1.7-2.1c0-0.2,0-0.3-0.2-0.4
			C22.9,37.8,22.8,37.7,22.6,37.6z M21.2,37.2c0.5,0,0.9-0.4,0.9-0.9s-0.4-0.9-0.9-0.9s-0.9,0.4-0.9,0.9
			C20.3,36.8,20.7,37.2,21.2,37.2z M29.9,33.7c0.5,0,0.9-0.4,0.9-0.9s-0.4-0.9-0.9-0.9S29,32.3,29,32.8S29.4,33.7,29.9,33.7z
			 M25.1,39.4c0.5,0,0.9-0.4,0.9-0.9s-0.4-0.9-0.9-0.9s-0.9,0.4-0.9,0.9C24.3,39,24.6,39.4,25.1,39.4z M36.2,34.5
			c0-0.5-0.4-0.9-0.9-0.9s-0.9,0.4-0.9,0.9s0.4,0.9,0.9,0.9S36.2,35,36.2,34.5z"/>
		<path d="M24.5,30.4c0,0.7,0,1.3,0,1.9c0,0.5-0.2,0.6-0.6,0.6c-2.5,0-5,0-7.5,0c-0.5,0-0.6-0.2-0.6-0.6c0-1.6,0-3.2,0-4.8
			c0-0.4,0.2-0.6,0.6-0.6c3.3,0,6.5,0,9.8,0c0.4,0,0.6,0.2,0.6,0.6c0,0.8,0,1.5,0,2.3c0,0.4-0.2,0.6-0.6,0.6
			C25.6,30.4,25.1,30.4,24.5,30.4z M25.7,29.4c0-0.5,0-1,0-1.5c-3,0-6,0-9,0c0,0.5,0,1,0,1.5C19.8,29.4,22.8,29.4,25.7,29.4z
			 M16.8,31.9c2.2,0,4.5,0,6.7,0c0-0.5,0-1,0-1.5c-2.3,0-4.5,0-6.7,0C16.8,30.9,16.8,31.4,16.8,31.9z"/>
	</g>
</g>
</svg>
