<?xml version="1.0" encoding="utf-8"?>
<!-- Generator: Adobe Illustrator 24.2.3, SVG Export Plug-In . SVG Version: 6.00 Build 0)  -->
<svg version="1.1" id="Layer_1" xmlns="http://www.w3.org/2000/svg" xmlns:xlink="http://www.w3.org/1999/xlink" x="0px" y="0px"
	 viewBox="0 0 56.7 56.7" style="enable-background:new 0 0 56.7 56.7;" xml:space="preserve">
<style type="text/css">
	.st0{fill:#1A171B;}
</style>
<g>
	<path class="st0" d="M52.1,33.2L27.2,8.3c0.9-0.1,1.7-0.2,2.6-0.2C41.5,8.1,51,17.6,51,29.3c0,0.4,0.3,0.7,0.7,0.7
		c0.4,0,0.7-0.3,0.7-0.7c0-12.5-10.2-22.6-22.6-22.6c-1.3,0-2.6,0.1-3.9,0.3l-0.5-0.5c-0.8-0.8-1.9-1.2-3-1.2H9.6
		c-2.3,0-4.2,1.9-4.2,4.2v12.8c0,1.1,0.5,2.2,1.2,3L7.3,26C7.1,27.1,7,28.3,7,29.4C7,41.9,17.2,52,29.6,52c0.4,0,0.7-0.3,0.7-0.7
		c0-0.4-0.3-0.7-0.7-0.7C18.1,50.5,8.5,41,8.5,29.3c0-0.7,0-1.4,0.1-2.1l24.7,24.7c0.8,0.8,1.9,1.2,3,1.2c1.1,0,2.2-0.4,3-1.2
		L52,39.2C53.7,37.5,53.7,34.9,52.1,33.2z M51.1,38.1L38.3,50.9c-1,1-2.9,1-3.9,0L8.9,25.4c0.5-2.9,1.6-5.6,3.3-7.9
		c0.6,0.3,1.2,0.5,1.9,0.5c1,0,2.1-0.4,2.9-1.2c1.5-1.5,1.6-3.8,0.3-5.4v-0.1c0,0-0.1,0-0.1-0.1c-0.2,0-0.2-0.1-0.3-0.2
		c-1.6-1.6-4.2-1.6-5.7,0c-1.5,1.5-1.6,4-0.2,5.5c-1.6,2.3-2.7,4.9-3.3,7.6c-0.5-0.5-0.8-1.2-0.8-1.9V9.4c0-1.5,1.2-2.8,2.8-2.8
		h12.7c0.7,0,1.4,0.3,2,0.8l26.8,26.7c0.5,0.5,0.8,1.2,0.8,2C52,36.9,51.6,37.6,51.1,38.1z M11.8,15.2c-0.6-0.9-0.5-2.3,0.4-3.2
		c0.5-0.5,1.2-0.8,1.8-0.8c0.5,0,1,0.1,1.4,0.4C14.1,12.7,12.9,13.9,11.8,15.2z M16.4,12.8c0.5,1,0.3,2.2-0.5,2.9
		c-0.8,0.8-1.9,0.9-2.9,0.5C14,15,15.1,13.8,16.4,12.8z"/>
	<path class="st0" d="M25.8,15.8c-0.3-0.3-0.7-0.3-1,0L16,24.6c-0.3,0.3-0.3,0.8,0,1l19.7,19.8c0.2,0.1,0.3,0.2,0.5,0.2
		s0.4-0.1,0.5-0.2l8.8-8.8c0.3-0.3,0.3-0.8,0-1L25.8,15.8z M36.2,43.9L17.5,25.1l7.8-7.8L44,36L36.2,43.9z"/>
</g>
</svg>
