<?xml version="1.0" encoding="utf-8"?>
<!-- Generator: Adobe Illustrator 24.2.3, SVG Export Plug-In . SVG Version: 6.00 Build 0)  -->
<svg version="1.1" id="Layer_1" xmlns="http://www.w3.org/2000/svg" xmlns:xlink="http://www.w3.org/1999/xlink" x="0px" y="0px"
	 viewBox="0 0 56.7 56.7" style="enable-background:new 0 0 56.7 56.7;" xml:space="preserve">
<style type="text/css">
	.st0{fill:#1A171B;}
</style>
<g>
	<path class="st0" d="M49.7,18.9h-0.1h-9.9h-0.4c-0.4,0-0.8,0.3-0.8,0.8c0,0.4,0.3,0.8,0.8,0.8h0.4h9.9c1.5,0,2.8,1.2,2.8,2.8v1.9
		H35.5c-0.4,0-0.8,0.3-0.8,0.8c0,0.4,0.3,0.8,0.8,0.8h16.9v5.7H16.5c-0.4,0-0.8,0.4-0.8,0.8c0,0.4,0.3,0.8,0.8,0.8h35.9v12.3
		c0,1.5-1.2,2.8-2.8,2.8h-42c-1.5,0-2.8-1.2-2.8-2.8V34.1h5.5c0.5,0,0.9-0.4,0.9-0.8c0-0.4-0.3-0.8-0.8-0.8H4.9v-5.7h17
		c0.4,0,0.8-0.3,0.8-0.8c0-0.4-0.3-0.8-0.8-0.8H4.8v-2c0-1.5,1.2-2.8,2.8-2.8h9.9H18c0.4,0,0.8-0.3,0.8-0.8c0-0.4-0.3-0.8-0.8-0.8
		h-0.5H7.6c-2.5,0-4.5,2-4.5,4.5v23.3c0,2.5,2,4.5,4.5,4.5h42c2.5,0,4.5-2.1,4.6-4.5V33.3V26v-2.6C54.2,20.9,52.2,18.9,49.7,18.9z"
		/>
	<path class="st0" d="M23.7,44.6h14.5c0.4,0,0.8-0.3,0.8-0.8c0-0.4-0.3-0.8-0.8-0.8H23.7c-0.4,0-0.8,0.3-0.8,0.8
		C22.9,44.2,23.2,44.6,23.7,44.6z"/>
	<path class="st0" d="M7.8,39.9V44c0,0.9,0.7,1.6,1.6,1.6h9.4c0.8,0,1.6-0.7,1.6-1.6v-4.1c0-0.9-0.7-1.6-1.6-1.6H9.4
		C8.5,38.3,7.8,39,7.8,39.9z M9.5,40h9.2v3.9H9.5V40z"/>
	<path class="st0" d="M33.9,41c0.4,0,0.8-0.4,0.8-0.8s-0.3-0.8-0.8-0.8H23.7c-0.4,0-0.8,0.4-0.8,0.8s0.3,0.8,0.8,0.8H33.9z"/>
	<path class="st0" d="M27.9,30.7c0.1,0.1,0.1,0.2,0.2,0.2c0.1,0.1,0.3,0.2,0.5,0.2c0.1,0,0.2,0,0.4-0.1c0,0,0,0,0.1,0
		c0.2-0.1,0.3-0.2,0.4-0.4l2.8-3.5c0.3-0.4,0.3-0.9-0.1-1.2c-0.4-0.3-0.9-0.3-1.2,0.1l-1.5,1.9V13.2c0-0.4-0.3-0.8-0.8-0.8
		c-0.4,0-0.8,0.3-0.8,0.8v14.7L26.3,26c-0.3-0.3-0.8-0.4-1.2-0.1c-0.3,0.3-0.4,0.8-0.1,1.2L27.9,30.7z"/>
	<path class="st0" d="M35.4,22.8c0.5,0,0.9-0.3,0.8-0.8V11.3c0-0.4-0.4-0.8-0.8-0.8c-0.4,0-0.8,0.3-0.8,0.8V22
		C34.6,22.4,34.9,22.8,35.4,22.8z"/>
	<path class="st0" d="M21.8,22.8c0.5,0,0.9-0.3,0.8-0.8V11.3c0-0.4-0.3-0.8-0.8-0.8c-0.4,0-0.8,0.3-0.8,0.8V22
		C21,22.4,21.3,22.8,21.8,22.8z"/>
</g>
</svg>
