<?xml version="1.0" encoding="utf-8"?>
<!-- Generator: Adobe Illustrator 24.2.3, SVG Export Plug-In . SVG Version: 6.00 Build 0)  -->
<svg version="1.1" id="Layer_1" xmlns="http://www.w3.org/2000/svg" xmlns:xlink="http://www.w3.org/1999/xlink" x="0px" y="0px"
	 viewBox="0 0 56.7 56.7" style="enable-background:new 0 0 56.7 56.7;" xml:space="preserve">
<style type="text/css">
	.st0{fill:#1A171B;}
</style>
<g>
	<path class="st0" d="M31,28.3h14.3h5.3h0.3c0.8,0,1.5-0.6,1.5-1.5v-0.4v-5.3v-9V6.8V6.4c0-0.8-0.7-1.4-1.5-1.4h-0.3h-5.3H11.5H6.2
		H5.8C5,5,4.3,5.6,4.3,6.4v20.4c0,0.8,0.6,1.5,1.4,1.5h0.4h5.4h14.2l-4.5,5.6c-0.2,0.2-0.2,0.5-0.1,0.8c0.1,0.2,0.4,0.4,0.7,0.4h2.5
		v17.2c0,0.4,0.3,0.7,0.7,0.7h6.6c0.4,0,0.7-0.3,0.7-0.7V35.1h2.5c0.3,0,0.5-0.2,0.7-0.4c0.1-0.3,0.1-0.6-0.1-0.8L31,28.3z
		 M50.9,26.5c0,0.2-0.2,0.4-0.3,0.4h-4.5v-0.1c0.3-2.5,2.3-4.5,4.8-4.9V26.5z M50.6,6.4c0.2,0,0.3,0.2,0.3,0.3v4.6
		C48.4,11,46.4,9,46.1,6.4H50.6z M5.9,6.8c0-0.2,0.2-0.3,0.3-0.3h4.6C10.4,9,8.4,11,5.9,11.3V6.8z M6.2,26.7L6.2,26.7
		c-0.2,0.1-0.3-0.1-0.3-0.3v-4.6c2.6,0.3,4.6,2.4,4.9,4.9H6.2z M12.2,26.8c-0.3-3.4-3.1-6.1-6.5-6.4v-7.6c3.4-0.3,6.1-3,6.5-6.4
		h32.4c0.3,3.3,3,6,6.3,6.4v7.6c-3.3,0.4-6,3.1-6.3,6.4H29.8l-0.9-1.1c-0.3-0.3-0.9-0.3-1.1,0l-0.9,1.1H12.2z M31.6,33.7L31.6,33.7
		c-0.4-0.1-0.7,0.2-0.7,0.6v17.3h-5.1V34.4c0-0.4-0.3-0.7-0.7-0.7h-1.8l5.1-6.3l5.1,6.3H31.6z"/>
	<path class="st0" d="M12.2,37.3c-0.3-0.3-0.9-0.3-1.1,0l-6.6,8.2c-0.2,0.2-0.2,0.5-0.1,0.8c0.1,0.2,0.4,0.4,0.7,0.4h2.6v5.6
		C7.7,52.7,8,53,8.4,53H15c0.4,0,0.7-0.3,0.7-0.7v-5.6h2.6c0.3,0,0.5-0.2,0.6-0.4c0.1-0.3,0.1-0.6-0.1-0.8L12.2,37.3z M14.9,45.3
		c-0.4,0-0.7,0.3-0.7,0.7v5.6H9V46c0-0.4-0.3-0.7-0.7-0.7H6.5l5-6.3l5.1,6.3H14.9z"/>
	<path class="st0" d="M52.3,41.2L45.7,33c-0.3-0.3-0.9-0.3-1.1,0L38,41.2c-0.2,0.2-0.2,0.5-0.1,0.8c0.1,0.3,0.4,0.4,0.6,0.4h2.6v9.9
		c0,0.4,0.3,0.7,0.7,0.7h6.6c0.4,0,0.7-0.3,0.7-0.7v-9.9h2.6c0.3,0,0.5-0.2,0.7-0.4C52.5,41.8,52.5,41.5,52.3,41.2z M48.4,40.9
		c-0.4,0-0.7,0.3-0.7,0.7v10h-5.1v-10c0-0.4-0.3-0.7-0.7-0.7h-1.8l5.1-6.3l5.1,6.3H48.4z"/>
	<path class="st0" d="M27.6,23.4c0,0.4,0.3,0.7,0.7,0.7c0.4,0,0.7-0.3,0.7-0.7v-0.8c1.7-0.3,2.9-1.7,2.9-3.3c0-1.6-1-3.4-3.6-3.4
		c-1.4,0-2.2-0.7-2.2-1.9c0.1-1.1,1.1-1.9,2.3-1.9c1.2,0,2.2,0.9,2.2,1.9c0,0.4,0.3,0.7,0.7,0.7c0.4,0,0.7-0.3,0.7-0.7
		c0-1.6-1.3-3-2.9-3.3V9.9c0-0.4-0.3-0.7-0.7-0.7c-0.4,0-0.7,0.3-0.7,0.7v0.8c-1.7,0.3-3,1.7-3,3.3c0,1.6,1,3.4,3.6,3.4
		c1.4,0,2.2,0.6,2.2,1.9c0,1.1-1,1.9-2.2,1.9s-2.2-0.9-2.2-1.9c0-0.4-0.3-0.7-0.7-0.7c-0.4,0-0.7,0.3-0.7,0.7c0,1.6,1.2,3,2.9,3.3
		V23.4z"/>
	<path class="st0" d="M40.4,20.3h1.5c1.6,0,2.9-1.3,2.9-2.9V16c0-1.6-1.3-2.9-2.9-2.9h-1.5c-1.6,0-2.9,1.3-2.9,2.9v1.4
		C37.5,19,38.8,20.3,40.4,20.3z M38.8,16c0-0.8,0.6-1.4,1.5-1.4h1.5c0.8,0,1.5,0.6,1.5,1.4v1.4c0,0.8-0.7,1.5-1.5,1.5h-1.5
		c-0.8,0-1.5-0.6-1.5-1.5V16z"/>
	<path class="st0" d="M16.4,13H15c-1.6,0-2.9,1.3-2.9,2.9v1.4c0,1.6,1.3,2.9,2.9,2.9h1.4c1.6,0,2.9-1.3,2.9-2.9v-1.4
		C19.3,14.3,18,13,16.4,13z M17.8,17.4c0,0.8-0.6,1.5-1.5,1.5h-1.4c-0.8,0-1.5-0.6-1.5-1.5V16c0-0.8,0.6-1.4,1.5-1.4h1.4
		c0.8,0,1.5,0.6,1.5,1.4V17.4z"/>
</g>
</svg>
