<?xml version="1.0" encoding="utf-8"?>
<!-- Generator: Adobe Illustrator 24.2.3, SVG Export Plug-In . SVG Version: 6.00 Build 0)  -->
<svg version="1.1" id="Layer_1" xmlns="http://www.w3.org/2000/svg" xmlns:xlink="http://www.w3.org/1999/xlink" x="0px" y="0px"
	 viewBox="0 0 56.7 56.7" style="enable-background:new 0 0 56.7 56.7;" xml:space="preserve">
<style type="text/css">
	.st0{fill:#1A171B;}
</style>
<g>
	<path class="st0" d="M47.8,22c-0.1-0.4-0.4-0.6-0.7-0.6H22.3c1.8-2.9,3.5-6.5,3.5-9.4c0-4.3-3.5-7.8-7.8-7.8s-7.8,3.5-7.8,7.8
		c0,2.9,1.7,6.5,3.5,9.4h-2.1c-0.4,0-0.7,0.3-0.7,0.6L4.8,51.6c0,0.2,0,0.4,0.2,0.6c0.1,0.2,0.4,0.3,0.6,0.3H53
		c0.2,0,0.4-0.1,0.6-0.3c0.1-0.2,0.2-0.4,0.2-0.6L47.8,22z M47.9,30.3l1.2,5.9h-8.5L40,30.3H47.9z M46.4,22.9l1.2,5.9h-7.8l-0.6-5.9
		H46.4z M30,22.9h7.8l0.6,5.9H30V22.9z M11.5,12.1c0.1-3.6,2.9-6.4,6.4-6.4s6.3,2.9,6.3,6.4c0,4.4-4.7,11-6.3,13.2
		C16.2,23.1,11.5,16.5,11.5,12.1z M18,28.6c-1.6,0-2.7-0.8-2.7-1.5c0-0.5,0.5-1,1.3-1.3c0.4,0.6,0.7,0.9,0.7,1
		c0.1,0.2,0.4,0.3,0.6,0.3c0.2,0,0.4-0.1,0.6-0.3c0.1-0.1,0.3-0.4,0.8-1c0.8,0.3,1.3,0.8,1.3,1.3C20.6,27.8,19.5,28.6,18,28.6z
		 M16.4,51H6.5l1.1-5.9H17L16.4,51z M28.5,51H17.9l0.6-5.9h10V51z M30,51v-6.7c0-0.4-0.3-0.7-0.7-0.7H18.6l0.3-2.5
		c0-0.4-0.3-0.8-0.7-0.8c-0.4-0.1-0.8,0.2-0.8,0.6l-0.3,2.7H7.9l1.2-5.9H13c0.4,0,0.7-0.3,0.7-0.7s-0.3-0.7-0.7-0.7H9.4L12.1,23h2.4
		c0.4,0.6,0.8,1.2,1.2,1.8c-1.1,0.5-1.8,1.4-1.8,2.5c0,1.1,0.8,2.1,2.1,2.6c-0.7,1.3-1.8,3.9-1.1,6.1c0.4,1.2,1.2,2.1,2.5,2.7
		c2.8,1.2,4.8,0.1,6.4-0.9c1.5-0.9,2.4-1.3,3.7-0.8c1.6,0.7,1.9,1.7,2.3,2.9c0.4,1.4,0.8,2.9,3.2,3.7c1.6,0.5,3-0.1,4.3-0.6
		c1.8-0.7,3.2-1.3,5.2,0.7c-1.1,0.5-1.8,1.4-1.8,2.5c0,1.6,1.8,3,4.1,3s4.1-1.3,4.1-3s-1.8-3-4.1-3c-0.2,0-0.4,0-0.6,0
		c-2.9-3.4-5.4-2.4-7.4-1.6c-1.2,0.5-2.2,0.9-3.3,0.5c-1.6-0.5-1.9-1.4-2.3-2.7c-0.4-1.3-0.8-2.9-3.1-3.9c-2.1-0.9-3.6,0-5.1,0.9
		c-1.5,0.9-2.9,1.7-5,0.8c-0.9-0.4-1.4-1-1.7-1.8c-0.6-1.9,0.7-4.4,1.2-5.3c0.2,0,0.3,0,0.5,0c0.3,0,0.5,0,0.7-0.1
		c0,0.1,0,0.1,0,0.2l-0.4,3.5c0,0.4,0.3,0.8,0.7,0.8h0.1c0.4,0,0.7-0.3,0.7-0.7l0.4-3.5c0-0.2-0.1-0.4-0.3-0.6
		c1.3-0.5,2.2-1.5,2.2-2.6c0-1.1-0.7-2-1.8-2.5c0.4-0.5,0.8-1.1,1.2-1.8h7.2v5.9h-5.3c-0.4,0-0.7,0.3-0.7,0.7c0,0.4,0.3,0.7,0.7,0.7
		h5.3v3.5c0,0.4,0.3,0.7,0.7,0.7c0.4,0,0.7-0.3,0.7-0.7v-3.5h8.5l0.6,5.9h-6.5c-0.4,0-0.7,0.3-0.7,0.7s0.3,0.7,0.7,0.7h6.6l0.1,1.3
		c0,0.4,0.4,0.7,0.7,0.7h0.1c0.4,0,0.7-0.4,0.7-0.8l-0.1-1.1h8.6L52,51H30z M44.6,44.6c1.5,0,2.6,0.8,2.6,1.5c0,0.7-1.1,1.5-2.6,1.5
		S42,46.8,42,46.1C42,45.4,43.1,44.6,44.6,44.6z"/>
	<path class="st0" d="M21.8,10.6c0-2-1.6-3.6-3.6-3.6s-3.6,1.6-3.6,3.6s1.6,3.6,3.6,3.6S21.8,12.5,21.8,10.6z M16.2,10.6
		c0-1.2,0.9-2.1,2.1-2.1c1.1,0,2.1,0.9,2.1,2.1c0,1.2-1,2.1-2.1,2.1C17.1,12.7,16.2,11.8,16.2,10.6z"/>
</g>
</svg>
