<?xml version="1.0" encoding="utf-8"?>
<!-- Generator: Adobe Illustrator 24.2.3, SVG Export Plug-In . SVG Version: 6.00 Build 0)  -->
<svg version="1.1" id="Layer_1" xmlns="http://www.w3.org/2000/svg" xmlns:xlink="http://www.w3.org/1999/xlink" x="0px" y="0px"
	 viewBox="0 0 28.4 28.4" style="enable-background:new 0 0 28.4 28.4;" xml:space="preserve">
<style type="text/css">
	.st0{fill:#231F20;}
</style>
<g>
	<path class="st0" d="M26.1,23.1L26.1,23.1L26,14.7c0-0.7-0.3-1.5-0.8-2l-2.5-2.5V3.7c0-0.7-0.6-1.2-1.2-1.2H3.2C2.5,2.5,2,3,2,3.7
		v10.8c0,0.7,0.6,1.2,1.2,1.2h12.5v2.7c0,1,0.3,1.8,1,2.5c0.5,0.5,0.8,1.2,0.8,1.9v0.3H17c-0.5,0-0.9,0.4-0.9,0.9v2.6
		c0,0.5,0.4,0.9,0.9,0.9h9.1c0.5,0,0.9-0.4,0.9-0.9V24C27,23.5,26.6,23.1,26.1,23.1z M2.8,5.6h19.1V8H2.8V5.6z M3.2,3.3h18.3
		c0.2,0,0.4,0.2,0.4,0.4v1.1H2.8V3.7C2.8,3.5,3,3.3,3.2,3.3z M2.8,14.6V8.7h19.1v4.4l-2.3-2.3c-0.8-0.7-2-0.7-2.7,0
		c-0.4,0.3-0.6,0.8-0.6,1.3s0.2,0.9,0.6,1.3l1.6,1.6h-2.2c-0.1-0.1-0.2-0.1-0.2-0.1s-0.2,0-0.2,0.1H3.2C3,15,2.8,14.8,2.8,14.6z
		 M17.3,20.3c-0.5-0.5-0.8-1.2-0.8-1.9v-2.7h2.1c-0.5,1-0.8,2.6,0.4,3.8c0.1,0.1,0.2,0.1,0.3,0.1c0.1,0,0.2,0,0.3-0.1
		c0.1-0.1,0.1-0.4,0-0.5c-1.5-1.4-0.1-3.3,0-3.4l0,0c0,0,0.1-0.1,0.1-0.1l0.1-0.2l-2.4-2.4c-0.2-0.2-0.3-0.5-0.3-0.8
		s0.1-0.6,0.3-0.8c0.4-0.4,1.2-0.4,1.6,0l3,2.9c0,0.1,0.1,0.1,0.2,0.2l0.8,0.8c0.1,0.1,0.4,0.1,0.5,0c0.1-0.1,0.1-0.4,0-0.5
		l-0.7-0.7v-2.7l2,2c0.4,0.4,0.6,0.9,0.6,1.5v8.4h-7v-0.3C18.3,21.8,18,21,17.3,20.3z M26.3,26.6C26.3,26.7,26.3,26.7,26.3,26.6
		l-9.2,0.1c-0.1,0-0.1,0-0.1-0.1V24c0-0.1,0-0.1,0.1-0.1h9.1c0.1,0,0.1,0,0.1,0.1V26.6z"/>
	<path class="st0" d="M25.3,24.9h-1.6c-0.2,0-0.4,0.2-0.4,0.4c0,0.2,0.2,0.4,0.4,0.4h1.6c0.2,0,0.4-0.2,0.4-0.4
		C25.7,25.1,25.5,24.9,25.3,24.9z"/>
	<path class="st0" d="M9.3,9.5H4.5c-0.2,0-0.4,0.2-0.4,0.4s0.2,0.4,0.4,0.4h4.7c0.2,0,0.5-0.2,0.5-0.4S9.5,9.5,9.3,9.5z"/>
	<path class="st0" d="M6.7,11H4.5c-0.2,0-0.4,0.1-0.4,0.3c0,0.2,0.2,0.4,0.4,0.4h2.1c0.2,0,0.4-0.1,0.4-0.3S6.8,11,6.7,11z"/>
</g>
</svg>
