<?xml version="1.0" encoding="utf-8"?>
<!-- Generator: Adobe Illustrator 24.2.3, SVG Export Plug-In . SVG Version: 6.00 Build 0)  -->
<svg version="1.1" id="Layer_1" xmlns="http://www.w3.org/2000/svg" xmlns:xlink="http://www.w3.org/1999/xlink" x="0px" y="0px"
	 viewBox="0 0 56.7 56.7" style="enable-background:new 0 0 56.7 56.7;" xml:space="preserve">
<style type="text/css">
	.st0{fill:#1A171B;}
</style>
<g>
	<path class="st0" d="M48.4,4.9H8.3c-2.5,0-4.5,2-4.5,4.5v34.9c0,2.4,2,4.5,4.5,4.5h0.8V49c0,2,1.7,3.7,3.7,3.7s3.7-1.7,3.7-3.7
		v-0.3h23.7V49c0,2,1.7,3.7,3.7,3.7s3.7-1.7,3.7-3.7v-0.3h0.8c2.5,0,4.5-2,4.5-4.5V9.4C52.9,6.9,50.9,4.9,48.4,4.9z M15,49
		c0,1.2-1,2.2-2.2,2.2s-2.2-1-2.2-2.2v-0.3H15V49z M46.1,49c0,1.2-1,2.2-2.2,2.2c-1.2,0-2.2-1-2.2-2.2v-0.3h4.4V49z M51.4,44.3
		c0,1.6-1.3,3-3,3h-1.6h-5.9H15.8h-6H8.3c-1.6,0-3-1.3-3-3V9.4c0-1.6,1.3-3,3-3h40.1c1.6,0,3,1.3,3,3V44.3z"/>
	<path class="st0" d="M44.3,11.2H13c-1.6,0-2.8,1.3-2.8,2.9v1.8C8.9,16.2,8,17.3,8,18.6v0.6c0,1.3,0.9,2.5,2.2,2.8v9.5
		C8.9,31.9,8,33,8,34.4V35c0,1.4,0.9,2.5,2.2,2.8v1.8c0,1.6,1.3,2.9,2.8,2.9h31.2c1.6,0,2.8-1.3,2.8-2.9V14.1
		C47.1,12.5,45.8,11.2,44.3,11.2z M45.6,39.6c0,0.8-0.6,1.4-1.4,1.4H13c-0.8,0-1.4-0.6-1.4-1.4v-2.4c0-0.4-0.3-0.8-0.7-0.8
		c-0.8,0-1.4-0.6-1.4-1.4v-0.6c0-0.8,0.6-1.4,1.4-1.4c0.4,0,0.7-0.3,0.7-0.8V21.4c0-0.4-0.3-0.8-0.7-0.8c-0.8,0-1.4-0.6-1.4-1.4
		v-0.6c0-0.8,0.6-1.4,1.4-1.4c0.4,0,0.7-0.3,0.7-0.8V14c0-0.8,0.6-1.4,1.4-1.4h31.2c0.8,0,1.4,0.6,1.4,1.4V39.6z"/>
	<path class="st0" d="M31.3,16.8H17.9c-0.8,0-1.5,0.7-1.5,1.5v17.1c0,0.8,0.7,1.5,1.5,1.5h13.4c0.8,0,1.5-0.7,1.5-1.5V18.3
		C32.8,17.4,32.1,16.8,31.3,16.8z M31.3,35.4H17.9V18.3h13.4V35.4z"/>
	<path class="st0" d="M24.6,22c0.2,0,0.4-0.1,0.5-0.2c0.1-0.1,0.2-0.3,0.2-0.5c0-0.2-0.1-0.4-0.2-0.5c-0.2-0.3-0.7-0.3-1,0
		c-0.1,0.1-0.2,0.3-0.2,0.5c0,0.2,0.1,0.4,0.2,0.5C24.2,22,24.4,22,24.6,22z"/>
	<path class="st0" d="M24.6,29.4c0.4,0,0.8-0.3,0.8-0.7s-0.4-0.8-0.8-0.8c-0.4,0-0.7,0.3-0.7,0.8C23.9,29.1,24.2,29.4,24.6,29.4z"/>
	<path class="st0" d="M24.6,25.7c0.4,0,0.8-0.3,0.8-0.8c0-0.3-0.4-0.7-0.8-0.7c-0.4,0-0.7,0.3-0.7,0.7
		C23.9,25.3,24.2,25.7,24.6,25.7z"/>
	<path class="st0" d="M24.6,33c0.2,0,0.4-0.1,0.5-0.2c0.1-0.1,0.2-0.3,0.2-0.5c0-0.2-0.1-0.4-0.2-0.5c-0.2-0.3-0.7-0.3-1,0
		c-0.1,0.1-0.2,0.3-0.2,0.5c0,0.2,0.1,0.4,0.2,0.5C24.2,33,24.4,33,24.6,33z"/>
	<path class="st0" d="M20.9,22c0.2,0,0.4-0.1,0.5-0.2c0.1-0.1,0.2-0.3,0.2-0.5c0-0.2-0.1-0.4-0.2-0.5c-0.2-0.3-0.7-0.3-1,0
		c-0.1,0.1-0.2,0.3-0.2,0.5c0,0.2,0.1,0.4,0.2,0.5C20.5,22,20.7,22,20.9,22z"/>
	<path class="st0" d="M20.9,25.7c0.4,0,0.8-0.3,0.8-0.8c0-0.3-0.4-0.7-0.8-0.7c-0.4,0-0.7,0.3-0.7,0.7
		C20.2,25.3,20.5,25.7,20.9,25.7z"/>
	<path class="st0" d="M20.9,29.4c0.4,0,0.8-0.3,0.8-0.7s-0.4-0.8-0.8-0.8c-0.4,0-0.7,0.3-0.7,0.8C20.2,29.1,20.5,29.4,20.9,29.4z"/>
	<path class="st0" d="M20.9,33c0.2,0,0.4-0.1,0.5-0.2c0.1-0.1,0.2-0.3,0.2-0.5c0-0.2-0.1-0.4-0.2-0.5c-0.2-0.3-0.7-0.3-1,0
		c-0.1,0.1-0.2,0.3-0.2,0.5c0,0.2,0.1,0.4,0.2,0.5C20.5,33,20.7,33,20.9,33z"/>
	<path class="st0" d="M28.3,22c0.2,0,0.4-0.1,0.5-0.2c0.1-0.1,0.2-0.3,0.2-0.5c0-0.2-0.1-0.4-0.2-0.5c-0.2-0.3-0.7-0.3-1,0
		c-0.1,0.1-0.2,0.3-0.2,0.5c0,0.2,0.1,0.4,0.2,0.5C28,22,28.2,22,28.3,22z"/>
	<path class="st0" d="M28.3,29.4c0.4,0,0.8-0.3,0.8-0.7s-0.3-0.8-0.8-0.8c-0.4,0-0.7,0.3-0.7,0.8C27.6,29.1,27.9,29.4,28.3,29.4z"/>
	<path class="st0" d="M28.3,25.7c0.4,0,0.8-0.3,0.8-0.8c0-0.3-0.3-0.7-0.8-0.7c-0.4,0-0.7,0.3-0.7,0.7
		C27.6,25.3,27.9,25.7,28.3,25.7z"/>
	<path class="st0" d="M28.3,33c0.2,0,0.4-0.1,0.5-0.2c0.1-0.1,0.2-0.3,0.2-0.5c0-0.2-0.1-0.4-0.2-0.5c-0.2-0.3-0.7-0.3-1,0
		c-0.1,0.2-0.2,0.4-0.2,0.5c0,0.2,0.1,0.4,0.2,0.5C27.9,33,28.1,33,28.3,33z"/>
	<path class="st0" d="M38.8,19.4c-1.4,0-2.6,1.2-2.6,2.6c0,1.2,0.8,2.2,1.9,2.5v8.9c0,0.4,0.3,0.8,0.8,0.8c0.4,0,0.7-0.3,0.7-0.8
		v-8.9c1.1-0.3,1.9-1.3,1.9-2.5C41.4,20.6,40.2,19.4,38.8,19.4z M38.8,23.2c-0.6,0-1.1-0.5-1.1-1.1c0-0.6,0.5-1.1,1.1-1.1
		c0.6,0,1.1,0.5,1.1,1.1C39.9,22.6,39.4,23.2,38.8,23.2z"/>
</g>
</svg>
