<?xml version="1.0" encoding="utf-8"?>
<!-- Generator: Adobe Illustrator 24.2.3, SVG Export Plug-In . SVG Version: 6.00 Build 0)  -->
<svg version="1.1" id="Layer_1" xmlns="http://www.w3.org/2000/svg" xmlns:xlink="http://www.w3.org/1999/xlink" x="0px" y="0px"
	 viewBox="0 0 56.7 56.7" style="enable-background:new 0 0 56.7 56.7;" xml:space="preserve">
<style type="text/css">
	.st0{fill:#1A171B;}
</style>
<g>
	<g>
		<path class="st0" d="M15.4,22.1c0,0.4,0.4,0.8,0.8,0.8s0.8-0.3,0.8-0.8c0-0.4-0.3-0.8-0.8-0.8C15.7,21.3,15.4,21.6,15.4,22.1z"/>
	</g>
	<g>
		<path class="st0" d="M36.9,22.1c0,0.4,0.3,0.8,0.8,0.8c0.4,0,0.8-0.3,0.8-0.8c0-0.4-0.4-0.8-0.8-0.8
			C37.3,21.3,36.9,21.6,36.9,22.1z"/>
	</g>
	<g>
		<path class="st0" d="M16.9,42.9c0-0.4-0.3-0.8-0.8-0.8c-0.4,0-0.8,0.3-0.8,0.8c0,0.4,0.4,0.8,0.8,0.8
			C16.6,43.6,16.9,43.3,16.9,42.9z"/>
	</g>
	<g>
		<path class="st0" d="M26.9,10.8c0-0.4-0.3-0.8-0.8-0.8h-10c-0.4,0-0.8,0.3-0.8,0.8c0,0.4,0.4,0.8,0.8,0.8h10
			C26.6,11.6,26.9,11.2,26.9,10.8z"/>
	</g>
	<g>
		<path class="st0" d="M24.6,17h7.7c0.4,0,0.8-0.4,0.8-0.8s-0.3-0.8-0.8-0.8h-7.7c-0.4,0-0.8,0.3-0.8,0.8C23.9,16.6,24.2,17,24.6,17
			z"/>
	</g>
	<g>
		<path class="st0" d="M21.5,16.2c0-0.4-0.3-0.8-0.8-0.8h-4.6c-0.4,0-0.8,0.3-0.8,0.8c0,0.4,0.4,0.8,0.8,0.8h4.6
			C21.2,17,21.5,16.6,21.5,16.2z"/>
	</g>
	<g>
		<path class="st0" d="M51.7,27.6H37.5c-1.8-4.1-5.8-7-10.6-7c-6.4,0-11.6,5.2-11.6,11.5c0,6.4,5.2,11.5,11.6,11.5
			c2.4,0,4.6-0.7,6.4-2v5.2c0,1.3,1.1,2.4,2.4,2.4H38v3.3H6V9.7h3.3v38.8c0,0.4,0.4,0.8,0.8,0.8h20.2c0.4,0,0.8-0.3,0.8-0.8
			c0-0.4-0.3-0.8-0.8-0.8H10.9V4.9h23.7v7.5c0,0.4,0.3,0.8,0.8,0.8h7.5v11.4c0,0.4,0.3,0.8,0.8,0.8c0.4,0,0.8-0.3,0.8-0.8V12.4
			c0,0,0,0,0-0.1s0-0.1,0-0.2V12c0-0.1-0.1-0.2-0.2-0.2L36,3.5c-0.1,0-0.1-0.1-0.2-0.1c0,0,0,0-0.1,0s-0.1,0-0.2,0l0,0H10.2
			c-0.4,0-0.8,0.3-0.8,0.8v4.1H5.3C4.9,8.2,4.5,8.5,4.5,9v44.5c0,0.4,0.3,0.8,0.8,0.8h33.5c0.4,0,0.8-0.3,0.8-0.8v-4.1h12.2
			c1.3,0,2.4-1.1,2.4-2.4V30C54.2,28.7,53.1,27.6,51.7,27.6z M41.8,11.6h-5.6V6L41.8,11.6z M16.9,32.1c0-5.5,4.5-10,10-10
			c3.9,0,7.3,2.2,8.9,5.5h-0.1c-1.3,0-2.4,1.1-2.4,2.4v2h-1.4c0-2.7-2.3-4.9-5-4.9c-2.8,0-5,2.2-5,5s2.3,5,5,5
			c1.2,0,2.3-0.4,3.2-1.1l3,4c-1.7,1.3-3.9,2.2-6.2,2.2C21.4,42.1,16.9,37.6,16.9,32.1z M28.6,32c-0.3,0-0.6,0.2-0.7,0.4
			c-0.1,0.3-0.1,0.6,0.1,0.8l1.1,1.5c-0.6,0.5-1.4,0.8-2.2,0.8c-1.9,0-3.5-1.6-3.5-3.5c0-1.9,1.6-3.5,3.5-3.5s3.4,1.5,3.5,3.4h-1.8
			V32z M52.6,46.9c0,0.5-0.4,0.9-0.9,0.9H35.8c-0.5,0-0.9-0.4-0.9-0.9V40c0-0.2-0.1-0.3-0.2-0.5l-4.6-5.9H34c0.4,0,0.8-0.3,0.8-0.8
			V30c0-0.5,0.4-0.9,0.9-0.9h15.9c0.5,0,0.9,0.4,0.9,0.9L52.6,46.9L52.6,46.9z"/>
	</g>
	<g>
		<path class="st0" d="M48.8,32.7h-10c-0.4,0-0.8,0.3-0.8,0.8c0,0.4,0.3,0.8,0.8,0.8h10c0.4,0,0.8-0.3,0.8-0.8
			C49.5,33,49.2,32.7,48.8,32.7z"/>
	</g>
	<g>
		<path class="st0" d="M48.8,37.7h-10c-0.4,0-0.8,0.3-0.8,0.8c0,0.4,0.3,0.8,0.8,0.8h10c0.4,0,0.8-0.3,0.8-0.8
			C49.5,38,49.2,37.7,48.8,37.7z"/>
	</g>
	<g>
		<path class="st0" d="M44.9,42.7h-6.2c-0.4,0-0.8,0.3-0.8,0.8c0,0.4,0.3,0.8,0.8,0.8h6.2c0.4,0,0.8-0.3,0.8-0.8
			S45.3,42.7,44.9,42.7z"/>
	</g>
</g>
</svg>
