<?xml version="1.0" encoding="utf-8"?>
<!-- Generator: Adobe Illustrator 24.2.3, SVG Export Plug-In . SVG Version: 6.00 Build 0)  -->
<svg version="1.1" id="Layer_1" xmlns="http://www.w3.org/2000/svg" xmlns:xlink="http://www.w3.org/1999/xlink" x="0px" y="0px"
	 viewBox="0 0 28.4 28.4" style="enable-background:new 0 0 28.4 28.4;" xml:space="preserve">
<style type="text/css">
	.st0{fill:#1A171B;}
</style>
<path class="st0" d="M8.7,10.8C8.8,10.9,8.9,11,9,11s0.2-0.1,0.3-0.2l0.9-1.5c0.1-0.2,0.1-0.4-0.1-0.5C10,8.7,9.8,8.8,9.7,9L9,10
	L8.7,9.7C8.6,9.5,8.4,9.5,8.2,9.6C8.1,9.7,8,10,8.2,10.1L8.7,10.8z"/>
<path class="st0" d="M8.7,13.6c0.1,0.1,0.2,0.1,0.3,0.1s0.2-0.1,0.3-0.2l0.9-1.5c0.1-0.2,0.1-0.4-0.1-0.5c-0.2-0.1-0.4-0.1-0.5,0.1
	l-0.7,1l-0.3-0.3c-0.1-0.1-0.4-0.2-0.5-0.1c-0.2,0.1-0.2,0.4-0.1,0.5L8.7,13.6z"/>
<path class="st0" d="M10.1,14.3c-0.2-0.1-0.4-0.1-0.5,0.1l-0.7,1l-0.3-0.3c0-0.1-0.2-0.1-0.4,0C8,15.2,8,15.5,8.1,15.6l0.6,0.8
	c0.1,0.1,0.2,0.1,0.3,0.1s0.2-0.1,0.3-0.2l0.9-1.5C10.3,14.6,10.3,14.4,10.1,14.3z"/>
<path class="st0" d="M11.6,10.2h4.7c0.2,0,0.4-0.2,0.4-0.4c0-0.2-0.2-0.4-0.4-0.4h-4.7c-0.2,0-0.4,0.2-0.4,0.4
	C11.3,10.1,11.4,10.2,11.6,10.2z"/>
<path class="st0" d="M11.6,13h2.9c0.2,0,0.4-0.2,0.4-0.4s-0.2-0.4-0.4-0.4h-2.9c-0.2,0-0.4,0.2-0.4,0.4C11.3,12.8,11.4,13,11.6,13z"
	/>
<path class="st0" d="M11.6,15.8h4c0.2,0,0.4-0.2,0.4-0.4S15.8,15,15.6,15h-4c-0.2,0-0.4,0.2-0.4,0.4C11.3,15.6,11.4,15.8,11.6,15.8z
	"/>
<path class="st0" d="M21.8,14c-0.1,0-0.2,0-0.4,0V6.1c0-0.8-0.6-1.4-1.4-1.4h-2.8c-0.1-0.4-0.5-0.7-1-0.7h-1.5c-0.2-1-1-1.7-2.1-1.7
	c-1.1,0-1.9,0.8-2,1.7H9.1C8.6,4,8.2,4.3,8,4.7H5.2c-0.8,0-1.4,0.6-1.4,1.4v18.5c0,0.8,0.6,1.4,1.4,1.4H20c0.8,0,1.4-0.6,1.4-1.4
	v-0.2c0.1,0,0.2,0,0.4,0c2.9,0,5.2-2.3,5.2-5.2C27,16.3,24.7,14,21.8,14z M17.3,5.5H20c0.4,0,0.7,0.3,0.7,0.6v8
	c-0.6,0.1-1.1,0.3-1.6,0.6V7c0-0.2-0.2-0.4-0.4-0.4h-1.4V5.5z M8.7,5.2c0-0.2,0.2-0.4,0.4-0.4h1.8c0.2,0,0.4-0.2,0.4-0.4
	c0-0.8,0.6-1.4,1.4-1.4C13.4,3,14,3.6,14,4.4c0,0.2,0.2,0.4,0.4,0.4h1.8c0.2,0,0.4,0.2,0.4,0.4v1.6c0,0.2-0.2,0.4-0.4,0.4H9.1
	C8.9,7.2,8.7,7,8.7,6.8V5.2z M8.1,7.3c0.2,0.4,0.6,0.6,1,0.6h7.1c0.4,0,0.8-0.2,1-0.6h1.2v7.9c-1.1,0.9-1.8,2.4-1.8,3.9
	c0,1.2,0.4,2.3,1.1,3.2H6.9v-15H8.1z M20.8,24.6L20.8,24.6c-0.1,0.4-0.4,0.7-0.8,0.7H5.2c-0.4,0-0.7-0.3-0.7-0.7V6.1
	c0-0.4,0.3-0.7,0.7-0.7h2.7v1.2H6.5C6.3,6.6,6.2,6.8,6.2,7v15.8c0,0.2,0.2,0.4,0.4,0.4h11.9c0.7,0.6,1.4,1,2.3,1.2V24.6z M21.8,23.7
	c-2.5,0-4.5-2-4.5-4.5s2-4.5,4.5-4.5s4.5,2,4.5,4.5S24.3,23.7,21.8,23.7z"/>
<path class="st0" d="M21.7,17.2c0.5,0,0.9,0.3,0.9,0.8c0,0.2,0.2,0.4,0.4,0.4s0.4-0.2,0.4-0.4c0-1.8-3.2-1.9-3.2,0
	c0,0.7,0.4,1.5,1.6,1.5c0.6,0,0.9,0.2,0.9,0.8c0,0.4-0.4,0.8-0.9,0.8s-0.9-0.3-0.9-0.8c0-0.2-0.2-0.4-0.4-0.4s-0.4,0.2-0.4,0.4
	c0,1.4,1.9,1.9,2.8,1c0.2-0.3,0.4-0.6,0.4-1c0-0.7-0.4-1.5-1.6-1.5c-0.6,0-0.9-0.3-0.9-0.8C20.8,17.6,21.2,17.2,21.7,17.2z"/>
<path class="st0" d="M8.7,18.8c-0.2,0-0.4,0.2-0.4,0.4v2.1c0,0.2,0.2,0.4,0.4,0.4s0.4-0.2,0.4-0.4v-2.1C9.1,18.9,8.9,18.8,8.7,18.8z
	"/>
<path class="st0" d="M10.8,21.6c0.2,0,0.4-0.2,0.4-0.4v-1.4c0-0.2-0.2-0.4-0.4-0.4s-0.4,0.2-0.4,0.4v1.4
	C10.4,21.4,10.6,21.6,10.8,21.6z"/>
<path class="st0" d="M12.9,17.7c-0.2,0-0.4,0.2-0.4,0.4v3.1c0,0.2,0.2,0.4,0.4,0.4c0.2,0,0.4-0.2,0.4-0.4v-3.1
	C13.2,17.9,13.1,17.7,12.9,17.7z"/>
<path class="st0" d="M14.9,17c-0.2,0-0.4,0.2-0.4,0.4v3.9c0,0.2,0.2,0.4,0.4,0.4c0.2,0,0.4-0.2,0.4-0.4v-3.9
	C15.3,17.1,15.1,17,14.9,17z"/>
</svg>
