<?xml version="1.0" encoding="utf-8"?>
<!-- Generator: Adobe Illustrator 24.2.3, SVG Export Plug-In . SVG Version: 6.00 Build 0)  -->
<svg version="1.1" id="Layer_1" xmlns="http://www.w3.org/2000/svg" xmlns:xlink="http://www.w3.org/1999/xlink" x="0px" y="0px"
	 viewBox="0 0 56.7 56.7" style="enable-background:new 0 0 56.7 56.7;" xml:space="preserve">
<style type="text/css">
	.st0{fill:#1A171B;}
</style>
<g>
	<g>
		<path class="st0" d="M14.8,47.8c-0.5,0-0.9,0.4-0.9,0.9s0.4,0.9,0.9,0.9s0.9-0.4,0.9-0.9C15.7,48.3,15.3,47.8,14.8,47.8z"/>
	</g>
	<g>
		<path class="st0" d="M42.9,47.8c-0.5,0-0.9,0.4-0.9,0.9s0.4,0.9,0.9,0.9s0.9-0.4,0.9-0.9C43.8,48.3,43.4,47.8,42.9,47.8z"/>
	</g>
	<g>
		<path class="st0" d="M54.4,32.4c-0.9-0.9-2.2-1.5-3.8-1.6c-0.4-2.1-1.7-8.7-4.9-12.1c-1.5-1.5-3.6-2.4-5.8-2.4h-2.6
			c-0.1-2.5-0.8-4.8-2-6.8c0,0,0,0,0-0.1c0,0,0,0-0.1-0.1C33.9,7,32,5.1,29.7,3.8c0,0,0,0-0.1-0.1h-0.1c-2.2-1.3-4.8-2-7.6-2
			s-5.4,0.8-7.6,2h-0.1c0,0,0,0-0.1,0.1C11.9,5.2,10,7.1,8.7,9.4c0,0,0,0-0.1,0.1v0.1c-1.2,2-1.9,4.3-2,6.8H2.4
			c-0.5,0-0.8,0.4-0.8,0.8v28.7c0,2,1.6,3.6,3.6,3.6H9c0.3,2.9,2.8,5.3,5.9,5.3c3,0,5.5-2.3,5.9-5.3H37c0.3,2.9,2.8,5.3,5.9,5.3
			s5.5-2.3,5.9-5.3h3.8c2,0,3.6-1.6,3.6-3.6v-7C56.2,37,56.2,34.2,54.4,32.4z M44.4,19.9c2.7,2.8,4,8.6,4.4,10.9h-8.6
			c-1.6,0-3-1.4-3-3V18h2.5C41.5,17.9,43.2,18.6,44.4,19.9z M14.3,5.7L15,6.9c0.2,0.2,0.4,0.4,0.7,0.4c0.1,0,0.3,0,0.4-0.1
			c0.4-0.2,0.5-0.7,0.3-1.1l-0.7-1.2c1.6-0.8,3.4-1.3,5.3-1.4v1.4c0,0.5,0.4,0.8,0.8,0.8c0.5,0,0.8-0.4,0.8-0.8V3.4
			c1.9,0.1,3.7,0.6,5.3,1.4L27.2,6c-0.2,0.4-0.1,0.9,0.3,1.1c0.1,0.1,0.3,0.1,0.4,0.1c0.3,0,0.6-0.1,0.7-0.4l0.7-1.3
			c1.5,1,2.8,2.3,3.9,3.9L32,10.1c-0.4,0.2-0.5,0.7-0.3,1.1c0.1,0.3,0.4,0.4,0.7,0.4c0.1,0,0.3,0,0.4-0.1l1.2-0.7
			c0.8,1.6,1.3,3.4,1.4,5.3H34c-0.5,0-0.8,0.4-0.8,0.8c0,0.5,0.4,0.8,0.8,0.8h1.4c-0.1,1.9-0.6,3.7-1.4,5.3l-1.2-0.7
			c-0.4-0.2-0.9-0.1-1.1,0.3s-0.1,0.9,0.3,1.1l1.2,0.7c-1,1.5-2.3,2.8-3.9,3.9L28.6,27c-0.2-0.4-0.7-0.5-1.1-0.3s-0.5,0.7-0.3,1.1
			l0.7,1.2c-1.6,0.8-3.4,1.3-5.3,1.4V29c0-0.5-0.4-0.8-0.8-0.8c-0.5,0-0.8,0.4-0.8,0.8v1.4c-1.9-0.1-3.7-0.6-5.3-1.4l0.7-1.2
			c0.2-0.4,0.1-0.9-0.3-1.1S15.2,26.6,15,27l-0.7,1.3c-1.5-1-2.8-2.4-3.9-3.9l1.2-0.7c0.4-0.2,0.5-0.7,0.3-1.1s-0.7-0.5-1.1-0.3
			L9.6,23c-0.8-1.6-1.3-3.4-1.4-5.3h1.4c0.5,0,0.8-0.4,0.8-0.8s-0.4-0.8-0.8-0.8H8.2c0.1-1.9,0.6-3.7,1.4-5.3l1.2,0.7
			c0.1,0.1,0.3,0.1,0.4,0.1c0.3,0,0.6-0.1,0.7-0.4c0.2-0.4,0.1-0.9-0.3-1.1l-1.2-0.7C11.5,8,12.8,6.7,14.3,5.7z M14.8,53
			c-2.3,0-4.2-1.9-4.2-4.2c0-2.4,1.9-4.3,4.2-4.3s4.3,1.9,4.3,4.3C19.1,51.1,17.2,53,14.8,53z M30.6,47.8h-10
			c-0.5-2.8-2.9-4.9-5.8-4.9S9.5,45,9,47.8H5.2c-1.1,0-2-0.9-2-1.9v-0.2h3.7c0.3,0,0.5-0.1,0.7-0.4c0.1-0.2,0.2-0.5,0.1-0.8L5.8,40
			c-0.1-0.3-0.4-0.5-0.8-0.5H3.2V38h27.4V47.8z M3.2,43.9v-2.8h1.2l1.2,2.8H3.2z M3.2,36.3V17.9h3.4c0.1,2.5,0.8,4.8,2,6.8v0.1
			l0.1,0.1c1.3,2.2,3.2,4.1,5.5,5.4c0,0,0,0,0.1,0.1h0.1c2.2,1.3,4.8,2,7.6,2s5.3-0.7,7.6-2h0.1l0.1-0.1c0.3-0.2,0.7-0.4,1-0.6v6.6
			H3.2z M42.9,53c-2.3,0-4.3-1.9-4.3-4.2c0-2.4,1.9-4.3,4.3-4.3c2.3,0,4.3,1.9,4.3,4.3C47.2,51.1,45.2,53,42.9,53z M54.5,43.9h-3.1
			l-1.2-2.8h4.2L54.5,43.9L54.5,43.9z M54.5,39.4H49c-0.3,0-0.5,0.1-0.7,0.4c-0.2,0.2-0.2,0.5-0.1,0.8l1.8,4.5
			c0.1,0.3,0.4,0.5,0.8,0.5h3.6v0.2c0,1.1-0.9,1.9-1.9,1.9h-3.8c-0.5-2.8-2.9-4.9-5.8-4.9c-2.9,0-5.3,2.1-5.8,4.9h-4.8V28.4
			c1.1-1,2.1-2.2,2.8-3.5l0.1-0.1v-0.1c0.1-0.2,0.3-0.5,0.4-0.7v3.8c0,2.6,2.1,4.6,4.6,4.6h9.3c1.6,0,2.8,0.4,3.6,1.2
			c1.3,1.3,1.3,3.6,1.3,5.2v0.6H54.5z"/>
	</g>
	<g>
		<path class="st0" d="M40.8,36.3h-4.4c-0.5,0-0.8,0.4-0.8,0.8c0,0.5,0.4,0.8,0.8,0.8h4.4c0.5,0,0.8-0.4,0.8-0.8
			C41.7,36.6,41.3,36.3,40.8,36.3z"/>
	</g>
	<g>
		<path class="st0" d="M14.4,13.8l7,4.1c0.1,0.1,0.3,0.1,0.4,0.1s0.3,0,0.4-0.1c0.3-0.1,0.4-0.4,0.4-0.7v-8c0-0.4-0.4-0.8-0.8-0.8
			c-0.5,0-0.8,0.4-0.8,0.8v6.6l-5.8-3.3c-0.4-0.2-0.9-0.1-1.1,0.3C13.9,13,14,13.5,14.4,13.8z"/>
	</g>
</g>
</svg>
