<?xml version="1.0" encoding="utf-8"?>
<!-- Generator: Adobe Illustrator 21.0.0, SVG Export Plug-In . SVG Version: 6.00 Build 0)  -->
<svg version="1.1" id="Layer_1" xmlns="http://www.w3.org/2000/svg" xmlns:xlink="http://www.w3.org/1999/xlink" x="0px" y="0px"
	 viewBox="0 0 56.7 56.7" style="enable-background:new 0 0 56.7 56.7;" xml:space="preserve">
<g>
	<g>
		<path d="M28.3,13.6c-7.8,0-15.5,0-23.3,0c-0.3,0-0.7,0-1,0c-0.3,0-0.5,0.1-0.5,0.4c0,0.1,0,0.2,0,0.3c0,9.5,0,19,0,28.6
			c0,0.2,0,0.4,0,0.5c0,0.8,0.4,1.4,1,1.9c0.5,0.4,1,0.5,1.5,0.5c1.2,0,2.4,0,3.6,0c0.5,0,0.8,0.2,0.9,0.6c0.1,0.5-0.1,0.9-0.6,0.9
			c-1.3,0-2.5,0-3.8,0c-0.4,0-0.9,0-1.3-0.1C4,47,3.2,46.5,2.7,45.7c-0.2-0.3-0.4-0.7-0.5-1c0-0.1-0.1-0.2-0.1-0.3
			c0-0.3,0-0.6,0-0.9C2,31.6,2,19.8,2,7.9C2,7.4,2,6.8,2.3,6.3c0.2-0.3,0.4-0.7,0.7-1C3.6,4.6,4.5,4.2,5.5,4C6,3.9,6.6,3.9,7.1,3.9
			c14.3,0,28.6,0,42.8,0c0.4,0,0.7,0,1.1,0.1c0.3,0.1,0.6,0.1,0.9,0.2c0.9,0.2,1.5,0.8,2,1.5c0.6,0.8,0.7,1.7,0.7,2.6
			c0,11.6,0,23.2,0,34.8c0,0.7-0.2,1.3-0.4,1.9c-0.4,0.8-1,1.4-1.8,1.8c-0.6,0.3-1.3,0.4-2,0.4c-1.2,0-2.4,0-3.6,0
			c-0.3,0-0.6,0-0.8-0.3c-0.3-0.5-0.1-1,0.5-1.2c0.2,0,0.3-0.1,0.5-0.1c1.1,0,2.2,0,3.3,0c0.2,0,0.5,0,0.7-0.1
			c0.8-0.1,1.3-0.6,1.8-1.3c0.3-0.4,0.3-0.9,0.3-1.4c0-9.5,0-19,0-28.4c0-0.2,0-0.4,0-0.6c0-0.3-0.1-0.4-0.4-0.4
			C44.6,13.6,36.5,13.6,28.3,13.6C28.3,13.6,28.3,13.6,28.3,13.6z M28.3,12C28.3,12,28.3,12,28.3,12c8.1,0,16.2,0,24.4,0
			c0.4,0,0.5-0.1,0.5-0.5c0-1,0-2.1,0-3.1c0-0.6-0.1-1.1-0.4-1.6c-0.2-0.4-0.5-0.7-0.9-0.9c-0.5-0.3-1-0.4-1.5-0.4
			c-14.6,0-29.3,0-43.9,0c-0.5,0-1,0.1-1.4,0.3c-0.9,0.4-1.4,1-1.4,1.9c-0.1,1.3,0,2.6,0,3.9c0,0.3,0.1,0.4,0.4,0.4
			c0.2,0,0.4,0,0.6,0C12.4,12,20.4,12,28.3,12z"/>
		<path d="M32.8,42.6c0,3.6,0,7.3,0,10.9c0,0.5-0.1,0.7-0.7,0.7c-5.4,0-10.7,0-16.1,0c-0.5,0-0.7-0.1-0.7-0.7c0-7.3,0-14.6,0-21.9
			c0-0.5,0.1-0.7,0.7-0.7c5.4,0,10.7,0,16.1,0c0.5,0,0.7,0.1,0.7,0.7C32.8,35.4,32.8,39,32.8,42.6z M16.4,53.3c5.2,0,10.3,0,15.4,0
			c0-7.1,0-14.2,0-21.2c-5.2,0-10.3,0-15.4,0C16.4,39.1,16.4,46.2,16.4,53.3z"/>
		<path d="M39.7,54.2c-1.4,0-2.9,0-4.3,0c-0.4,0-0.6-0.2-0.6-0.6c0-2.7,0-5.4,0-8.1c0-0.4,0.2-0.6,0.6-0.6c2.9,0,5.8,0,8.7,0
			c0.4,0,0.6,0.2,0.6,0.6c0,2.7,0,5.4,0,8.1c0,0.4-0.2,0.6-0.6,0.6C42.6,54.2,41.1,54.2,39.7,54.2z M43.7,46c-2.7,0-5.3,0-7.9,0
			c0,0,0,0.1,0,0.1c0,1.5,0,3,0,4.6c0,0.1,0.1,0.2,0.2,0.2c0.5,0.1,1,0.2,1.5,0.3c0.7,0.2,1.3-0.2,1.5-0.9c0.2-0.8,0.5-1.6,0.7-2.5
			c0.1-0.5,0.5-0.8,0.9-0.8c0.4,0,0.7,0.3,0.9,0.8c0.2,0.7,0.4,1.5,0.5,2.2c0.1,0.7,0.8,1.2,1.6,0.8c0.2-0.1,0.2-0.1,0.2-0.3
			c0-1.1,0-2.2,0-3.2C43.7,46.9,43.7,46.4,43.7,46z M40.5,48.3C40.5,48.3,40.5,48.3,40.5,48.3c-0.3,0.8-0.5,1.6-0.7,2.3
			c-0.3,1.1-1.4,1.8-2.6,1.5c-0.5-0.1-1-0.2-1.4-0.3c0,0.5,0,1,0,1.4c2.6,0,5.3,0,7.9,0c0-0.5,0-0.9,0-1.4c-0.4,0-0.8,0.1-1.2,0
			c-0.9-0.2-1.3-0.8-1.5-1.7C40.8,49.5,40.6,48.9,40.5,48.3z"/>
		<path d="M43.6,40.7c0.8,0.1,1,0.2,1,0.5c-0.1,0.6-0.6,0.4-1,0.5c0,0.2,0,0.4,0,0.7c0,0.3-0.2,0.5-0.5,0.5c-0.3,0-0.5-0.2-0.5-0.5
			c0-0.2,0-0.4,0-0.7c-0.1,0-0.2,0-0.4,0c-2.3,0-4.6,0-6.8,0c-0.1,0-0.2,0-0.3,0c-0.2,0-0.4-0.2-0.4-0.5c0-0.2,0.1-0.4,0.4-0.5
			c0.1,0,0.2,0,0.4,0c2.3,0,4.5,0,6.8,0c0.5,0,0.4,0,0.4-0.4c0-0.1,0-0.2,0-0.3c0-0.3,0.2-0.5,0.5-0.5c0.3,0,0.5,0.2,0.5,0.5
			c0,0.1,0,0.2,0,0.3C43.6,40.5,43.6,40.6,43.6,40.7z"/>
		<path d="M38.8,36.9c-0.1,0-0.2,0-0.3,0c-1,0-2.1,0-3.1,0c-0.5,0-0.7-0.4-0.5-0.7c0.1-0.2,0.3-0.2,0.6-0.2c1,0,2,0,3.1,0
			c0.1,0,0.2,0,0.3,0c0-0.3,0-0.5,0-0.7c0-0.3,0.2-0.5,0.5-0.5c0.3,0,0.5,0.2,0.5,0.5c0,0.2,0,0.4,0,0.7c0.1,0,0.2,0,0.3,0
			c1.3,0,2.6,0,3.8,0c0.1,0,0.2,0,0.3,0c0.2,0,0.4,0.2,0.4,0.4c0,0.2-0.1,0.4-0.4,0.5c-0.1,0-0.2,0-0.3,0c-1.3,0-2.6,0-3.8,0
			c-0.3,0-0.4,0-0.3,0.3c0,0.1,0,0.3,0,0.4c0,0.3-0.2,0.5-0.5,0.5c-0.3,0-0.5-0.2-0.5-0.5C38.8,37.4,38.8,37.1,38.8,36.9z"/>
		<path d="M38.3,31c0.1,0,0.2,0,0.3,0c1.8,0,3.5,0,5.3,0c0.1,0,0.2,0,0.3,0c0.2,0,0.4,0.2,0.4,0.4c0,0.2-0.1,0.4-0.3,0.5
			c-0.1,0-0.2,0-0.3,0c-1.8,0-3.5,0-5.3,0c-0.1,0-0.2,0-0.3,0c0,0.2,0,0.5,0,0.7c0,0.3-0.2,0.5-0.5,0.5c-0.3,0-0.5-0.2-0.5-0.5
			c0-0.2,0-0.4,0-0.6c0,0,0,0,0-0.1c-0.2,0-0.4,0-0.6,0c-0.5,0-0.9,0-1.4,0c-0.3,0-0.5-0.2-0.5-0.5c0-0.3,0.2-0.5,0.5-0.5
			c0.6,0,1.1,0,1.7,0c0.1,0,0.2,0,0.3,0c0-0.2,0-0.5,0-0.7c0-0.3,0.2-0.5,0.5-0.5c0.3,0,0.5,0.2,0.5,0.5c0,0.1,0,0.2,0,0.3
			C38.3,30.8,38.3,30.9,38.3,31z"/>
		<path d="M28.9,29.1c-0.3,0-0.5,0-0.7,0c-0.3,0-0.5-0.2-0.5-0.5c0-0.3,0.2-0.5,0.5-0.5c0.4,0,0.8,0,1.2,0c0.3,0,0.5,0.2,0.5,0.5
			c0,0.4,0,0.8,0,1.2c0,0.3-0.2,0.5-0.5,0.5c-0.3,0-0.5-0.2-0.5-0.5C28.9,29.6,28.9,29.3,28.9,29.1z"/>
		<path d="M13.5,50.4c0.3,0,0.5,0,0.7,0c0.3,0,0.5,0.2,0.5,0.5c0,0.3-0.2,0.5-0.5,0.5c-0.4,0-0.8,0-1.3,0c-0.3,0-0.4-0.2-0.4-0.5
			c0-0.4,0-0.8,0-1.2c0-0.3,0.2-0.5,0.4-0.5c0.3,0,0.5,0.2,0.5,0.5C13.5,49.9,13.5,50.1,13.5,50.4z"/>
		<path d="M13.5,29.1c0,0.3,0,0.5,0,0.8c0,0.2-0.2,0.3-0.3,0.4c-0.1,0.1-0.3,0-0.5-0.1c-0.1,0-0.1-0.2-0.1-0.3c0-0.4,0-0.8,0-1.3
			c0-0.3,0.2-0.5,0.4-0.5c0.4,0,0.8,0,1.2,0c0.3,0,0.5,0.2,0.5,0.5c0,0.3-0.2,0.5-0.5,0.5C14,29.1,13.7,29.1,13.5,29.1z"/>
		<path d="M12.5,34.2c0-0.4,0-0.8,0-1.2c0-0.3,0.1-0.4,0.4-0.5c0.2-0.1,0.5,0.1,0.5,0.3c0,0.1,0,0.2,0,0.3c0,0.7,0,1.4,0,2.1
			c0,0.2-0.1,0.4-0.3,0.5c-0.3,0.1-0.6-0.1-0.6-0.4C12.5,35,12.5,34.6,12.5,34.2z"/>
		<path d="M12.5,45.2c0-0.4,0-0.8,0-1.1c0-0.3,0.1-0.4,0.4-0.5c0.2,0,0.5,0.1,0.5,0.3c0,0.1,0,0.1,0,0.2c0,0.8,0,1.5,0,2.3
			c0,0.4-0.4,0.6-0.8,0.4c-0.1-0.1-0.2-0.2-0.2-0.4C12.5,46,12.5,45.6,12.5,45.2z"/>
		<path d="M12.5,39.7c0-0.4,0-0.8,0-1.2c0-0.3,0.1-0.4,0.4-0.5c0.2,0,0.5,0.1,0.5,0.4c0,0.1,0,0.1,0,0.2c0,0.7,0,1.4,0,2.2
			c0,0.4-0.2,0.6-0.6,0.5c-0.2,0-0.4-0.2-0.4-0.4C12.5,40.5,12.5,40.1,12.5,39.7z"/>
		<path d="M23.9,29.1c-0.4,0-0.7,0-1.1,0c-0.3,0-0.5-0.2-0.5-0.5c0-0.3,0.2-0.5,0.5-0.5c0.7,0,1.5,0,2.2,0c0.3,0,0.5,0.2,0.5,0.5
			c0,0.3-0.2,0.5-0.5,0.5C24.6,29.1,24.3,29.1,23.9,29.1z"/>
		<path d="M18.5,29.1c-0.4,0-0.7,0-1.1,0c-0.3,0-0.5-0.2-0.5-0.5c0-0.3,0.2-0.5,0.5-0.5c0.7,0,1.5,0,2.2,0c0.3,0,0.5,0.2,0.5,0.5
			c0,0.3-0.2,0.5-0.5,0.5C19.2,29.1,18.8,29.1,18.5,29.1z"/>
		<path d="M44.5,8.8c0-0.4,0.4-0.8,0.8-0.8c0.3,0,0.8,0.5,0.8,0.8c0,0.4-0.4,0.8-0.8,0.8C44.9,9.6,44.5,9.3,44.5,8.8z"/>
		<path d="M41.7,8.8c0,0.5-0.3,0.8-0.8,0.8c-0.4,0-0.8-0.4-0.8-0.8c0-0.3,0.4-0.8,0.8-0.8C41.3,8,41.7,8.4,41.7,8.8z"/>
		<path d="M49.7,9.6c-0.5,0-0.8-0.3-0.8-0.7C49,8.4,49.3,8,49.7,8c0.3,0,0.8,0.5,0.8,0.8C50.5,9.2,50.1,9.6,49.7,9.6z"/>
		<path d="M28.9,50.4c0-0.3,0-0.5,0-0.7c0-0.3,0.2-0.5,0.5-0.5c0.3,0,0.5,0.2,0.5,0.5c0,0.4,0,0.7,0,1.1c0,0.3-0.2,0.5-0.5,0.5
			c-0.4,0-0.7,0-1.1,0c-0.3,0-0.6-0.2-0.6-0.5c0-0.3,0.2-0.5,0.6-0.5C28.5,50.4,28.7,50.4,28.9,50.4z"/>
		<path d="M29.9,34.2c0,0.4,0,0.7,0,1.1c0,0.3-0.2,0.5-0.5,0.5c-0.3,0-0.5-0.2-0.5-0.5c0-0.7,0-1.5,0-2.2c0-0.3,0.2-0.5,0.5-0.5
			c0.3,0,0.5,0.2,0.5,0.5C29.9,33.4,29.9,33.8,29.9,34.2z"/>
		<path d="M29.9,45.3c0,0.4,0,0.7,0,1.1c0,0.3-0.2,0.5-0.5,0.5c-0.3,0-0.5-0.2-0.5-0.5c0-0.7,0-1.5,0-2.2c0-0.3,0.2-0.6,0.5-0.6
			c0.3,0,0.5,0.2,0.5,0.6C29.9,44.5,29.9,44.9,29.9,45.3z"/>
		<path d="M29.9,39.7c0,0.4,0,0.7,0,1.1c0,0.3-0.2,0.5-0.5,0.5c-0.3,0-0.5-0.2-0.5-0.5c0-0.7,0-1.5,0-2.2c0-0.3,0.2-0.5,0.5-0.5
			c0.3,0,0.5,0.2,0.5,0.5C29.9,39,29.9,39.4,29.9,39.7z"/>
		<path d="M23.9,50.4c0.4,0,0.7,0,1.1,0c0.3,0,0.5,0.2,0.5,0.5c0,0.3-0.2,0.5-0.5,0.5c-0.7,0-1.5,0-2.2,0c-0.3,0-0.5-0.2-0.5-0.5
			c0-0.3,0.2-0.5,0.5-0.5C23.2,50.4,23.5,50.4,23.9,50.4z"/>
		<path d="M18.5,50.4c0.4,0,0.7,0,1.1,0c0.3,0,0.5,0.2,0.5,0.5c0,0.3-0.2,0.5-0.5,0.5c-0.7,0-1.5,0-2.2,0c-0.3,0-0.5-0.2-0.5-0.5
			c0-0.3,0.2-0.5,0.5-0.5C17.8,50.4,18.1,50.4,18.5,50.4z"/>
	</g>
</g>
</svg>
