<?xml version="1.0" encoding="utf-8"?>
<!-- Generator: Adobe Illustrator 24.2.3, SVG Export Plug-In . SVG Version: 6.00 Build 0)  -->
<svg version="1.1" id="Layer_1" xmlns="http://www.w3.org/2000/svg" xmlns:xlink="http://www.w3.org/1999/xlink" x="0px" y="0px"
	 viewBox="0 0 56.7 56.7" style="enable-background:new 0 0 56.7 56.7;" xml:space="preserve">
<style type="text/css">
	.st0{fill:#1A171B;}
</style>
<g>
	<path class="st0" d="M10.5,15.8h25.7c0.4,0,0.7-0.3,0.7-0.7V9.6c0-0.4-0.3-0.7-0.7-0.7H10.5c-0.4,0-0.7,0.3-0.7,0.7v5.5
		C9.8,15.5,10.1,15.8,10.5,15.8z M11.2,10.3h24.3v4H11.2V10.3z"/>
	<path class="st0" d="M14.9,28.9h-2.2c-1.6,0-2.9,1.3-2.9,2.9V34c0,1.6,1.3,2.9,2.9,2.9h2.2c1.6,0,2.9-1.3,2.9-2.9v-2.2
		C17.7,30.2,16.4,28.9,14.9,28.9z M16.3,34c0,0.8-0.6,1.4-1.4,1.4h-2.2c-0.8,0-1.4-0.6-1.4-1.4v-2.2c0-0.8,0.6-1.4,1.4-1.4h2.2
		c0.8,0,1.4,0.6,1.4,1.4V34z"/>
	<path class="st0" d="M14.9,38.6h-2.2c-1.6,0-2.9,1.3-2.9,2.9v2.2c0,1.6,1.3,2.9,2.9,2.9h2.2c1.6,0,2.9-1.3,2.9-2.9v-2.2
		C17.7,39.9,16.4,38.6,14.9,38.6z M16.3,43.7c0,0.8-0.6,1.4-1.4,1.4h-2.2c-0.8,0-1.4-0.6-1.4-1.4v-2.2c0-0.8,0.6-1.4,1.4-1.4h2.2
		c0.8,0,1.4,0.6,1.4,1.4V43.7z"/>
	<path class="st0" d="M24.6,19.1h-2.2c-1.6,0-2.9,1.3-2.9,2.9v2.3c0,1.6,1.3,2.8,2.9,2.8h2.2c1.6,0,2.9-1.3,2.9-2.8V22
		C27.4,20.4,26.1,19.1,24.6,19.1z M26,24.2c0,0.8-0.6,1.4-1.4,1.4h-2.2c-0.8,0-1.4-0.7-1.4-1.4V22c0-0.8,0.6-1.4,1.4-1.4h2.2
		c0.8,0,1.4,0.7,1.4,1.4V24.2z"/>
	<path class="st0" d="M24.6,28.8h-2.2c-1.6,0-2.9,1.3-2.9,2.9V34c0,1.6,1.3,2.9,2.9,2.9h2.2c1.6,0,2.9-1.3,2.9-2.9v-2.2
		C27.4,30.1,26.1,28.8,24.6,28.8z M26,34c0,0.8-0.6,1.4-1.4,1.4h-2.2c-0.8,0-1.4-0.7-1.4-1.4v-2.2c0-0.8,0.6-1.4,1.4-1.4h2.2
		c0.8,0,1.4,0.6,1.4,1.4V34z"/>
	<path class="st0" d="M24.6,38.6h-2.2c-1.6,0-2.9,1.3-2.9,2.9v2.2c0,1.6,1.3,2.9,2.9,2.9h2.2c1.6,0,2.9-1.3,2.9-2.9v-2.2
		C27.4,39.9,26.1,38.6,24.6,38.6z M26,43.7c0,0.8-0.6,1.4-1.4,1.4h-2.2c-0.8,0-1.4-0.6-1.4-1.4v-2.2c0-0.8,0.6-1.4,1.4-1.4h2.2
		c0.8,0,1.4,0.6,1.4,1.4V43.7z"/>
	<path class="st0" d="M14.9,19.1h-2.2c-1.6,0-2.9,1.3-2.9,2.9v0.1v2.2v0.1c0,1.6,1.3,2.9,2.9,2.9h2.2c1.6,0,2.9-1.3,2.9-2.9v-0.1
		v-2.2V22C17.7,20.4,16.4,19.1,14.9,19.1z M16.3,24.3c0,0.7-0.7,1.4-1.4,1.4h-2.2c-0.8,0-1.4-0.7-1.4-1.4v-2.2
		c0-0.8,0.6-1.4,1.4-1.4h2.2c0.8,0,1.4,0.7,1.4,1.4V24.3z"/>
	<path class="st0" d="M32.7,11.8c-0.1,0.2-0.2,0.3-0.2,0.5c0,0.2,0.1,0.4,0.2,0.5c0.1,0.1,0.3,0.2,0.5,0.2s0.4-0.1,0.5-0.2
		c0.1-0.1,0.2-0.3,0.2-0.5c0-0.2-0.1-0.4-0.2-0.5C33.5,11.6,33,11.6,32.7,11.8z"/>
	<path class="st0" d="M29.7,11.6c-0.4,0-0.7,0.3-0.7,0.7c0,0.4,0.3,0.7,0.7,0.7c0.4,0,0.7-0.3,0.7-0.7C30.4,11.9,30,11.6,29.7,11.6z
		"/>
	<path class="st0" d="M25.6,11.8c-0.1,0.2-0.2,0.3-0.2,0.5c0,0.2,0.1,0.4,0.2,0.5c0.1,0.1,0.3,0.2,0.5,0.2c0.2,0,0.4-0.1,0.5-0.2
		c0.1-0.1,0.2-0.3,0.2-0.5c0-0.2-0.1-0.4-0.2-0.5C26.3,11.6,25.8,11.6,25.6,11.8z"/>
	<path class="st0" d="M41.7,21.6V7.8c0-2-1.7-3.7-3.7-3.7H8.7C6.6,4.1,5,5.7,5,7.8v39.8c0,2.1,1.7,3.7,3.7,3.7H38
		c2.1,0,3.7-1.7,3.7-3.7v-3.5c5.9-0.4,10.6-5.3,10.6-11.3S47.6,21.9,41.7,21.6z M40.3,47.6c0,1.2-1.1,2.2-2.3,2.2H8.7
		c-1.3,0-2.3-1-2.3-2.3V7.8c0-1.3,1-2.3,2.3-2.3H38c1.3,0,2.3,1,2.3,2.3v13.8c-1.1,0.1-2.1,0.3-3.1,0.7V22c0-1.6-1.3-2.9-2.9-2.9H32
		c-1.6,0-2.9,1.3-2.9,2.9v2.3c0,1.3,0.9,2.5,2.2,2.8c-1,1.7-1.6,3.7-1.6,5.8c0,2.1,0.6,4.1,1.7,5.8c-1.3,0.3-2.2,1.4-2.2,2.8v2.2
		c0,1.6,1.3,2.9,2.9,2.9h2.2c1.6,0,2.9-1.3,2.9-2.9v-0.3c1,0.4,2,0.6,3.1,0.7V47.6z M35.6,22v0.9c-1.2,0.7-2.4,1.6-3.3,2.8H32
		c-0.8,0-1.4-0.7-1.4-1.4V22c0-0.8,0.6-1.4,1.4-1.4h2.2C35,20.6,35.6,21.3,35.6,22z M32,40.2h0.3v-0.1c0.9,1.1,2.1,2,3.3,2.7v1
		c0,0.8-0.6,1.4-1.4,1.4H32c-0.8,0-1.4-0.6-1.4-1.4v-2.2C30.6,40.8,31.2,40.2,32,40.2z M41,42.7c-5.4,0-9.8-4.4-9.8-9.8
		c0-5.4,4.4-9.8,9.8-9.8s9.8,4.4,9.8,9.8C50.8,38.3,46.4,42.7,41,42.7z"/>
	<path class="st0" d="M46.6,27.2c-0.3-0.3-0.7-0.3-1,0L35.4,37.4c-0.3,0.3-0.3,0.7,0,1c0.1,0.1,0.3,0.2,0.5,0.2
		c0.2,0,0.4-0.1,0.5-0.2l10.2-10.2C46.9,27.9,46.9,27.5,46.6,27.2z"/>
	<path class="st0" d="M42.3,34.2c-1,1-1,2.7,0,3.7c0.5,0.5,1.2,0.8,1.9,0.8s1.3-0.3,1.9-0.8c1-1,1-2.7,0-3.7
		C45,33.1,43.3,33.1,42.3,34.2z M45,36.9c-0.5,0.5-1.2,0.5-1.7,0s-0.5-1.2,0-1.7c0.2-0.2,0.5-0.3,0.9-0.3c0.3,0,0.6,0.1,0.8,0.3
		C45.5,35.7,45.5,36.4,45,36.9z"/>
	<path class="st0" d="M37.8,32.3c0.7,0,1.3-0.3,1.9-0.8c1-1,1-2.7,0-3.7s-2.7-1-3.7,0s-1,2.7,0,3.7C36.4,32,37.1,32.3,37.8,32.3z
		 M36.9,28.8c0.2-0.2,0.5-0.3,0.9-0.3c0.3,0,0.6,0.1,0.9,0.3c0.5,0.5,0.5,1.2,0,1.7s-1.2,0.5-1.7,0S36.5,29.3,36.9,28.8z"/>
</g>
</svg>
