<?xml version="1.0" encoding="utf-8"?>
<!-- Generator: Adobe Illustrator 24.2.3, SVG Export Plug-In . SVG Version: 6.00 Build 0)  -->
<svg version="1.1" id="Layer_1" xmlns="http://www.w3.org/2000/svg" xmlns:xlink="http://www.w3.org/1999/xlink" x="0px" y="0px"
	 viewBox="0 0 56.7 56.7" style="enable-background:new 0 0 56.7 56.7;" xml:space="preserve">
<style type="text/css">
	.st0{fill:#1A171B;}
	.st1{display:none;}
	.st2{display:inline;fill:#1A171B;}
</style>
<g>
	<g>
		<path class="st0" d="M37.1,46.2L37.1,46.2c0.5,0,0.9-0.3,0.9-0.7l2.4-16.4c0.1-0.5-0.2-0.9-0.7-0.9c-0.4-0.1-0.9,0.2-0.9,0.7
			l-2.4,16.4C36.4,45.7,36.7,46.1,37.1,46.2z"/>
	</g>
	<g>
		<path class="st0" d="M18.7,46.2h0.1c0.5-0.1,0.8-0.5,0.7-0.9l-2.4-16.4c-0.1-0.4-0.5-0.8-0.9-0.7c-0.5,0-0.8,0.5-0.7,0.9l2.4,16.4
			C18,45.9,18.3,46.2,18.7,46.2z"/>
	</g>
	<g>
		<path class="st0" d="M55,22.1v-2.4c0-0.5-0.4-0.8-0.8-0.8h-3.5L40.5,6.7c-0.3-0.3-0.8-0.4-1.2-0.1c-0.3,0.3-0.4,0.9,0,1.2
			l9.2,11.1h-41L18.7,7.8c0.3-0.3,0.3-0.9,0-1.2c-0.3-0.3-0.9-0.3-1.2,0.1L5.3,18.9H2.8c-0.4,0-0.8,0.4-0.8,0.8v2.4
			c0,1.6,0.1,2.9,1.6,3.2L9.7,47c0.6,2.1,2.5,3.6,4.7,3.6h27.1c2.2,0,4.1-1.5,4.7-3.6l0.7-2.6c0.5,0.1,0.9,0.1,1.4,0.1
			c3.6,0,6.6-3,6.6-6.6c0-2.9-1.9-5.3-4.4-6.2l1.8-6.3C53.9,25,55,23.7,55,22.1z M3.6,22.1v-1.6h49.7v1.6c0,0.9-0.7,1.7-1.6,1.7H4.3
			C3.4,23.8,3.6,23.1,3.6,22.1z M53.4,37.9c0,2.7-2.2,5-5,5c-2.7,0-5-2.2-5-5c0-2.7,2.2-5,5-5C51.1,33,53.4,35.2,53.4,37.9z
			 M49,31.4c-0.2,0-0.4,0-0.6,0c-3.6,0-6.6,3-6.6,6.6c0,2.6,1.5,4.8,3.7,5.9l-0.8,2.7C44.3,48,43,49,41.5,49h-27
			c-1.5,0-2.8-1-3.2-2.4l-6-21.2h45.3L49,31.4z"/>
	</g>
	<g>
		<path class="st0" d="M28,46.2c0.4,0,0.8-0.3,0.8-0.8V29c0-0.5-0.4-0.8-0.8-0.8c-0.5,0-0.8,0.4-0.8,0.8v16.4
			C27.2,45.8,27.5,46.2,28,46.2z"/>
	</g>
	<g class="st1">
		<path class="st2" d="M46.7,41.8c0.1,0.2,0.2,0.3,0.4,0.3c0,0,0,0,0.1,0c0.2,0,0.4,0,0.5-0.2l4.9-5.5c0.2-0.2,0.2-0.6-0.1-0.8
			c-0.2-0.2-0.6-0.2-0.8,0l-4.3,4.8l-1.5-3.2c-0.1-0.3-0.5-0.4-0.8-0.3c-0.3,0.1-0.4,0.5-0.3,0.8L46.7,41.8z"/>
	</g>
</g>
<g>
	<path d="M49,33.2c-0.1,0-0.3,0-0.4,0c-0.1,0-0.2,0-0.4,0v5.2c-0.9-0.3-1.5-0.5-2.1-0.7V38c0.8,1.3,1.6,2.5,2.4,3.6
		c0.7-1.1,1.5-2.4,2.4-3.6v-0.3c-0.6,0.2-1.2,0.4-1.8,0.6v-5.1H49z"/>
</g>
</svg>
