<?xml version="1.0" encoding="utf-8"?>
<!-- Generator: Adobe Illustrator 24.2.3, SVG Export Plug-In . SVG Version: 6.00 Build 0)  -->
<svg version="1.1" id="Layer_1" xmlns="http://www.w3.org/2000/svg" xmlns:xlink="http://www.w3.org/1999/xlink" x="0px" y="0px"
	 viewBox="0 0 56.7 56.7" style="enable-background:new 0 0 56.7 56.7;" xml:space="preserve">
<style type="text/css">
	.st0{fill:#1A171B;}
</style>
<g>
	<path class="st0" d="M2.7,28.7c0-0.5-0.4-0.8-0.8-0.8c-0.5,0-0.8,0.4-0.8,0.8c0,0.5,0.4,0.8,0.8,0.8C2.3,29.5,2.7,29.2,2.7,28.7z"
		/>
	<path class="st0" d="M2.7,35.4c-0.4,0.1-0.6,0.6-0.5,1C2.3,36.8,2.7,37,3,37c0.1,0,0.1,0,0.2,0c0.5-0.1,0.7-0.6,0.6-1
		C3.7,35.5,3.2,35.3,2.7,35.4z"/>
	<path class="st0" d="M10.9,9.5c0.2,0,0.4,0,0.6-0.2c0.4-0.2,0.4-0.8,0.1-1.2c-0.4-0.4-0.8-0.4-1.2-0.1C10,8.2,10,8.8,10.3,9.2
		C10.6,9.4,10.8,9.5,10.9,9.5z"/>
	<path class="st0" d="M5.7,15.1c0.1,0.1,0.2,0.1,0.5,0.1s0.6-0.1,0.7-0.4c0.2-0.4,0.1-1-0.2-1.2c-0.3-0.2-1-0.1-1.2,0.2
		C5.1,14.3,5.2,14.9,5.7,15.1z"/>
	<path class="st0" d="M5.7,42.3c-0.4,0.2-0.5,0.7-0.2,1.1c0.1,0.2,0.5,0.4,0.7,0.4c0.1,0,0.4,0,0.5-0.1c0.4-0.2,0.5-0.7,0.2-1.1
		C6.5,42.2,6,42.1,5.7,42.3z"/>
	<path class="st0" d="M10.5,48.1c-0.4,0.4-0.2,0.8,0.1,1.2c0.1,0.1,0.4,0.2,0.6,0.2s0.5-0.1,0.6-0.2c0.2-0.4,0.2-0.8-0.1-1.2
		C11.3,47.8,10.7,47.8,10.5,48.1z"/>
	<path class="st0" d="M39,5.2c0.1,0,0.2,0.1,0.4,0.1c0.4,0,0.6-0.2,0.7-0.5c0.2-0.5,0-1-0.4-1.1c-0.5-0.2-1,0-1.1,0.4
		C38.4,4.6,38.6,5.1,39,5.2z"/>
	<path class="st0" d="M31.9,3.2c0.5,0,0.8-0.2,1-0.7c0.1-0.5-0.2-0.8-0.7-1c-0.5-0.1-0.8,0.2-1,0.7C31.2,2.7,31.5,3.2,31.9,3.2z"/>
	<path class="st0" d="M31.9,3.2C32,3.3,32,3.2,31.9,3.2L31.9,3.2z"/>
	<path class="st0" d="M2.7,22c0.1,0,0.1,0,0.2,0c0.4,0,0.7-0.2,0.8-0.6c0.1-0.5-0.1-0.8-0.6-1c-0.5-0.1-1,0.1-1.1,0.6
		C2,21.4,2.2,21.9,2.7,22z"/>
	<path class="st0" d="M45.6,9.4c0.2,0,0.5-0.1,0.6-0.2c0.2-0.4,0.2-0.8-0.1-1.2c-0.4-0.2-0.8-0.2-1.2,0.1c-0.2,0.4-0.2,0.8,0.1,1.2
		C45.3,9.3,45.4,9.4,45.6,9.4z"/>
	<path class="st0" d="M17.4,5.3c0.1,0,0.2,0,0.4,0c0.5-0.2,0.6-0.7,0.4-1.1c-0.2-0.5-0.7-0.6-1.1-0.5c-0.5,0.2-0.6,0.7-0.4,1.1
		C16.7,5.2,17,5.3,17.4,5.3z"/>
	<path class="st0" d="M24.5,3.3L24.5,3.3c0.6,0,0.8-0.5,0.8-1c-0.1-0.5-0.5-0.7-1-0.7s-0.7,0.5-0.7,1C23.8,2.9,24.2,3.3,24.5,3.3z"
		/>
	<path class="st0" d="M17.7,52c-0.5-0.1-1,0-1.1,0.5c-0.2,0.5,0,1,0.4,1.1c0.1,0,0.2,0.1,0.4,0.1c0.4,0,0.6-0.2,0.7-0.5
		C18.3,52.7,18.2,52.2,17.7,52z"/>
	<path class="st0" d="M51.1,42.3c-0.4-0.2-1-0.1-1.2,0.2c-0.2,0.4-0.1,0.8,0.2,1.2c0.1,0.1,0.2,0.1,0.5,0.1c0.3,0,0.6-0.1,0.7-0.4
		C51.6,43,51.5,42.5,51.1,42.3z"/>
	<path class="st0" d="M53.8,21.9c0.1,0,0.1,0,0.2,0c0.5-0.1,0.7-0.6,0.6-1.1c-0.1-0.5-0.6-0.7-1.1-0.6s-0.7,0.6-0.6,1.1
		C53,21.7,53.4,21.9,53.8,21.9z"/>
	<path class="st0" d="M54,35.3c-0.5-0.1-1,0.1-1.1,0.6c-0.1,0.5,0.1,0.8,0.6,1c0.1,0,0.1,0,0.2,0c0.4,0,0.7-0.2,0.8-0.6
		C54.7,35.9,54.5,35.4,54,35.3z"/>
	<path class="st0" d="M50.2,13.6c-0.4,0.2-0.5,0.7-0.2,1.2c0.1,0.2,0.3,0.3,0.7,0.3c0.1,0,0.4,0,0.5-0.1c0.4-0.2,0.5-0.7,0.2-1.2
		C51.2,13.4,50.7,13.3,50.2,13.6z"/>
	<path class="st0" d="M54.8,27.6c-0.5,0-0.8,0.4-0.8,0.8c0,0,0,0,0,0.1c0,0.5,0.4,0.8,0.8,0.8c0.5,0,0.8-0.4,0.8-0.8
		C55.7,28.1,55.3,27.6,54.8,27.6z"/>
	<path class="st0" d="M45.2,48c-0.4,0.2-0.4,0.8-0.1,1.2c0.1,0.2,0.4,0.2,0.6,0.2s0.4,0,0.6-0.2c0.4-0.2,0.4-0.8,0.1-1.2
		C46.1,47.8,45.5,47.8,45.2,48z"/>
	<path class="st0" d="M24.8,54c-0.5-0.1-0.8,0.2-1,0.7s0.2,0.8,0.7,1h0.1c0.4,0,0.7-0.2,0.8-0.7C25.5,54.5,25.2,54.1,24.8,54z"/>
	<path class="st0" d="M32,54c-0.5,0.1-0.7,0.5-0.7,1c0.1,0.4,0.5,0.7,0.8,0.7h0.1c0.5-0.1,0.7-0.5,0.7-1S32.5,54,32,54z"/>
	<path class="st0" d="M39.1,52c-0.5,0.1-0.6,0.7-0.4,1.1c0.1,0.4,0.5,0.5,0.7,0.5c0.1,0,0.2,0,0.4-0.1c0.5-0.2,0.6-0.7,0.4-1.1
		C39.9,52,39.4,51.7,39.1,52z"/>
	<path class="st0" d="M43.9,30.6c1-1.9,1.7-4.1,1.7-6.1c0-5.2-4.3-9.5-9.5-9.5c-3,0-5.7,1.4-7.5,3.7C26.7,16.4,23.9,15,21,15
		c-5.2,0-9.5,4.3-9.5,9.5c0,10.6,16,20.5,16.7,20.9c0.1,0.1,0.2,0.1,0.5,0.1c0.1,0,0.4,0,0.5-0.1c0.2-0.1,2.5-1.6,5.2-3.7
		c1.3,1.4,3.2,2.3,5.4,2.3c4.1,0,7.4-3.3,7.4-7.4C46.8,34.2,45.6,32,43.9,30.6z M28.3,43.8C25.8,42.2,13,33.4,13,24.6
		c0-4.4,3.6-7.9,7.9-7.9c2.7,0,5.4,1.6,6.8,3.9c0.4,0.5,1.1,0.5,1.4,0c1.4-2.4,4.1-3.9,6.8-3.9c4.4,0,7.9,3.6,7.9,7.9
		c0,1.8-0.5,3.6-1.4,5.2c-1-0.5-1.9-0.6-3-0.6c-4.1,0-7.5,3.3-7.5,7.4c0,1.4,0.4,2.6,1.1,3.8C31,42.1,29.2,43.3,28.3,43.8z
		 M39.4,42.4c-3.2,0-5.8-2.6-5.8-5.8c0-3.2,2.6-5.8,5.8-5.8c3.2,0,5.7,2.6,5.7,5.8C45.2,39.8,42.7,42.4,39.4,42.4z"/>
	<path class="st0" d="M42.3,35.7h-2v-2c0-0.5-0.4-0.8-0.8-0.8c-0.5,0-0.8,0.4-0.8,0.8v2h-2c-0.5,0-0.8,0.4-0.8,0.8
		c0,0.5,0.4,0.8,0.8,0.8h2v2.1c0,0.5,0.4,0.8,0.8,0.8c0.5,0,0.8-0.4,0.8-0.8v-2h2c0.5,0,0.8-0.4,0.8-0.8
		C43.1,36.2,42.8,35.7,42.3,35.7z"/>
</g>
</svg>
