<?xml version="1.0" encoding="utf-8"?>
<!-- Generator: Adobe Illustrator 24.2.3, SVG Export Plug-In . SVG Version: 6.00 Build 0)  -->
<svg version="1.1" id="Layer_1" xmlns="http://www.w3.org/2000/svg" xmlns:xlink="http://www.w3.org/1999/xlink" x="0px" y="0px"
	 viewBox="0 0 56.7 56.7" style="enable-background:new 0 0 56.7 56.7;" xml:space="preserve">
<style type="text/css">
	.st0{fill:#1A171B;}
</style>
<g>
	<path class="st0" d="M28.5,8.6c0.4,0,0.7-0.3,0.7-0.8c0-0.4-0.3-0.7-0.7-0.7s-0.7,0.3-0.7,0.7C27.8,8.2,28.1,8.6,28.5,8.6z"/>
	<path class="st0" d="M17.8,8.6h7.4c0.4,0,0.8-0.3,0.8-0.8c0-0.4-0.3-0.7-0.8-0.7h-7.4c-0.4,0-0.8,0.3-0.8,0.7
		C17,8.2,17.4,8.6,17.8,8.6z"/>
	<path class="st0" d="M14,47.3c-0.4,0-0.7,0.3-0.7,0.8c0,0.4,0.3,0.8,0.7,0.8s0.7-0.4,0.7-0.8C14.8,47.7,14.4,47.3,14,47.3z"/>
	<path class="st0" d="M29,47.3c-0.4,0-0.8,0.3-0.8,0.8c0,0.4,0.3,0.8,0.8,0.8c0.4,0,0.7-0.4,0.7-0.8C29.7,47.7,29.4,47.3,29,47.3z"
		/>
	<path class="st0" d="M21.5,47.3c-0.4,0-0.8,0.3-0.8,0.8c0,0.4,0.3,0.8,0.8,0.8c0.4,0,0.7-0.4,0.7-0.8
		C22.2,47.7,21.9,47.3,21.5,47.3z"/>
	<path class="st0" d="M49.3,16H38.6V5.6c0-1.2-1-2.3-2.2-2.3H6.6c-1.2,0-2.2,1-2.2,2.3v44.7c0,1.2,1,2.2,2.2,2.2h29.8
		c1.2,0,2.2-1,2.2-2.2V39.9h10.7c2.1,0,3.8-1.7,3.8-3.7v-9.1v-5.8v-1.5C53.1,17.7,51.4,16,49.3,16z M37.2,50.3
		c0,0.4-0.3,0.7-0.8,0.7H6.6c-0.4,0-0.7-0.3-0.7-0.7V5.6c0-0.4,0.3-0.8,0.7-0.8h29.8c0.4,0,0.8,0.3,0.8,0.8V16h-3v-4.5
		c0-0.4-0.3-0.7-0.7-0.7H9.6c-0.4,0-0.8,0.3-0.8,0.7v32.8c0,0.4,0.3,0.8,0.8,0.8h23.9c0.4,0,0.7-0.3,0.7-0.8v-4.5h3V50.3z
		 M51.5,26.3H20.2V22h31.3V26.3z M18.7,19.8v1.5v5.8v9.1c0.1,2,1.7,3.7,3.8,3.7h10.2v3.7H10.3V12.3h22.4V16H22.5
		C20.4,16,18.7,17.7,18.7,19.8z M49.3,38.4H22.5c-1.2,0-2.3-1-2.3-2.3v-8.3h31.3v8.3h0.1C51.6,37.3,50.6,38.4,49.3,38.4z M51.6,20.5
		H20.2v-0.7c0-1.3,1-2.3,2.3-2.3h26.8c1.3,0,2.3,1,2.3,2.3V20.5z"/>
	<path class="st0" d="M33.4,31.9c0.4,0,0.7-0.3,0.7-0.8c0-0.4-0.3-0.7-0.7-0.7c-0.4,0-0.7,0.3-0.7,0.7C32.7,31.5,33,31.9,33.4,31.9z
		"/>
	<path class="st0" d="M36.8,31.9c0.2,0,0.4-0.1,0.5-0.2c0.1-0.1,0.2-0.3,0.2-0.5s-0.1-0.4-0.2-0.5c-0.3-0.3-0.8-0.3-1.1,0
		C36.1,30.8,36,31,36,31.2s0.1,0.4,0.2,0.5C36.4,31.8,36.6,31.9,36.8,31.9z"/>
	<path class="st0" d="M23.3,31.9H30c0.4,0,0.7-0.3,0.7-0.8c0-0.4-0.3-0.7-0.7-0.7h-6.7c-0.2,0-0.4,0.1-0.5,0.2
		c-0.1,0.1-0.2,0.3-0.2,0.5c0,0.2,0.1,0.4,0.2,0.6C23,31.9,23.1,31.9,23.3,31.9z"/>
	<path class="st0" d="M41.2,34.5H23.3c-0.4,0-0.7,0.4-0.7,0.8c0,0.5,0.3,0.8,0.7,0.8h17.9c0.4,0,0.7-0.3,0.7-0.8
		C41.9,34.9,41.6,34.5,41.2,34.5z"/>
</g>
</svg>
