<?xml version="1.0" encoding="utf-8"?>
<!-- Generator: Adobe Illustrator 21.0.0, SVG Export Plug-In . SVG Version: 6.00 Build 0)  -->
<svg version="1.1" id="Layer_1" xmlns="http://www.w3.org/2000/svg" xmlns:xlink="http://www.w3.org/1999/xlink" x="0px" y="0px"
	 viewBox="0 0 28.4 28.4" style="enable-background:new 0 0 28.4 28.4;" xml:space="preserve">
<style type="text/css">
	.st0{fill:#231F20;}
</style>
<g id="XMLID_687_">
	<g id="XMLID_696_">
		<g id="XMLID_697_">
			<g id="XMLID_700_">
				<g id="XMLID_702_">
					<path id="XMLID_601_" class="st0" d="M8.3,25.7c-0.2,0-0.4-0.1-0.5-0.2l-5.3-5.3c-0.3-0.3-0.3-0.8,0-1.1l2-2
						c0.3-0.3,0.8-0.3,1.1,0l5.3,5.3c0.3,0.3,0.3,0.8,0,1.1l-2,2C8.7,25.6,8.5,25.7,8.3,25.7z M5,17.5C5,17.5,5,17.5,5,17.5
						l-2.1,2.1c0,0,0,0.1,0,0.1L8.2,25c0,0,0.1,0,0.1,0l2-2c0,0,0-0.1,0-0.1L5,17.5C5.1,17.5,5,17.5,5,17.5z"/>
				</g>
				<g id="XMLID_701_">
					<path id="XMLID_600_" class="st0" d="M5.8,20.7c-0.1,0-0.2,0-0.2-0.1l-1.2-1.2c-0.1-0.1-0.1-0.4,0-0.5c0.1-0.1,0.4-0.1,0.5,0
						l1.2,1.2c0.1,0.1,0.1,0.4,0,0.5C6,20.7,5.9,20.7,5.8,20.7z"/>
				</g>
			</g>
			<g id="XMLID_699_">
				<path id="XMLID_599_" class="st0" d="M18.6,19H13c-0.2,0-0.3-0.2-0.3-0.3c0-0.2,0.2-0.3,0.3-0.3h4.9c-0.2-1-1.1-1.8-2.1-1.8h-1
					c-0.5,0-1-0.2-1.3-0.5c-0.2-0.2-0.5-0.3-0.8-0.3H9c-0.3,0-0.6,0.1-0.8,0.3l-2.1,2.1c-0.1,0.1-0.4,0.1-0.5,0s-0.1-0.4,0-0.5
					l2.1-2.1C8.1,15.2,8.5,15,9,15h3.6c0.5,0,1,0.2,1.3,0.5c0.2,0.2,0.5,0.3,0.8,0.3h1c1.6,0,2.9,1.3,2.9,2.9V19z"/>
			</g>
			<g id="XMLID_698_">
				<path id="XMLID_598_" class="st0" d="M10.2,22.4c-0.1,0-0.2,0-0.2-0.1c-0.1-0.1-0.1-0.4,0-0.5l1-1h6.9c3.3-1.7,5.6-5.7,6.2-6.8
					c-2.4-0.9-3.6,1.3-3.6,1.4l-0.1,0.1l-0.1,0.1l-3.1,1.3c-0.2,0.1-0.4,0-0.4-0.2c-0.1-0.2,0-0.4,0.2-0.4l2.9-1.2
					c0.3-0.6,1.9-2.9,4.8-1.5l0.3,0.2L24.8,14c-0.1,0.2-2.7,5.4-6.8,7.5l-0.1,0h-6.8l-0.8,0.8C10.4,22.4,10.3,22.4,10.2,22.4z"/>
			</g>
		</g>
	</g>
	<g id="XMLID_695_">
		<path id="XMLID_597_" class="st0" d="M12.9,12.5c-1.3,0-2.4-1.1-2.4-2.4c0-1,0.6-1.8,1.4-2.2c0.2-0.1,0.4,0,0.5,0.2
			c0.1,0.2,0,0.4-0.2,0.4c-0.6,0.3-1,0.9-1,1.5c0,0.9,0.8,1.7,1.7,1.7s1.7-0.8,1.7-1.7c0-0.8-0.6-1.5-1.4-1.7
			c-0.2,0-0.3-0.2-0.3-0.4s0.2-0.3,0.4-0.3c1.1,0.2,2,1.2,2,2.3C15.2,11.4,14.2,12.5,12.9,12.5z"/>
	</g>
	<g id="XMLID_694_">
		<path id="XMLID_594_" class="st0" d="M19.6,7.7c-1.3,0-2.4-1.1-2.4-2.4S18.3,3,19.6,3S22,4.1,22,5.4S20.9,7.7,19.6,7.7z M19.6,3.7
			c-0.9,0-1.7,0.8-1.7,1.7S18.7,7,19.6,7c0.9,0,1.7-0.8,1.7-1.7S20.5,3.7,19.6,3.7z"/>
	</g>
	<g id="XMLID_693_">
		<path id="XMLID_591_" class="st0" d="M18.4,16.4l-0.1,0c-0.9-0.3-1.5-1.2-1.5-2.2c0-1.3,1.1-2.4,2.4-2.4c1.3,0,2.3,1,2.4,2.3
			l0,0.2l-0.1,0.1c-0.6,0.5-0.9,1.1-0.9,1.1l-0.1,0.1L18.4,16.4z M19.1,12.5c-0.9,0-1.7,0.8-1.7,1.7c0,0.6,0.4,1.2,1,1.5l1.5-0.6
			c0.1-0.2,0.4-0.7,0.9-1.1C20.7,13.1,20,12.5,19.1,12.5z"/>
	</g>
	<g id="XMLID_692_">
		<path id="XMLID_590_" class="st0" d="M12.1,10.5c-0.2,0-0.3-0.2-0.3-0.3V7.1c0-0.2,0.2-0.3,0.3-0.3c0.2,0,0.3,0.2,0.3,0.3v3.1
			C12.4,10.3,12.3,10.5,12.1,10.5z"/>
	</g>
	<g id="XMLID_691_">
		<path id="XMLID_589_" class="st0" d="M15.6,7c-0.2,0-0.3-0.2-0.3-0.3V3.3c0-0.2,0.2-0.3,0.3-0.3C15.8,3,16,3.2,16,3.3v3.3
			C16,6.9,15.8,7,15.6,7z"/>
	</g>
	<g id="XMLID_690_">
		<path id="XMLID_588_" class="st0" d="M12.1,6.1c-0.2,0-0.3-0.2-0.3-0.3V4.5c0-0.2,0.2-0.3,0.3-0.3c0.2,0,0.3,0.2,0.3,0.3v1.2
			C12.4,5.9,12.3,6.1,12.1,6.1z"/>
	</g>
	<g id="XMLID_689_">
		<path id="XMLID_587_" class="st0" d="M22,12c-0.2,0-0.3-0.2-0.3-0.3V9.2c0-0.2,0.2-0.3,0.3-0.3c0.2,0,0.3,0.2,0.3,0.3v2.4
			C22.3,11.8,22.2,12,22,12z"/>
	</g>
	<g id="XMLID_688_">
		<path id="XMLID_586_" class="st0" d="M22.9,8.4c-0.2,0-0.3-0.2-0.3-0.3V7.3c0-0.2,0.2-0.3,0.3-0.3c0.2,0,0.3,0.2,0.3,0.3V8
			C23.3,8.2,23.1,8.4,22.9,8.4z"/>
	</g>
</g>
</svg>
