<?xml version="1.0" encoding="utf-8"?>
<!-- Generator: Adobe Illustrator 24.2.3, SVG Export Plug-In . SVG Version: 6.00 Build 0)  -->
<svg version="1.1" id="Layer_1" xmlns="http://www.w3.org/2000/svg" xmlns:xlink="http://www.w3.org/1999/xlink" x="0px" y="0px"
	 viewBox="0 0 56.7 56.7" style="enable-background:new 0 0 56.7 56.7;" xml:space="preserve">
<g>
	<g>
		<path d="M28.5,13.6c-7.9,0-15.7,0-23.6,0c-0.3,0-0.6,0-0.9,0S3.5,13.7,3.5,14c0,0.1,0,0.2,0,0.3c0,9.5,0,19,0,28.5
			c0,0.2,0,0.4,0,0.6c0,0.8,0.4,1.3,1,1.8c0.5,0.4,1,0.5,1.6,0.5c1.2,0,2.4,0,3.6,0c0.5,0,0.9,0.2,1,0.7s-0.2,0.9-0.6,0.9
			c-0.6,0-1.2,0-1.8,0c-0.9,0-1.9,0-2.8,0c-0.8,0-1.5-0.5-2.1-1c-0.5-0.5-0.8-1.1-1.1-1.7c0-0.1,0-0.1,0-0.2c0-0.3,0-0.6,0-0.9
			C2,31.6,2,19.7,2,7.9c0-0.6,0-1.2,0.3-1.7c0.2-0.3,0.4-0.6,0.6-0.9C3.6,4.5,4.5,4.2,5.5,4c0.7-0.1,1.4-0.1,2-0.1
			c14.2,0,28.5,0,42.7,0c0.3,0,0.6,0.1,0.9,0.1c1.1,0.1,2,0.6,2.7,1.4c0.3,0.3,0.5,0.7,0.6,1.1c0.3,0.7,0.3,1.4,0.3,2.1
			c0,11.5,0,23,0,34.5c0,0.7-0.2,1.3-0.4,1.9c-0.4,0.8-1,1.4-1.8,1.8c-0.7,0.3-1.3,0.4-2,0.4c-1.2,0-2.4,0-3.6,0
			c-0.3,0-0.6,0-0.8-0.3c-0.3-0.5-0.1-1,0.4-1.2c0.2,0,0.3-0.1,0.5-0.1c1.1,0,2.2,0,3.3,0c0.4,0,0.8,0,1.2-0.1
			c0.5-0.2,0.9-0.6,1.2-1c0.3-0.5,0.4-1.1,0.4-1.7c0-9.4,0-18.8,0-28.2c0-0.2,0-0.4,0-0.6c0-0.3-0.1-0.4-0.4-0.4
			C44.6,13.6,36.5,13.6,28.5,13.6L28.5,13.6z M28.3,5.5c-7.3,0-14.6,0-21.8,0c-0.6,0-1.1,0.1-1.6,0.3C4.1,6.2,3.6,6.7,3.5,7.5
			c-0.1,1.4,0,2.7,0,4.1c0,0.2,0.1,0.3,0.4,0.4c0.2,0,0.4,0,0.6,0c15.9,0,31.9,0,47.8,0c0.2,0,0.3,0,0.5,0c0.3,0,0.4-0.1,0.4-0.4
			c0-1.3,0-2.5,0-3.8c0-0.6-0.3-1.1-0.8-1.6s-1.2-0.7-1.9-0.7C43,5.5,35.7,5.5,28.3,5.5z"/>
		<path d="M18,50.8c0,0.5,0,1,0,1.4c0,0.5-0.1,0.6-0.6,0.6c-1.3,0-2.6,0-3.8,0c-0.5,0-0.6-0.1-0.6-0.6c0-1.3,0-2.6,0-3.9
			c0-0.4,0.1-0.6,0.6-0.6s1,0,1.5,0c0-7,0-14,0-21c-0.5,0-0.9,0-1.4,0c-0.6,0-0.7-0.1-0.7-0.7c0-1.3,0-2.6,0-3.9
			c0-0.4,0.2-0.5,0.5-0.6c1.3,0,2.7,0,4,0c0.3,0,0.5,0.2,0.5,0.5c0,1.3,0,2.7,0,4c0,0.4-0.2,0.6-0.6,0.6c-0.5,0-1,0-1.5,0
			c0,7,0,14,0,20.9c0.4,0,0.8,0,1.3,0c0.1-0.5,0.3-1.1,0.4-1.6c0.6-2.9,1.3-5.8,1.9-8.6c0.1-0.3,0.2-0.5,0.6-0.6
			c2.7-0.8,5.2-2,7.3-3.8c0.1-0.1,0.2-0.2,0.2-0.3c0.4-0.9,0.8-1.9,1.2-2.8c0.2-0.5,0.5-0.5,0.9-0.2c2,2,4.1,4.1,6.1,6.1
			c0.4,0.4,0.4,0.7-0.2,1c-0.9,0.4-1.8,0.8-2.7,1.2c-0.1,0.1-0.2,0.1-0.3,0.2c-1.8,2.2-3,4.7-3.9,7.4c-0.1,0.3-0.2,0.4-0.5,0.5
			c-3.4,0.8-6.7,1.5-10.1,2.3c-0.2,0-0.3,0.1-0.3,0.3c0,0.3,0,0.7,0,1c7,0,14,0,21,0c0-0.5,0-1,0-1.5c0-0.4,0.2-0.6,0.6-0.6
			c1.3,0,2.6,0,4,0c0.4,0,0.5,0.2,0.5,0.6c0,1.3,0,2.6,0,4c0,0.4-0.2,0.6-0.6,0.6c-1.3,0-2.6,0-3.9,0c-0.5,0-0.6-0.2-0.6-0.6
			c0-0.5,0-0.9,0-1.4C32,50.8,25,50.8,18,50.8z M28,34C28,34,27.9,34,28,34c-2.2,1.8-4.7,3-7.3,3.8c-0.2,0-0.2,0.1-0.2,0.3
			c-0.5,2.4-1.1,4.7-1.6,7.1c-0.1,0.5-0.2,1-0.3,1.5c0.1-0.1,0.1-0.1,0.2-0.1c1.4-1.3,2.7-2.7,4.1-4c0.1-0.1,0.1-0.2,0-0.4
			c-0.3-0.8-0.2-1.5,0.4-2.2c0.6-0.6,1.3-0.7,2.1-0.5c1,0.4,1.5,1.5,1.1,2.6c-0.4,1-1.6,1.5-2.6,1.1c-0.2-0.1-0.3-0.1-0.4,0.1
			c-1.3,1.3-2.6,2.6-4,4c-0.1,0.1-0.1,0.1-0.2,0.2c0.1,0,0.1,0,0.2,0c2.8-0.6,5.6-1.3,8.4-1.9c0.1,0,0.2-0.1,0.3-0.2
			c0.4-1.3,0.9-2.6,1.6-3.9c0.6-1.2,1.4-2.4,2.2-3.4C30.6,36.6,29.3,35.3,28,34z M34.9,36.3c-1.8-1.8-3.5-3.5-5.3-5.3
			c-0.3,0.7-0.6,1.3-0.9,2c0,0.1,0,0.2,0,0.3c1.3,1.3,2.5,2.6,3.8,3.8c0,0,0.1,0.1,0.2,0.1C33.5,36.9,34.2,36.6,34.9,36.3z
			 M13.9,25.9c1.1,0,2.1,0,3.2,0c0-1.1,0-2.1,0-3.2c-1.1,0-2.1,0-3.2,0C13.9,23.8,13.9,24.8,13.9,25.9z M17.1,48.8
			c-1.1,0-2.1,0-3.2,0c0,1.1,0,2.1,0,3.2c1.1,0,2.1,0,3.2,0C17.1,50.9,17.1,49.8,17.1,48.8z M39.9,51.9c1.1,0,2.1,0,3.2,0
			c0-1.1,0-2.1,0-3.2c-1.1,0-2.1,0-3.2,0C39.9,49.8,39.9,50.9,39.9,51.9z M24.5,42.3c0.6,0,1-0.4,1.1-1c0-0.5-0.4-1-1-1
			s-1.1,0.4-1.1,1C23.5,41.8,24,42.3,24.5,42.3z"/>
		<path d="M44.5,8.8c0-0.4,0.4-0.8,0.8-0.8c0.3,0,0.8,0.5,0.8,0.8c0,0.4-0.4,0.8-0.8,0.8C44.9,9.5,44.5,9.2,44.5,8.8z"/>
		<path d="M41.7,8.8c0,0.5-0.3,0.8-0.8,0.8c-0.4,0-0.8-0.4-0.8-0.8c0-0.3,0.5-0.7,0.8-0.7C41.3,8,41.7,8.4,41.7,8.8z"/>
		<path d="M49.7,9.5c-0.5,0-0.8-0.3-0.8-0.7C49,8.4,49.3,8,49.7,8c0.3,0,0.8,0.5,0.8,0.8C50.5,9.2,50.1,9.5,49.7,9.5z"/>
	</g>
</g>
</svg>
