<?xml version="1.0" encoding="utf-8"?>
<!-- Generator: Adobe Illustrator 24.2.3, SVG Export Plug-In . SVG Version: 6.00 Build 0)  -->
<svg version="1.1" id="Layer_1" xmlns="http://www.w3.org/2000/svg" xmlns:xlink="http://www.w3.org/1999/xlink" x="0px" y="0px"
	 viewBox="0 0 56.7 56.7" style="enable-background:new 0 0 56.7 56.7;" xml:space="preserve">
<style type="text/css">
	.st0{fill:#1A171B;}
</style>
<path class="st0" d="M28.1,43.4c-0.4,0-0.8,0.3-0.8,0.8v3.3c0,1.7-1.4,3-3,3H7.9c-1.7,0-3-1.4-3-3V11.6c0-1.7,1.4-3,3-3h0.9v1.9
	c0,1.2,0.9,2.1,2.1,2.1h10.5c1.2,0,2.1-0.9,2-2v-2h1c1.7,0,3,1.4,3,3v2.7c0,0.4,0.3,0.8,0.8,0.8c0.4,0,0.8-0.3,0.8-0.8v-2.7
	C29,9,26.9,7,24.3,7h-1.7h-13H7.9c-2.5,0-4.6,2-4.6,4.6v35.9c0,2.5,2.1,4.6,4.6,4.6h16.5c2.5,0,4.6-2.1,4.5-4.6v-3.3
	C28.9,43.8,28.6,43.4,28.1,43.4z M10.5,8.6h11.3v1.9c0,0.2-0.2,0.4-0.4,0.4H10.9c-0.2,0-0.4-0.2-0.4-0.4V8.6z"/>
<path class="st0" d="M23.4,48.9c0.5,0,0.9-0.4,0.8-0.8c0-0.4-0.3-0.8-0.8-0.8H8.9c-0.4,0-0.8,0.3-0.8,0.8c0,0.4,0.3,0.8,0.8,0.8
	H23.4z"/>
<path class="st0" d="M21.6,38.7H28c0.4,0,0.7-0.2,0.8-0.5c0.5-1.2,1.5-2.2,2.7-2.8c0.3-0.1,0.5-0.4,0.5-0.7v-7.6
	c0-0.3-0.2-0.6-0.5-0.7c-1.2-0.6-2.2-1.6-2.7-2.8c-0.2-0.3-0.5-0.5-0.8-0.5h-6.4c-0.4,0-0.8,0.4-0.8,0.8c0,0.4,0.3,0.8,0.8,0.8h5.8
	c0.7,1.2,1.6,2.2,2.8,2.9v6.6c-1.2,0.7-2.2,1.7-2.8,2.9h-5.8c-0.4,0-0.8,0.3-0.8,0.8C20.8,38.3,21.1,38.7,21.6,38.7z"/>
<path class="st0" d="M12.9,32.6c-0.4,0-0.8,0.3-0.8,0.8v0.9c0,0.8,0.6,1.4,1.4,1.4h1.1c0,0.4,0.3,0.8,0.8,0.8s0.8-0.4,0.8-0.8h1.1
	c0.8,0,1.4-0.7,1.4-1.5v-2.8c0-0.8-0.6-1.4-1.4-1.4h-1.1v-2.3h0.9v0.7c0,0.4,0.3,0.8,0.8,0.8c0.4,0,0.8-0.3,0.8-0.8v-0.9
	c0-0.8-0.6-1.4-1.4-1.4h-1.1c0-0.4-0.3-0.7-0.8-0.7c-0.4,0-0.7,0.3-0.8,0.7h-1.1c-0.8,0-1.4,0.6-1.4,1.4v2.8c0,0.8,0.6,1.4,1.4,1.4
	h1.1V34h-0.9v-0.6C13.7,33,13.4,32.6,12.9,32.6z M16.2,31.7H17V34h-0.8V31.7z M13.8,30v-2.3h0.8V30H13.8z"/>
<path class="st0" d="M21.5,36.1c0.1,0,0.1,0,0.2,0c0.4,0,0.7-0.2,0.8-0.6c0.4-1.4,0.6-3,0.6-4.6c0-1.6-0.2-3.1-0.6-4.6
	c-0.1-0.5-0.6-0.7-1-0.6c-0.5,0.1-0.7,0.6-0.6,1c0.3,1.3,0.5,2.7,0.5,4.2c0,1.4-0.1,2.9-0.5,4.2C20.8,35.5,21.1,36,21.5,36.1z"/>
<path class="st0" d="M34,20.5H9.1c-0.4,0-0.8,0.3-0.8,0.8c0,0.4,0.3,0.8,0.8,0.8h24.1v17.6H8.8C8.4,39.7,8,40,8,40.5
	s0.4,0.8,0.8,0.8H34c0.5,0,0.9-0.3,0.8-0.7V21.3C34.8,20.9,34.5,20.5,34,20.5z"/>
<path class="st0" d="M8.3,17.6c0,0.4,0.3,0.8,0.8,0.8h39.1c0.5,0,0.8-0.4,0.8-0.8c0-0.4-0.3-0.8-0.8-0.8H9.1
	C8.7,16.8,8.3,17.2,8.3,17.6z"/>
<path class="st0" d="M54.1,30.1H41.2c-0.4,0-0.8,0.3-0.8,0.8c0,0.4,0.3,0.8,0.8,0.8h12.9c0.4,0,0.8-0.4,0.8-0.8
	C54.9,30.5,54.6,30.1,54.1,30.1z"/>
<path class="st0" d="M37.9,24.6c0,0.4,0.3,0.8,0.8,0.8h12.2c0.5,0,0.8-0.4,0.8-0.8c0-0.4-0.3-0.8-0.8-0.8H38.7
	C38.3,23.8,37.9,24.1,37.9,24.6z"/>
<path class="st0" d="M50.9,36.4H38.7c-0.4,0-0.8,0.3-0.8,0.8c0,0.4,0.3,0.8,0.8,0.8h12.2c0.5,0,0.8-0.3,0.8-0.8
	C51.7,36.8,51.4,36.4,50.9,36.4z"/>
</svg>
