<?xml version="1.0" encoding="utf-8"?>
<!-- Generator: Adobe Illustrator 24.2.3, SVG Export Plug-In . SVG Version: 6.00 Build 0)  -->
<svg version="1.1" id="Layer_1" xmlns="http://www.w3.org/2000/svg" xmlns:xlink="http://www.w3.org/1999/xlink" x="0px" y="0px"
	 viewBox="0 0 56.7 56.7" style="enable-background:new 0 0 56.7 56.7;" xml:space="preserve">
<style type="text/css">
	.st0{fill:#F90657;}
	.st1{fill:#FFFFFF;}
</style>
<g>
	<path class="st0" d="M28.4,55.1L28.4,55.1c-14.5,0-26.2-11.7-26.2-26.2l0,0c0-14.5,11.7-26.2,26.2-26.2l0,0
		c14.5,0,26.2,11.7,26.2,26.2l0,0C54.6,43.3,42.8,55.1,28.4,55.1z"/>
	<path class="st1" d="M44,41.9h-3V26.8l0,0c0.4,0.3,1,0.2,1.3-0.2l2.3-3.1c0.2-0.2,0.2-0.5,0.2-0.7c0-0.3-0.2-0.5-0.4-0.6
		c0-0.2-15.4-11.3-15.5-11.3c-0.3-0.2-0.8-0.2-1.1,0c0,0-3,2.2-6.3,4.5v-1.8c0-0.5-0.4-1-1-1h-3.9c-0.5,0-1,0.4-1,1v6
		c-2,1.4-3.4,2.5-3.5,2.5c-0.2,0.2-0.4,0.4-0.4,0.6c0,0.3,0,0.5,0.2,0.7l2.3,3.1c0.3,0.4,0.9,0.5,1.3,0.2l0,0v15.1h-2.9
		c-0.5,0-1,0.4-1,1c0,0.5,0.4,1,1,1H44c0.5,0,1-0.4,1-1C44.9,42.3,44.5,41.9,44,41.9L44,41.9z M17.6,14.6h1.9v2.2
		c-0.7,0.5-1.3,0.9-1.9,1.4V14.6z M15.3,24.7l-1.2-1.6c9.8-7.1,13.1-9.5,14.2-10.3c1.6,1.1,6.3,4.6,14.2,10.3l-1.2,1.6
		c-0.1-0.1-12.4-8.9-12.5-9c-0.3-0.2-0.8-0.2-1.1,0C27.6,15.9,15.6,24.5,15.3,24.7L15.3,24.7z M17.6,25.4c7.1-5.1,9.8-7,10.8-7.7
		c1.3,0.9,4.9,3.5,10.8,7.7v16.5H17.6V25.4z"/>
</g>
</svg>
