<?xml version="1.0" encoding="utf-8"?>
<!-- Generator: Adobe Illustrator 21.0.0, SVG Export Plug-In . SVG Version: 6.00 Build 0)  -->
<svg version="1.1" id="Layer_1" xmlns="http://www.w3.org/2000/svg" xmlns:xlink="http://www.w3.org/1999/xlink" x="0px" y="0px"
	 viewBox="0 0 28.4 28.4" style="enable-background:new 0 0 28.4 28.4;" xml:space="preserve">
<style type="text/css">
	.st0{fill:#1A171B;}
	.st1{fill:#231F20;}
</style>
<g id="XMLID_294_">
	<path id="XMLID_362_" class="st0" d="M23.2,22.3L23.2,22.3l-0.1-8.1c0-0.7-0.3-1.4-0.8-2l-2.5-2.5V6.6h1.1c0.6,0,1.1-0.5,1.1-1.1
		V3.4c0-0.6-0.5-1.1-1.1-1.1h-15c-0.6,0-1.1,0.5-1.1,1.1v2.1c0,0.6,0.5,1.1,1.1,1.1h1.1v6.6c0,0.6,0.5,1.1,1.1,1.1h5v3.5
		c0,0.9,0.3,1.7,1,2.4c0.5,0.5,0.8,1.2,0.8,1.8v0.3h-0.5c-0.5,0-0.8,0.4-0.8,0.8v2.5c0,0.5,0.4,0.8,0.8,0.8h8.7
		c0.5,0,0.8-0.4,0.8-0.8v-2.5C24,22.7,23.6,22.3,23.2,22.3z M16.8,10.5c-0.3-0.3-0.8-0.5-1.3-0.5c-0.5,0-0.9,0.2-1.3,0.5
		c-0.3,0.3-0.5,0.8-0.5,1.3c0,0.5,0.2,0.9,0.5,1.3l0.5,0.5h-2.6V4.8H19v7.9L16.8,10.5z M11.5,4.8v8.8H9.2V4.8H11.5z M5.9,5.9
		c-0.2,0-0.4-0.2-0.4-0.4V3.4C5.6,3.2,5.7,3,5.9,3h15c0.2,0,0.4,0.2,0.4,0.4v2.1c0,0.2-0.2,0.4-0.4,0.4h-1.1V4.8h0.6
		c0.2,0,0.4-0.2,0.4-0.4c0-0.2-0.2-0.4-0.4-0.4h-0.6H7.1H6.5c-0.2,0-0.4,0.2-0.4,0.4c0,0.2,0.2,0.4,0.4,0.4h0.6v1.1H5.9z M7.8,13.2
		V4.8h0.7v8.8H8.2C8,13.6,7.8,13.4,7.8,13.2z M14.7,19.7c-0.5-0.5-0.8-1.2-0.8-1.8v-3.5h1.6l0.6,0.6c-0.6,0.9-1.1,2.6,0.2,4
		c0.1,0.1,0.2,0.1,0.3,0.1c0.1,0,0.2,0,0.3-0.1c0.1-0.1,0.1-0.4,0-0.5c-1.4-1.4,0-3.2,0-3.3l0.2-0.3l-1.1-1.1l0,0l-1.1-1.2
		c-0.2-0.2-0.3-0.5-0.3-0.8c0-0.3,0.1-0.6,0.3-0.8c0.4-0.4,1.1-0.4,1.5,0l3.6,3.6c0.1,0.1,0.4,0.1,0.5,0c0.1-0.1,0.1-0.4,0-0.5
		l-0.8-0.8c0,0,0-0.1,0-0.2v-2.4l2,2c0.4,0.4,0.6,0.9,0.6,1.4v8.1h-6.7V22C15.7,21.1,15.3,20.3,14.7,19.7z M23.3,25.7
		c0,0.1,0,0.1-0.1,0.1h-8.7c-0.1,0-0.1,0-0.1-0.1v-2.5c0-0.1,0-0.1,0.1-0.1h8.7c0.1,0,0.1,0,0.1,0.1V25.7z"/>
	<path id="XMLID_382_" class="st1" d="M22.3,24h-1.6c-0.2,0-0.4,0.2-0.4,0.4c0,0.2,0.2,0.4,0.4,0.4h1.6c0.2,0,0.4-0.2,0.4-0.4
		C22.7,24.2,22.5,24,22.3,24z"/>
	<path id="XMLID_383_" class="st1" d="M13.4,5.1c-0.2,0-0.4,0.2-0.4,0.4v4.6c0,0.2,0.2,0.4,0.4,0.4s0.4-0.2,0.4-0.4V5.5
		C13.8,5.3,13.6,5.1,13.4,5.1z"/>
	<path id="XMLID_385_" class="st1" d="M14.8,5.1c-0.2,0-0.4,0.2-0.4,0.4v2.1c0,0.2,0.2,0.4,0.4,0.4s0.4-0.2,0.4-0.4V5.5
		C15.1,5.3,15,5.1,14.8,5.1z"/>
</g>
</svg>
