<?xml version="1.0" encoding="utf-8"?>
<!-- Generator: Adobe Illustrator 24.2.3, SVG Export Plug-In . SVG Version: 6.00 Build 0)  -->
<svg version="1.1" id="Layer_1" xmlns="http://www.w3.org/2000/svg" xmlns:xlink="http://www.w3.org/1999/xlink" x="0px" y="0px"
	 viewBox="0 0 56.7 56.7" style="enable-background:new 0 0 56.7 56.7;" xml:space="preserve">
<style type="text/css">
	.st0{fill:#FF0058;}
	.st1{display:none;fill:#FFFFFF;}
	.st2{fill:#FFFFFF;}
</style>
<g>
	<path class="st0" d="M28.4,55.1L28.4,55.1C13.8,55.1,2,43.3,2,28.7l0,0C2,14.1,13.8,2.3,28.4,2.3l0,0c14.6,0,26.4,11.8,26.4,26.4
		l0,0C54.8,43.3,43,55.1,28.4,55.1z"/>
	<path class="st1" d="M36.8,30.9c-0.3-0.4-0.7-0.8-1.1-1.1c-0.9-0.9-2-1.5-3.2-2c2.1-1.4,3.5-3.7,3.5-6.4c0-4.2-3.4-7.7-7.6-7.7
		s-7.6,3.4-7.6,7.7c0,2.7,1.4,5.1,3.5,6.4c-1.2,0.5-2.2,1.2-3.2,2c-0.7,0.6-1.2,1.3-1.7,2c-1.3,1.8-2.1,4-2.1,6.4
		c0,0.3,0,0.7,0.1,1.1l0.1,1.1l1,0.6c3,1.8,6.5,2.7,10,2.7s7-0.9,10-2.7l1-0.6l0.1-1.1c0-0.4,0.1-0.7,0.1-1.1
		C39.5,35.4,38.5,32.9,36.8,30.9z M22.7,21.3c0-3.1,2.5-5.6,5.6-5.6s5.6,2.5,5.6,5.6s-2.5,5.6-5.6,5.6
		C25.3,26.9,22.7,24.4,22.7,21.3z M37.2,39.1c-2.7,1.6-5.7,2.4-8.9,2.4s-6.2-0.8-8.9-2.4c0-0.3,0-0.6,0-0.8c0-4.9,4-8.9,8.9-8.9
		s8.9,4,8.9,8.9C37.2,38.5,37.2,38.8,37.2,39.1z"/>
</g>
<g>
	<path class="st2" d="M38.1,16.5c-2.6-2.6-6.1-4-9.7-4c-3.7,0-7.1,1.4-9.7,4s-4,6.1-4,9.7c0,3.7,1.4,7.1,4,9.7l7.3,7.3
		c0.6,0.6,1.5,1,2.4,1s1.8-0.4,2.4-1l7.3-7.3c2.6-2.6,4-6.1,4-9.7C42.1,22.5,40.7,19.1,38.1,16.5L38.1,16.5z M36.8,34.6L29.5,42
		c-0.3,0.3-0.7,0.5-1.1,0.5s-0.8-0.2-1.1-0.5L20,34.7c-2.3-2.2-3.5-5.2-3.5-8.4s1.2-6.2,3.5-8.4s5.2-3.5,8.4-3.5s6.2,1.2,8.4,3.5
		C41.4,22.4,41.4,30,36.8,34.6L36.8,34.6z"/>
	<path class="st2" d="M28.4,21.3c-2.7,0-4.9,2.2-4.9,4.9s2.2,4.9,4.9,4.9s4.9-2.2,4.9-4.9S31.1,21.3,28.4,21.3L28.4,21.3z
		 M28.4,29.3c-1.7,0-3.1-1.4-3.1-3.1s1.4-3.1,3.1-3.1s3.1,1.4,3.1,3.1C31.4,27.9,30,29.3,28.4,29.3L28.4,29.3z"/>
</g>
</svg>
