<?xml version="1.0" encoding="utf-8"?>
<!-- Generator: Adobe Illustrator 23.0.3, SVG Export Plug-In . SVG Version: 6.00 Build 0)  -->
<svg version="1.1" id="Layer_1" xmlns="http://www.w3.org/2000/svg" xmlns:xlink="http://www.w3.org/1999/xlink" x="0px" y="0px"
	 viewBox="0 0 56.7 56.7" style="enable-background:new 0 0 56.7 56.7;" xml:space="preserve">
<style type="text/css">
	.st0{fill:#101010;}
</style>
<g>
	<g>
		<path class="st0" d="M23.2,40.8c-0.9,0-1.8-0.5-2.6-1.4c-0.2-0.2-0.3-0.4-0.4-0.6c-0.4-0.5-0.8-1.1-1.1-1.7
			c-0.6-0.9-1.4-1.4-2.3-1.7c-0.9-0.2-1.8-0.5-2.6-0.8c-1.4-0.5-2.3-1.6-2.3-3.1c-0.1-0.4,0-0.8,0-1.2c0-0.2,0-0.4,0-0.6v-1
			c0.1-1-0.2-1.8-0.8-2.6c-0.6-0.7-1.1-1.4-1.6-2.3c-0.9-1.2-0.9-2.7,0-3.9c0.5-0.7,1-1.4,1.5-2c0.7-0.8,1-1.7,1-3c0-0.3,0-0.7,0-1
			c0-0.4-0.1-0.8-0.1-1.3c0-1.7,0.8-2.9,2.4-3.5c0.8-0.3,1.7-0.5,2.5-0.7c1-0.3,1.8-0.9,2.3-1.7c0.2-0.3,0.4-0.5,0.5-0.8
			c0.3-0.5,0.6-1,1.1-1.5c1-1.3,2.3-1.7,3.8-1.2c0.7,0.2,1.5,0.4,2.4,0.8c1,0.4,2,0.4,3.1,0c0.9-0.2,1.6-0.4,2.4-0.7
			c1.6-0.4,2.9,0.1,3.8,1.3l1.5,2.1c0.6,0.9,1.3,1.4,2.4,1.7c0.9,0.2,1.9,0.6,2.6,0.8c1.4,0.5,2.3,1.6,2.4,3.2c0,0.9,0,1.7-0.1,2.6
			c-0.1,1,0.2,1.9,0.9,2.8c0.6,0.7,1.1,1.4,1.6,2.1c0.8,1.3,0.8,2.6,0,3.8l-0.3,0.4c-0.3,0.5-0.7,1.1-1.1,1.5
			c-0.9,1.1-1.3,2.3-1.2,3.8c0.1,0.5,0,1,0,1.6c0,0.2,0,0.5,0,0.7c-0.1,1.4-0.9,2.4-2.2,2.9l-0.6,0.2c-0.7,0.2-1.4,0.5-2.1,0.6
			c-1,0.2-1.7,0.8-2.3,1.8l-1.5,2.1c-0.8,1.2-2.2,1.7-3.7,1.3c-0.9-0.2-1.9-0.6-2.6-0.8c-0.9-0.4-1.8-0.4-3,0
			c-0.6,0.2-1.6,0.6-2.6,0.8C23.9,40.8,23.5,40.8,23.2,40.8z M23.3,4.5c-0.6,0-1.1,0.3-1.5,0.9c-0.4,0.5-0.7,0.9-1,1.3
			c-0.2,0.2-0.3,0.5-0.5,0.7c-0.6,1.2-1.8,2-3.2,2.4c-0.8,0.2-1.6,0.4-2.3,0.7c-1,0.4-1.4,1-1.4,2.1c0,0.4,0,0.8,0.1,1.2
			c0,0.4,0,0.8,0,1.1c0,1.7-0.5,3-1.4,4c-0.5,0.6-1,1.3-1.4,1.9c-0.5,0.7-0.5,1.5,0,2.2c0.5,0.9,1,1.5,1.6,2.1
			c0.9,1.2,1.3,2.4,1.2,3.7l0,0.9c0,0.2,0,0.4,0,0.7c0,0.3,0,0.7,0,0.9l0,0.1c0,0.9,0.4,1.5,1.3,1.8c0.8,0.3,1.6,0.6,2.4,0.8
			c1.3,0.3,2.4,1.1,3.3,2.3l0.1,0.1c0.3,0.5,0.6,1,1,1.5c0.1,0.2,0.3,0.4,0.4,0.6c0.6,0.7,1.2,0.9,2,0.6c1-0.2,1.9-0.6,2.5-0.8
			c1.6-0.5,2.8-0.5,4.1,0c0.6,0.2,1.5,0.5,2.4,0.8c0.9,0.2,1.6,0,2.1-0.7l1.5-2.1c0.8-1.3,1.9-2.1,3.2-2.4c0.7-0.2,1.3-0.4,2-0.6
			l0.5-0.2c0.7-0.3,1.1-0.8,1.2-1.6c0-0.2,0-0.4,0-0.7c0-0.5,0-0.9,0-1.3c-0.1-2,0.4-3.6,1.6-5c0.4-0.4,0.7-0.9,1-1.3l0.3-0.4
			c0.4-0.7,0.4-1.3,0-2.1c-0.5-0.7-1-1.3-1.5-2c-1-1.2-1.4-2.5-1.3-3.9c0.1-0.8,0.1-1.5,0.1-2.3c-0.1-1-0.5-1.6-1.4-1.9
			c-0.6-0.2-1.6-0.6-2.4-0.8c-1.4-0.4-2.5-1.1-3.3-2.3l-1.5-2.1c-0.5-0.7-1.2-0.9-2.1-0.7C32,5,31.2,5.2,30.4,5.4
			C29,6,27.6,6,26.2,5.4C25.4,5,24.7,4.8,24,4.6C23.8,4.5,23.5,4.5,23.3,4.5z"/>
	</g>
	<g>
		<path class="st0" d="M33.7,29.8l-1.2-1.2c-0.1,0-0.2-0.1-0.4-0.2c-0.6-0.3-1.2-0.6-1.8-0.9c-0.6-0.3-1.2-0.6-1.8-0.9l0,0
			c0,0,0,0,0,0l0,0c-1.2,0.7-2.3,1.3-3.5,1.9l-0.3,0.1c-0.1,0-0.2,0.1-0.2,0.1l-1.4,0.7l0.3-1.5c0.1-0.7,0.3-1.5,0.4-2.2
			c0.1-0.8,0.3-1.5,0.4-2.3c0.1-0.3-0.8-1.2-1.6-1.7c-0.4-0.2-0.9-0.6-1.4-1c-0.2-0.2-0.4-0.3-0.6-0.5L19,19.1l1.9-0.3
			c0.7-0.1,1.5-0.2,2.3-0.3c0.7,0,1.3-0.1,1.9-0.2c0.3,0,0.5-0.1,0.8-0.1c0.6-1.3,1.2-2.7,2-4.1l0.7-1.3l0.6,1.4
			c0.3,0.6,0.6,1.3,0.9,1.9c0.3,0.7,0.7,1.3,1,2c0,0.1,0.1,0.1,0.1,0.2c0.7,0.1,1.3,0.1,1.9,0.2c1,0.1,2,0.1,3,0.3l1.1,0.2l-0.6,0.9
			c-0.3,0.5-0.8,0.8-1.2,1.1c-0.3,0.2-0.5,0.3-0.6,0.5c-0.2,0.2-0.4,0.4-0.6,0.6c-0.4,0.4-0.8,0.9-1.3,1.2c0,0.1,0.1,0.8,0.2,1.1
			c0,0.2,0.1,0.3,0.1,0.4c0.1,0.4,0.2,0.9,0.2,1.3c0.1,0.4,0.1,0.9,0.2,1.3l0,0.2V29.8z M22.9,20.1c0.1,0.1,0.3,0.2,0.4,0.2
			c0.1,0,2.8,1.6,2.4,3.3c-0.1,0.7-0.3,1.5-0.4,2.2c0,0.3-0.1,0.6-0.1,0.8c0.9-0.4,1.7-0.9,2.6-1.5l0.1-0.1c0.3-0.1,0.9-0.3,1.4,0.1
			c0.6,0.3,1.2,0.6,1.7,0.9c0.3,0.2,0.6,0.3,0.9,0.5c0-0.1,0-0.1,0-0.2c-0.1-0.4-0.1-0.9-0.2-1.3c0-0.1-0.1-0.3-0.1-0.4
			c-0.2-0.7-0.4-1.8,0.3-2.5c0.4-0.4,0.8-0.7,1.2-1.2c0.2-0.2,0.4-0.4,0.6-0.6c0.2-0.2,0.4-0.3,0.5-0.4c-0.4,0-0.8-0.1-1.2-0.1
			c-0.7,0-1.4-0.1-2-0.2c-0.5,0-1-0.4-1.2-1.1c-0.3-0.6-0.6-1.2-0.9-1.9c-0.1-0.2-0.2-0.4-0.3-0.6c-0.5,1-0.9,1.9-1.3,2.7
			c-0.2,0.4-0.6,0.9-1.2,0.9c-0.2,0-0.5,0.1-0.8,0.1C24.7,20,24,20,23.3,20C23.2,20.1,23.1,20.1,22.9,20.1z M31.1,18.3
			C31.1,18.3,31.1,18.3,31.1,18.3C31.1,18.3,31.1,18.3,31.1,18.3z M26,18.3C26,18.3,26,18.3,26,18.3C26,18.3,26,18.3,26,18.3
			C26,18.3,26,18.3,26,18.3z"/>
	</g>
</g>
<g>
	<g>
		<path d="M37.2,49.6c0.7-2.1,1.4-3.8,2.1-5.7c1.9,0.7,3.7,1.3,5.7,2c-1.3-2.7-2.4-5.1-3.6-7.7c0.5-0.3,1-0.5,1.6-0.8
			c1.8,3.9,3.7,7.7,5.6,11.7c-2.8-1-5.4-1.9-8.1-2.9c-1,2.7-1.9,5.3-2.9,8.1c-1.9-4-3.7-7.9-5.6-11.8c0.5-0.3,1-0.5,1.6-0.8
			C34.7,44.3,35.9,46.8,37.2,49.6z"/>
	</g>
	<g>
		<path d="M16.3,46.2c-2.7,1-5.3,1.9-8.1,2.9c1.9-4,3.7-7.8,5.6-11.7c0.6,0.3,1,0.5,1.6,0.8c-1.2,2.5-2.4,5-3.6,7.7
			c2-0.7,3.8-1.3,5.7-2c0.7,1.8,1.3,3.6,2,5.7c1.3-2.7,2.5-5.2,3.8-7.8c0.6,0.3,1.1,0.5,1.6,0.8c-1.9,3.9-3.7,7.8-5.6,11.8
			C18.2,51.5,17.3,48.9,16.3,46.2z"/>
	</g>
</g>
<g>
	<path d="M28.5,34.9c-7.1,0-12.9-5.8-12.9-12.9c0-7.1,5.8-12.9,12.9-12.9c7.1,0,12.9,5.8,12.9,12.9C41.4,29.1,35.6,34.9,28.5,34.9z
		 M28.5,10.3c-6.5,0-11.7,5.2-11.7,11.7S22,33.7,28.5,33.7S40.2,28.5,40.2,22S35,10.3,28.5,10.3z"/>
</g>
</svg>
