<?xml version="1.0" encoding="utf-8"?>
<!-- Generator: Adobe Illustrator 24.2.3, SVG Export Plug-In . SVG Version: 6.00 Build 0)  -->
<svg version="1.1" id="Layer_1" xmlns="http://www.w3.org/2000/svg" xmlns:xlink="http://www.w3.org/1999/xlink" x="0px" y="0px"
	 viewBox="0 0 56.7 56.7" style="enable-background:new 0 0 56.7 56.7;" xml:space="preserve">
<style type="text/css">
	.st0{fill:#FF0058;}
	.st1{display:none;fill:#FFFFFF;}
	.st2{fill:#FFFFFF;}
</style>
<g>
	<path class="st0" d="M28.4,55.1L28.4,55.1C13.8,55.1,2,43.3,2,28.7l0,0C2,14.1,13.8,2.3,28.4,2.3l0,0c14.6,0,26.4,11.8,26.4,26.4
		l0,0C54.8,43.3,43,55.1,28.4,55.1z"/>
	<path class="st1" d="M36.8,30.9c-0.3-0.4-0.7-0.8-1.1-1.1c-0.9-0.9-2-1.5-3.2-2c2.1-1.4,3.5-3.7,3.5-6.4c0-4.2-3.4-7.7-7.6-7.7
		s-7.6,3.4-7.6,7.7c0,2.7,1.4,5.1,3.5,6.4c-1.2,0.5-2.2,1.2-3.2,2c-0.7,0.6-1.2,1.3-1.7,2c-1.3,1.8-2.1,4-2.1,6.4
		c0,0.3,0,0.7,0.1,1.1l0.1,1.1l1,0.6c3,1.8,6.5,2.7,10,2.7s7-0.9,10-2.7l1-0.6l0.1-1.1c0-0.4,0.1-0.7,0.1-1.1
		C39.5,35.4,38.5,32.9,36.8,30.9z M22.7,21.3c0-3.1,2.5-5.6,5.6-5.6s5.6,2.5,5.6,5.6s-2.5,5.6-5.6,5.6
		C25.3,26.9,22.7,24.4,22.7,21.3z M37.2,39.1c-2.7,1.6-5.7,2.4-8.9,2.4s-6.2-0.8-8.9-2.4c0-0.3,0-0.6,0-0.8c0-4.9,4-8.9,8.9-8.9
		s8.9,4,8.9,8.9C37.2,38.5,37.2,38.8,37.2,39.1z"/>
</g>
<path class="st2" d="M34.5,13.7H21.3c-1.8,0-3.2,1.5-3.2,3.2v23.6c0,1.8,1.5,3.2,3.2,3.2h13.2c1.8,0,3.2-1.5,3.2-3.2V16.9
	C37.7,15.1,36.3,13.7,34.5,13.7L34.5,13.7z M21.3,15.4h13.2c0.8,0,1.5,0.7,1.5,1.5v17.5H19.8V16.9C19.8,16.1,20.5,15.4,21.3,15.4
	L21.3,15.4z M34.5,42H21.3c-0.8,0-1.5-0.7-1.5-1.5v-4.3H36v4.3C36,41.3,35.3,42,34.5,42L34.5,42z M27.9,36.8c-1.3,0-2.3,1-2.3,2.3
	s1,2.3,2.3,2.3s2.3-1,2.3-2.3C30.2,37.8,29.2,36.8,27.9,36.8L27.9,36.8z M27.9,39.6c-0.3,0-0.5-0.2-0.5-0.5s0.2-0.5,0.5-0.5
	s0.5,0.2,0.5,0.5C28.4,39.4,28.2,39.6,27.9,39.6L27.9,39.6z"/>
</svg>
