<?xml version="1.0" encoding="utf-8"?>
<!-- Generator: Adobe Illustrator 24.2.3, SVG Export Plug-In . SVG Version: 6.00 Build 0)  -->
<svg version="1.1" id="Layer_1" xmlns="http://www.w3.org/2000/svg" xmlns:xlink="http://www.w3.org/1999/xlink" x="0px" y="0px"
	 viewBox="0 0 56.7 56.7" style="enable-background:new 0 0 56.7 56.7;" xml:space="preserve">
<style type="text/css">
	.st0{fill:#1A171B;}
</style>
<g>
	<path class="st0" d="M21.3,45.8c-0.4,0-0.8,0.4-0.8,0.8c0,0.4,0.4,0.8,0.8,0.8s0.8-0.4,0.8-0.8C22.1,46.2,21.8,45.8,21.3,45.8z"/>
	<path class="st0" d="M44.3,45.8c-0.4,0-0.8,0.4-0.8,0.8c0,0.4,0.4,0.8,0.8,0.8c0.4,0,0.8-0.4,0.8-0.8S44.8,45.8,44.3,45.8z"/>
	<path class="st0" d="M42.3,35.8h-3.4c-0.4,0-0.7,0.3-0.7,0.7s0.3,0.7,0.7,0.7h3.4c0.4,0,0.7-0.3,0.7-0.7S42.7,35.8,42.3,35.8z"/>
	<path class="st0" d="M50.6,31H49l-4.1-10.6c-0.5-1.2-1.6-2-2.9-2h-2.5c-0.2-3.2-1.4-6.1-3.5-8.4c0,0,0-0.1-0.1-0.1
		c0,0-0.1,0-0.1-0.1c-2.5-2.7-6.1-4.4-10-4.4c-7.3,0-13.3,5.8-13.6,13H9.3c-1.7,0-3.1,1.4-3.1,3.1v22.6c0,1.7,1.4,3.1,3.1,3.1h6.9
		c0.3,2.6,2.5,4.6,5.1,4.6s4.8-2,5.1-4.6h12.8c0.3,2.6,2.5,4.6,5.1,4.6s4.8-2,5.1-4.6h1.1c1.7,0,3.1-1.4,3.1-3.1v-7.2h0.1v-2.8
		C53.7,32.4,52.3,31,50.6,31z M25.7,6.9c5,0,9.7,3.3,11.4,7.9c0.5,1.4,0.8,2.8,0.8,4.3c0.1,6.7-5.4,12.2-12.2,12.2
		c-5.1,0-10-3.6-11.6-8.4c-0.4-1.2-0.6-2.5-0.6-3.8C13.5,12.4,19,6.9,25.7,6.9z M21.3,50.3c-2,0-3.7-1.6-3.7-3.7
		c0-2,1.7-3.7,3.7-3.7c2.1,0,3.7,1.7,3.7,3.7C25,48.7,23.4,50.3,21.3,50.3z M34.3,45.7h-8c-0.4-2.4-2.5-4.3-5.1-4.3
		c-2.5,0-4.6,1.9-5.1,4.3H9.3c-0.9,0-1.7-0.7-1.7-1.7v-5.4h26.7C34.3,38.6,34.3,45.7,34.3,45.7z M34.4,37.2H7.6V21.5
		c0-0.9,0.8-1.7,1.7-1.7h2.8c0.2,3.2,1.4,6.1,3.5,8.4c0,0,0,0.1,0.1,0.1c0,0,0.1,0,0.1,0.1c2.5,2.7,6.1,4.4,10,4.4
		c3.3,0,6.3-1.1,8.6-3.1V37.2z M44.3,50.3c-2,0-3.7-1.6-3.7-3.7c0-2,1.7-3.7,3.7-3.7s3.7,1.7,3.7,3.7C48,48.7,46.3,50.3,44.3,50.3z
		 M50.5,45.8h-1.2c-0.4-2.4-2.5-4.3-5.1-4.3c-2.5,0-4.6,1.9-5.1,4.3h-3.5V28.3c2.1-2.3,3.4-5.2,3.6-8.5h2.5c0.7,0,1.3,0.4,1.6,1.1
		L47.2,31h-8.5c-0.4,0-0.7,0.3-0.7,0.7s0.3,0.7,0.7,0.7h11.6c0.9,0,1.7,0.8,1.7,1.7v2.1h-0.5c-1.8,0-3.2,1.4-3.2,3.2
		s1.4,3.2,3.2,3.2H52v1.5h0.2C52.2,45,51.4,45.8,50.5,45.8z M52.2,41.2h-0.5c-1,0-1.8-0.8-1.8-1.8s0.8-1.8,1.8-1.8h0.5V41.2z"/>
	<path class="st0" d="M20.9,14.5c1-1.1,2.4-1.3,3.7-0.6c0.3,0.2,0.6,0.4,0.9,0.7c1.3,1.3,2.7,2.7,4,4c0.4,0.4,1,0.3,1.2-0.2
		c0.2-0.3,0.1-0.6-0.2-0.9c-1.2-1.2-2.4-2.4-3.6-3.6c-0.4-0.4-0.8-0.8-1.2-1.2c-0.7-0.7-1.6-1-2.6-0.9c-1.1,0.1-2,0.4-2.7,1.2
		c-0.5,0.6-0.5,1.3,0.1,1.9C20.5,14.7,20.6,14.6,20.9,14.5z"/>
	<path class="st0" d="M17.6,17.4c-0.2-0.4-0.4-0.9-0.6-1.3c-0.9,0.8-1.1,2.2-0.3,2.8C17,18.4,17.3,17.9,17.6,17.4z"/>
	<circle class="st0" cx="21.2" cy="18.2" r="0.8"/>
	<path class="st0" d="M33.3,16.3c-1.5-1.6-3-3.1-4.6-4.6c-0.4-0.3-0.9-0.5-1.3-0.7c-0.5-0.2-1-0.2-1.6,0.1c0.1,0.1,0.2,0.2,0.3,0.3
		c0.5,0.6,1.1,1.1,1.6,1.6c1,0.9,1.9,1.9,2.8,2.8c0.5,0.4,1,0.8,1.3,1.3c0.7,0.9,0.5,2.1-0.4,2.8c-0.8,0.7-2,0.6-2.8-0.2
		c-1.2-1.2-2.3-2.4-3.5-3.5c-0.3-0.4-0.8-0.6-1.2-0.8c-0.9-0.3-1.7-0.1-2.5,0.5c0.5,0.4,0.9,0.8,1.3,1.2c0.3,0.4,0.5,0.9,0.4,1.4
		c-0.1,0.7-0.5,1.2-1.2,1.5c-0.8,0.2-1.4,0.1-2-0.5c-0.4-0.4-0.8-0.8-1.1-1.2c-1.3,1-1.4,2.8-0.4,4.1l4.4,4.4c1.2,1.1,2.8,1.1,3.9,0
		c2.2-2.2,4.4-4.4,6.6-6.6C34.4,19,34.4,17.4,33.3,16.3z M25.6,25.5v0.3c0,0.1-0.1,0.3-0.3,0.3c-0.1,0-0.3-0.1-0.3-0.3v-0.3
		c-0.7-0.1-1.3-0.8-1.3-1.5c0-0.1,0.1-0.3,0.3-0.3c0.1,0,0.3,0.1,0.3,0.3c0,0.5,0.5,0.9,1,0.9s1-0.4,1-0.9c0-0.6-0.3-0.9-1-0.9
		c-1.3,0-1.7-0.8-1.7-1.6c0-0.7,0.5-1.3,1.3-1.5v-0.3c0-0.1,0.1-0.3,0.3-0.3c0.1,0,0.3,0.1,0.3,0.3V20c0.7,0.1,1.3,0.7,1.3,1.5
		c0,0.1-0.1,0.3-0.3,0.3c-0.1,0-0.3-0.1-0.3-0.3c0-0.5-0.5-0.9-1-0.9c-0.6,0-1,0.4-1,0.9c0,0.6,0.3,0.9,1,0.9c1.3,0,1.7,0.8,1.7,1.6
		C26.9,24.7,26.4,25.3,25.6,25.5z"/>
</g>
</svg>
