<?xml version="1.0" encoding="utf-8"?>
<!-- Generator: Adobe Illustrator 24.2.3, SVG Export Plug-In . SVG Version: 6.00 Build 0)  -->
<svg version="1.1" id="Layer_1" xmlns="http://www.w3.org/2000/svg" xmlns:xlink="http://www.w3.org/1999/xlink" x="0px" y="0px"
	 viewBox="0 0 56.7 56.7" style="enable-background:new 0 0 56.7 56.7;" xml:space="preserve">
<style type="text/css">
	.st0{fill:#1A171B;}
</style>
<g>
	<path class="st0" d="M52.3,47.1H51V26.2c0-0.4-0.3-0.7-0.7-0.7h-4.4c-0.4,0-0.7,0.3-0.7,0.7v20.9h-2.9V30.5c0-0.4-0.3-0.7-0.7-0.7
		H37c-0.4,0-0.7,0.3-0.7,0.7v16.6h-3V41c0-0.4-0.3-0.7-0.7-0.7h-4.4c-0.4,0-0.7,0.3-0.7,0.7v6.1h-2.6v-9.7l3.3-1.3
		c0.5,0.7,1.3,1.1,2.2,1.1c1.5,0,2.8-1.2,2.8-2.8c0-0.6-0.2-1.1-0.5-1.5l5.4-6.2c0.4,0.2,0.8,0.3,1.2,0.3c1.5,0,2.8-1.2,2.8-2.8
		c0-0.2,0-0.4-0.1-0.6l4.1-2.1c0.5,0.5,1.2,0.9,2,0.9c1.5,0,2.8-1.2,2.8-2.8c0-1.5-1.2-2.8-2.8-2.8c-1.6,0-2.8,1.2-2.8,2.8
		c0,0.2,0,0.4,0.1,0.6l-4.1,2.1c-0.1-0.2-0.3-0.3-0.4-0.4v-7.1c0-0.1,0-0.1,0-0.2c0,0,0,0,0-0.1c0-0.1-0.1-0.2-0.1-0.2l-9.2-9.2
		c-0.1,0-0.1-0.1-0.2-0.1c0,0,0,0-0.1,0c-0.1,0-0.1,0-0.2,0h-26C4.7,5,4.4,5.3,4.4,5.7v47.2c0,0.4,0.3,0.7,0.7,0.7h35
		c0.4,0,0.7-0.3,0.7-0.7v-4.2h0.6h4.4h4.4h2c0.4,0,0.7-0.3,0.7-0.7C53,47.4,52.7,47.1,52.3,47.1z M48,18.3c0.7,0,1.3,0.6,1.3,1.3
		c0,0.7-0.6,1.3-1.3,1.3s-1.3-0.6-1.3-1.3C46.7,18.9,47.3,18.3,48,18.3z M28.9,41.7h2.9v5.4h-2.9V41.7z M30.3,35.7
		c-0.7,0-1.3-0.6-1.3-1.3s0.6-1.3,1.3-1.3s1.3,0.6,1.3,1.3S31,35.7,30.3,35.7z M40.5,24.2c0,0.7-0.6,1.3-1.3,1.3s-1.3-0.6-1.3-1.3
		s0.6-1.3,1.3-1.3S40.5,23.5,40.5,24.2z M31.5,7.4l6.7,6.7h-6.7V7.4z M39.3,52.1H5.8V6.3h24.3v8.4c0,0.4,0.3,0.7,0.7,0.7h8.4v5.9
		h-0.1c-1.5,0-2.8,1.2-2.8,2.8c0,0.6,0.2,1.1,0.5,1.5l-5.4,6.2c-0.4-0.2-0.8-0.3-1.2-0.3c-1.5,0-2.8,1.2-2.8,2.8c0,0.1,0,0.2,0,0.3
		l-2.8,1.1V19.6c0-0.4-0.3-0.7-0.7-0.7c-0.4,0-0.7,0.3-0.7,0.7v28.2c0,0.4,0.3,0.7,0.7,0.7H28h4.4H37h2.3V52.1z M40.7,47.1h-3V31.3
		h3V47.1z M49.5,47h-2.9V26.9h2.9V47z"/>
	<path class="st0" d="M9.9,20.4h0.9c0.4,0,0.7-0.3,0.7-0.7S11.2,19,10.8,19H9.9c-0.4,0-0.7,0.3-0.7,0.7C9.2,20,9.5,20.4,9.9,20.4z"
		/>
	<path class="st0" d="M9.9,25.5h0.9c0.4,0,0.7-0.3,0.7-0.7c0-0.4-0.3-0.7-0.7-0.7H9.9c-0.4,0-0.7,0.4-0.7,0.7
		C9.2,25.2,9.5,25.5,9.9,25.5z"/>
	<path class="st0" d="M19.5,18.9H14c-0.4,0-0.7,0.3-0.7,0.7c0,0.4,0.3,0.7,0.7,0.7h5.5c0.4,0,0.7-0.3,0.7-0.7
		C20.2,19.2,19.9,18.9,19.5,18.9z"/>
	<path class="st0" d="M19.5,24H14c-0.4,0-0.7,0.4-0.7,0.7c0,0.4,0.3,0.7,0.7,0.7h5.5c0.4,0,0.7-0.3,0.7-0.7
		C20.2,24.4,19.9,24,19.5,24z"/>
	<path class="st0" d="M9.9,30.7H18c0.4,0,0.7-0.3,0.7-0.7c0-0.4-0.3-0.7-0.7-0.7H9.9c-0.4,0-0.7,0.3-0.7,0.7
		C9.2,30.4,9.5,30.7,9.9,30.7z"/>
	<path class="st0" d="M19.5,34.4H9.9c-0.4,0-0.7,0.3-0.7,0.7c0,0.4,0.3,0.7,0.7,0.7h9.6c0.4,0,0.7-0.3,0.7-0.7
		C20.2,34.7,19.9,34.4,19.5,34.4z"/>
	<path class="st0" d="M16.6,39.5H9.9c-0.4,0-0.7,0.3-0.7,0.7s0.3,0.7,0.7,0.7h6.6c0.4,0,0.7-0.4,0.7-0.7
		C17.3,39.9,17,39.5,16.6,39.5z"/>
</g>
</svg>
