<?xml version="1.0" encoding="utf-8"?>
<!-- Generator: Adobe Illustrator 24.2.3, SVG Export Plug-In . SVG Version: 6.00 Build 0)  -->
<svg version="1.1" id="Layer_1" xmlns="http://www.w3.org/2000/svg" xmlns:xlink="http://www.w3.org/1999/xlink" x="0px" y="0px"
	 viewBox="0 0 56.7 56.7" style="enable-background:new 0 0 56.7 56.7;" xml:space="preserve">
<g>
	<g>
		<path d="M28.3,13.6c-7.5,0-14.9,0-22.4,0c-0.7,0-1.3,0-2,0c-0.3,0-0.5,0.1-0.5,0.4c0,0.1,0,0.2,0,0.2c0,9.5,0,19,0,28.5
			c0,0.2,0,0.5,0,0.7c0,1,0.7,1.7,1.5,2.1c0.3,0.2,0.7,0.2,1,0.2c1.2,0,2.4,0,3.6,0c0.5,0,0.9,0.2,0.9,0.7c0.1,0.5-0.2,0.8-0.6,0.9
			c-0.4,0-0.7,0-1.1,0c-1.2,0-2.4,0-3.6-0.1c-0.8,0-1.5-0.5-2.1-1c-0.5-0.5-0.8-1.1-1.1-1.7c0-0.1,0-0.1,0-0.2c0-0.3,0-0.6,0-0.9
			C2,31.6,2,19.7,2,7.9c0-0.6,0-1.1,0.3-1.6C2.5,6,2.7,5.6,3,5.3C3.6,4.5,4.5,4.2,5.5,4c0.7-0.1,1.4-0.1,2-0.1c13.9,0,27.7,0,41.6,0
			c0.7,0,1.3,0,2,0.1c1.1,0.2,2,0.6,2.7,1.5c0.5,0.7,0.8,1.5,0.9,2.3c0,0.1,0,0.2,0,0.3c0,11.7,0,23.4,0,35.1c0,0.7-0.2,1.3-0.4,1.9
			c-0.4,0.8-1,1.4-1.8,1.8c-0.7,0.3-1.3,0.4-2,0.4c-1.2,0-2.4,0-3.6,0c-0.3,0-0.6,0-0.8-0.3c-0.3-0.5-0.1-1,0.5-1.2
			c0.2,0,0.3-0.1,0.5-0.1c1.1,0,2.1,0,3.2,0c0.4,0,0.8,0,1.2-0.1c0.3-0.1,0.5-0.2,0.7-0.4c0.6-0.5,0.9-1.1,0.9-1.8
			c0-0.2,0-0.3,0-0.5c0-9.4,0-18.9,0-28.3c0-0.2,0-0.4,0-0.6c0-0.3-0.1-0.4-0.4-0.4C44.6,13.6,36.5,13.6,28.3,13.6L28.3,13.6z
			 M28.3,12c7.9,0,15.7,0,23.6,0c0.3,0,0.6,0,0.9,0c0.3,0,0.4-0.1,0.4-0.4c0-1.3,0-2.5,0-3.8c0-0.6-0.3-1.1-0.8-1.6
			c-0.6-0.5-1.2-0.7-2-0.7c-14.7,0-29.3,0-44,0c-0.5,0-1,0.1-1.4,0.3c-0.9,0.4-1.4,1-1.4,1.9c-0.1,1.3,0,2.6,0,3.9
			C3.6,11.9,3.7,12,4,12c0.2,0,0.4,0,0.5,0C12.4,12,20.3,12,28.3,12z"/>
		<path d="M36.5,28.8c0.1,0,0.2,0,0.3,0c1.6,0,3.3,0,4.9,0c2.1,0,3.7,1.6,3.7,3.7c0,3.8,0,7.6,0,11.4c0,2.1-1.6,3.6-3.7,3.7
			c-1.1,0-2.1,0-3.2,0c0.1,0.1,0.1,0.2,0.2,0.3c0.6,1.1,1.3,2.2,1.9,3.3c0.3,0.6,0.1,0.9-0.6,0.9c-0.8,0-1.5,0-2.4,0
			c0.1,0.1,0.1,0.2,0.1,0.3c0.2,0.5,0.5,1,0.7,1.5s0,0.8-0.5,0.8c-6.6,0-13.1,0-19.7,0c-0.5,0-0.7-0.4-0.5-0.8
			c0.2-0.5,0.5-1,0.7-1.5c0-0.1,0.1-0.2,0.1-0.3c-0.1,0-0.2,0-0.3,0c-0.7,0-1.4,0-2.1,0c-0.6,0-0.8-0.4-0.5-0.9
			c0.6-1.1,1.3-2.2,1.9-3.3c0-0.1,0.1-0.2,0.2-0.3c-0.3,0-0.6,0-0.8,0c-0.8,0-1.6,0-2.5,0c-1.7,0-3.1-1.2-3.5-2.9c0-0.1,0-0.3,0-0.4
			c0-4,0-8,0-12c0-1.2,0.5-2.2,1.5-2.9c0.6-0.5,1.3-0.7,2.1-0.7c1.7,0,3.4,0,5,0c0.2,0,0.3-0.1,0.3-0.3c0.4-2,0.9-4,1.4-6
			c0.1-0.5,0.2-0.6,0.8-0.6c4,0,8.1,0,12.1,0c0.5,0,0.6,0.1,0.7,0.6c0.5,2,0.9,4,1.4,6C36.5,28.5,36.5,28.6,36.5,28.8z M38.2,46.5
			c1.2,0,2.4,0,3.6,0c1.5,0,2.7-1.1,2.7-2.7c0-3.8,0-7.6,0-11.3c0-1.5-1.1-2.7-2.7-2.7c-9,0-18,0-27,0c-1.5,0-2.7,1.1-2.7,2.7
			c0,3.8,0,7.5,0,11.3c0,1.6,1.1,2.7,2.7,2.7c1.1,0,2.2,0,3.3,0c0.1,0,0.2,0,0.3,0c0-0.2,0-0.3,0-0.4c0-3.1,0-6.2,0-9.3
			c0-0.5,0.2-0.7,0.7-0.7c6.1,0,12.3,0,18.4,0c0.5,0,0.7,0.2,0.7,0.7c0,3.1,0,6.3,0,9.4C38.2,46.2,38.2,46.3,38.2,46.5z M17.2,51
			c0.7,0,1.3,0,1.9,0c0.2,0,0.3-0.1,0.4-0.2c1-1.9,1.9-3.8,2.9-5.7c0.2-0.4,0.4-0.5,0.8-0.5c3.4,0,6.8,0,10.2,0
			c0.4,0,0.7,0.1,0.9,0.5c0.9,1.9,1.9,3.8,2.9,5.7c0,0.1,0.1,0.2,0.2,0.2c0.7,0,1.4,0,2.1,0c-0.1-0.1-0.1-0.2-0.1-0.3
			c-0.6-1.1-1.2-2.2-1.9-3.2c-0.1-0.2-0.2-0.5-0.2-0.7c0-3.1,0-6.2,0-9.3c0-0.1,0-0.2,0-0.3c-5.9,0-11.8,0-17.7,0c0,0.1,0,0.2,0,0.3
			c0,3.1,0,6.2,0,9.3c0,0.2-0.1,0.5-0.2,0.7c-0.6,1.1-1.2,2.1-1.8,3.2C17.3,50.7,17.3,50.8,17.2,51z M19.2,53.6c6.1,0,12.1,0,18.1,0
			c0-0.1-0.1-0.1-0.1-0.2c-1.3-2.5-2.6-5-3.8-7.6c-0.1-0.2-0.2-0.2-0.4-0.2c-3.2,0-6.4,0-9.6,0c-0.2,0-0.3,0.1-0.4,0.2
			c-0.9,2.1-2,4.2-3,6.3C19.7,52.6,19.5,53.1,19.2,53.6z M21.1,28.7c4.8,0,9.5,0,14.3,0c0-0.1,0-0.1,0-0.1c-0.4-1.8-0.8-3.6-1.2-5.4
			c0-0.2-0.1-0.2-0.3-0.2c-3.7,0-7.5,0-11.2,0c-0.2,0-0.3,0.1-0.3,0.2c-0.3,1.4-0.6,2.8-1,4.2C21.3,27.8,21.2,28.3,21.1,28.7z"/>
		<path d="M44.5,8.8c0-0.4,0.4-0.8,0.8-0.8c0.3,0,0.8,0.5,0.8,0.8c0,0.4-0.4,0.8-0.8,0.8C44.9,9.5,44.5,9.2,44.5,8.8z"/>
		<path d="M41.7,8.8c0,0.5-0.3,0.8-0.8,0.8c-0.4,0-0.8-0.4-0.8-0.8c0-0.3,0.4-0.8,0.8-0.8S41.7,8.4,41.7,8.8z"/>
		<path d="M49.7,9.5c-0.5,0-0.8-0.3-0.8-0.7C49,8.3,49.3,8,49.7,8c0.3,0,0.8,0.5,0.8,0.8C50.5,9.2,50.1,9.5,49.7,9.5z"/>
		<path d="M17.1,33c0,1-0.8,1.8-1.8,1.8s-1.8-0.9-1.8-1.8c0-1,0.8-1.8,1.8-1.8S17.1,32,17.1,33z M14.5,33c0,0.4,0.3,0.8,0.8,0.8
			c0.4,0,0.8-0.4,0.8-0.8c0-0.4-0.4-0.8-0.8-0.8S14.5,32.5,14.5,33z"/>
		<path d="M19.5,33c0,0.3-0.2,0.5-0.5,0.5s-0.5-0.3-0.5-0.5c0-0.3,0.3-0.5,0.5-0.5C19.3,32.5,19.5,32.7,19.5,33z"/>
		<path d="M21.8,33c0,0.3-0.2,0.5-0.5,0.5s-0.5-0.3-0.5-0.5c0-0.3,0.3-0.5,0.5-0.5S21.8,32.7,21.8,33z"/>
	</g>
</g>
</svg>
