<?xml version="1.0" encoding="utf-8"?>
<!-- Generator: Adobe Illustrator 24.2.3, SVG Export Plug-In . SVG Version: 6.00 Build 0)  -->
<svg version="1.1" id="Layer_1" xmlns="http://www.w3.org/2000/svg" xmlns:xlink="http://www.w3.org/1999/xlink" x="0px" y="0px"
	 viewBox="0 0 56.7 56.7" style="enable-background:new 0 0 56.7 56.7;" xml:space="preserve">
<style type="text/css">
	.st0{fill:#1A171B;}
</style>
<g>
	<path class="st0" d="M52.6,50.6l-5.9-28.9c-0.1-0.3-0.4-0.6-0.7-0.6h-9.6c1.2-2.6,2.1-5.2,2.1-7.5c0-5.4-4.4-9.8-9.8-9.8
		c-5.4,0-9.7,4.4-9.7,9.8c0,2.3,0.9,5,2.1,7.5h-9.6c-0.3,0-0.6,0.2-0.7,0.6L5,50.6c0,0.2,0,0.4,0.2,0.6c0.1,0.2,0.3,0.3,0.6,0.3
		h46.1c0.2,0,0.4-0.1,0.6-0.3C52.6,51,52.7,50.8,52.6,50.6z M45.5,22.5l1.7,8.7h-7.5l-0.9-8.7H45.5z M37.3,22.7L37.3,22.7l0.9,8.6
		h-3.4c-0.3-1.2-1.2-2.2-2.5-2.8c1.1-1.6,2.4-3.7,3.5-5.8H37.3z M33.5,31.9c0,1.6-2.1,2.9-4.7,2.9c-2.5,0-4.7-1.3-4.7-2.9
		c0-0.9,0.8-1.8,2-2.3c1.1,1.6,2,2.7,2.1,2.8c0.1,0.1,0.3,0.3,0.6,0.3c0.2,0,0.4-0.1,0.6-0.3c0.1-0.2,1-1.2,2.1-2.8
		C32.7,30.1,33.5,31,33.5,31.9z M20.5,13.6c-0.1-4.6,3.7-8.3,8.3-8.3c4.6,0,8.3,3.7,8.3,8.3c0,5.9-6.4,14.6-8.3,17.2
		C26.9,28.2,20.5,19.5,20.5,13.6z M20.2,22.5h1.6c1.1,2.2,2.3,4.3,3.4,5.9C23.9,29,23,30,22.7,31.2h-3.4L20.2,22.5z M12,22.6h6.7
		l-0.9,8.7h-7.5L12,22.6z M10,32.7h12.7c0.5,2.1,3,3.6,6,3.6s5.6-1.5,6-3.6h3.6l1,9.4H8.2L10,32.7z M15.9,50H6.6l1.3-6.5h8.7
		L15.9,50z M17.3,50l0.7-6.5h21.5l0.7,6.5H17.3z M39.8,32.7h7.7l1.2,6h-8.2L39.8,32.7z M41.6,50l-1-9.8H49l2,9.8H41.6z"/>
	<path class="st0" d="M33.9,13.7c0-2.8-2.3-5.1-5.1-5.1s-5.1,2.3-5.1,5.1s2.3,5.1,5.1,5.1S33.9,16.5,33.9,13.7z M25.1,13.7
		c0-2,1.6-3.7,3.7-3.7c2,0,3.7,1.7,3.7,3.7c-0.1,2-1.7,3.7-3.7,3.7S25.1,15.7,25.1,13.7z"/>
</g>
</svg>
