<?xml version="1.0" encoding="utf-8"?>
<!-- Generator: Adobe Illustrator 21.0.0, SVG Export Plug-In . SVG Version: 6.00 Build 0)  -->
<svg version="1.1" id="Layer_1" xmlns="http://www.w3.org/2000/svg" xmlns:xlink="http://www.w3.org/1999/xlink" x="0px" y="0px"
	 viewBox="0 0 28.4 28.4" style="enable-background:new 0 0 28.4 28.4;" xml:space="preserve">
<style type="text/css">
	.st0{fill:#1A171B;}
</style>
<g>
	<g>
		<path class="st0" d="M20.5,17.7h-5.1c-0.6,0-1.1,0.5-1.1,1.1v2.3c0,0.6,0.5,1.1,1.1,1.1h5.1c0.6,0,1.1-0.5,1.1-1.1v-2.3
			C21.7,18.2,21.2,17.7,20.5,17.7z M15.1,21.1v-2.3c0-0.2,0.2-0.4,0.4-0.4h2.1v3h-2.1C15.3,21.5,15.1,21.3,15.1,21.1z M20.9,21.1
			c0,0.2-0.2,0.4-0.4,0.4h-2.1v-3h2.1c0.2,0,0.4,0.2,0.4,0.4V21.1z"/>
	</g>
	<g>
		<path class="st0" d="M26.6,25.2h-2.4v-8.8c0.1,0,0.2,0,0.3,0c1.3,0,2.4-1.1,2.4-2.4l0,0c0,0,0,0,0,0c0,0,0,0,0,0c0,0,0-0.1,0-0.1
			c0,0,0,0,0,0c0,0,0-0.1-0.1-0.1c0,0,0,0,0,0l0,0L24.1,11c-0.1-0.1-0.2-0.1-0.3-0.1h-3h-3.2h-0.5c-0.2,0-0.4,0.2-0.4,0.4
			c0,0.2,0.2,0.4,0.4,0.4h0.2l0.6,2h-3.5l0,0h-3.5l0.6-2h0.2c0.2,0,0.4-0.2,0.4-0.4c0-0.2-0.2-0.4-0.4-0.4h-0.5H8.1h-3
			c-0.1,0-0.2,0-0.3,0.1L2,13.7h0c0,0,0,0,0,0c0,0-0.1,0.1-0.1,0.1c0,0,0,0,0,0c0,0,0,0.1,0,0.1c0,0,0,0,0,0c0,0,0,0,0,0l0,0
			c0,1.4,1.1,2.4,2.4,2.4c0.1,0,0.2,0,0.3,0v8.8H2.3c-0.2,0-0.4,0.2-0.4,0.4c0,0.2,0.2,0.4,0.4,0.4h2.8h2.6h4.6h11.7h2.8
			c0.2,0,0.4-0.2,0.4-0.4C27,25.4,26.8,25.2,26.6,25.2z M24.6,15.7c-0.8,0-1.4-0.6-1.6-1.3h3.2C26,15.1,25.4,15.7,24.6,15.7z
			 M25.7,13.6h-2.9l-1.3-2h2.2L25.7,13.6z M20.6,11.6l1.3,2h-3.1l-0.6-2H20.6z M22.2,14.3c-0.2,0.8-0.8,1.3-1.6,1.3
			c-0.8,0-1.4-0.6-1.6-1.3H22.2z M18.1,14.3c-0.2,0.8-0.8,1.3-1.6,1.3c-0.8,0-1.4-0.6-1.6-1.3H18.1z M10.1,13.6H7.1l1.3-2h2.5
			L10.1,13.6z M10,14.3c-0.2,0.8-0.8,1.3-1.6,1.3c-0.8,0-1.4-0.6-1.6-1.3H10z M14,14.3c-0.2,0.8-0.8,1.3-1.6,1.3
			c-0.8,0-1.4-0.6-1.6-1.3H14z M5.2,11.6h2.2l-1.3,2H3.2L5.2,11.6z M2.7,14.3h3.2c-0.2,0.8-0.8,1.3-1.6,1.3S2.9,15.1,2.7,14.3z
			 M11.8,21.5H8v-2.6c0-0.2,0.2-0.4,0.4-0.4h3c0.2,0,0.4,0.2,0.4,0.4V21.5z M8,25.2v-3h3.8v3H8z M12.6,25.2v-6.4
			c0-0.6-0.5-1.1-1.1-1.1h-3c-0.6,0-1.1,0.5-1.1,1.1v6.4H5.4v-9.1c0.4-0.2,0.7-0.5,0.9-0.9c0.4,0.7,1.2,1.1,2,1.1
			c0.9,0,1.6-0.5,2-1.1c0.4,0.7,1.2,1.1,2,1.1c0.8,0,1.6-0.5,2-1.1c0.4,0.7,1.2,1.1,2,1.1c0.9,0,1.6-0.5,2-1.1
			c0.4,0.7,1.2,1.1,2,1.1c0.8,0,1.6-0.5,2-1.1c0.2,0.4,0.5,0.7,0.9,0.9v9.1H12.6z"/>
	</g>
	<g>
		<path class="st0" d="M14.5,12.9c0.1,0,0.2-0.1,0.3-0.1c0.2-0.2,3.9-4.6,3.9-7.7c0-2.3-1.9-4.1-4.1-4.1c-2.3,0-4.1,1.8-4.1,4.1
			c0,3.1,3.7,7.5,3.9,7.7C14.2,12.9,14.4,12.9,14.5,12.9z M14.5,1.8c1.9,0,3.4,1.5,3.4,3.4c0,2.3-2.5,5.7-3.4,6.8
			c-0.9-1.1-3.4-4.5-3.4-6.8C11.1,3.3,12.6,1.8,14.5,1.8z"/>
	</g>
	<g>
		<path class="st0" d="M16.4,5.2c0-1-0.9-1.9-1.9-1.9c-1,0-1.9,0.8-1.9,1.9s0.9,1.9,1.9,1.9C15.5,7.1,16.4,6.2,16.4,5.2z M13.3,5.2
			c0-0.6,0.5-1.1,1.1-1.1c0.6,0,1.1,0.5,1.1,1.1s-0.5,1.1-1.1,1.1C13.8,6.3,13.3,5.8,13.3,5.2z"/>
	</g>
</g>
</svg>
