<?xml version="1.0" encoding="utf-8"?>
<!-- Generator: Adobe Illustrator 24.2.3, SVG Export Plug-In . SVG Version: 6.00 Build 0)  -->
<svg version="1.1" id="Layer_1" xmlns="http://www.w3.org/2000/svg" xmlns:xlink="http://www.w3.org/1999/xlink" x="0px" y="0px"
	 viewBox="0 0 28.4 28.4" style="enable-background:new 0 0 28.4 28.4;" xml:space="preserve">
<style type="text/css">
	.st0{fill:#231F20;}
</style>
<g>
	<path class="st0" d="M9.6,14.3c0,1.3,1,2.3,2.3,2.3c1.3,0,2.3-1,2.3-2.3c0-1.3-1-2.3-2.3-2.3C10.7,12,9.6,13.1,9.6,14.3z
		 M13.5,14.3c0,0.9-0.7,1.5-1.5,1.5c-0.9,0-1.5-0.7-1.5-1.5c0-0.8,0.7-1.5,1.5-1.5S13.5,13.5,13.5,14.3z"/>
	<path class="st0" d="M26.6,17h-6.4c-0.2,0-0.4,0.2-0.4,0.4s0.2,0.4,0.4,0.4h1.7v1.3H2V9.6h19.9v0.8h-0.6c-0.2,0-0.4,0.2-0.4,0.4
		c0,0.2,0.2,0.4,0.4,0.4h3.4c0.2,0,0.4-0.2,0.4-0.4c0-0.2-0.2-0.4-0.4-0.4h-2.1V8.8H1.2v11.1h21.5v-2.1h3.9c0.2,0,0.4-0.2,0.4-0.4
		S26.8,17,26.6,17z"/>
	<path class="st0" d="M18.9,13.2c-0.2,0-0.4,0.2-0.4,0.4s0.2,0.4,0.4,0.4H23c0.2,0,0.4-0.2,0.4-0.4s-0.2-0.4-0.4-0.4h-1.8v-1h-0.4
		c-0.8,0-1.5-0.7-1.5-1.5v-0.4H4.7v0.4c0,0.8-0.7,1.5-1.5,1.5H2.8v4.1h0.4c0.8,0,1.5,0.7,1.5,1.5v0.4h14.5v-0.4
		c0-0.8,0.7-1.5,1.5-1.5c0.2,0,0.4-0.2,0.4-0.4s-0.2-0.4-0.4-0.4c-1.1,0-2.1,0.8-2.3,1.9h-13c-0.2-1-0.9-1.7-1.9-1.9V13
		c1-0.2,1.7-0.9,1.9-1.9h13c0.2,1,0.9,1.7,1.9,1.9v0.2H18.9z"/>
	<path class="st0" d="M23.3,15.6c0,0.2,0.2,0.4,0.4,0.4h2.1c0.2,0,0.4-0.2,0.4-0.4s-0.2-0.4-0.4-0.4h-2.1
		C23.5,15.2,23.3,15.3,23.3,15.6z"/>
	<path class="st0" d="M23.9,13.6c0,0.2,0.2,0.4,0.4,0.4h0.9c0.2,0,0.4-0.2,0.4-0.4s-0.2-0.4-0.4-0.4h-0.9
		C24.1,13.2,23.9,13.4,23.9,13.6z"/>
</g>
</svg>
