<?xml version="1.0" encoding="utf-8"?>
<!-- Generator: Adobe Illustrator 24.2.3, SVG Export Plug-In . SVG Version: 6.00 Build 0)  -->
<svg version="1.1" id="Layer_1" xmlns="http://www.w3.org/2000/svg" xmlns:xlink="http://www.w3.org/1999/xlink" x="0px" y="0px"
	 viewBox="0 0 56.7 56.7" style="enable-background:new 0 0 56.7 56.7;" xml:space="preserve">
<style type="text/css">
	.st0{fill:#1A171B;}
</style>
<g>
	<path class="st0" d="M43.8,35.3c-1.3-0.7-2.8-1.3-4.4-1.8c-0.8-0.2-1.4-0.4-2-0.6c-0.8-0.2-1.6-0.4-2.4-0.5
		c-0.7-0.8-1.2-1.7-1.4-2.7c1.9-1.5,3.3-3.6,4.1-6.2c0.4,0,0.7-0.2,1-0.4c0.7-0.5,1.1-1.6,1.2-2.7c0.1-0.9-0.1-1.7-0.4-2.3
		c0.2-0.9,0.3-1.7,0.3-2.7C39.8,9,35.3,5,28.4,5C21.4,5,17,9,17,15.2c0,0.9,0.1,1.8,0.3,2.6c-0.3,0.6-0.5,1.5-0.4,2.4
		c0.1,1.2,0.6,2.2,1.2,2.7c0.3,0.3,0.7,0.4,1,0.4c0.8,2.6,2.2,4.8,4.1,6.2c-0.2,1.1-0.7,2-1.5,2.8c-1.4,0.2-2.3,0.5-2.3,0.5
		c-0.6,0.2-1.2,0.4-2,0.6c-1.6,0.5-3.1,1.1-4.4,1.8c-2.5,1.3-4,3.7-4,6.4v1.9c0,1.8,1,3.4,2.5,4.2c3,1.6,8.4,3.5,16.8,3.5
		s13.8-1.9,16.8-3.5c1.5-0.8,2.5-2.4,2.5-4.2v-1.9C47.7,38.9,46.2,36.5,43.8,35.3z M28.4,6.4c6.2,0,10,3.4,10,8.9c0,0.5,0,1-0.1,1.5
		c-0.1,0-0.1-0.1-0.2-0.1c-0.4-0.1-0.8-0.1-1.1,0c-0.1-0.4-0.3-1.1-0.5-2.1l0,0c0,0,0-0.1-0.1-0.1c0,0,0-0.1-0.1-0.1
		c0,0-0.1,0-0.1-0.1c0,0-0.1,0-0.1-0.1H36c-0.1,0-0.1,0-0.1,0s0,0-0.1,0c-3.3,0-4.6-2.4-4.6-2.5l-0.1-0.1c0,0,0-0.1-0.1-0.1l0,0
		c-0.1,0-0.1-0.1-0.1-0.1s-0.1,0-0.1-0.1h-0.1c-0.1,0-0.1,0-0.1,0h-0.1c-0.1,0-0.1,0-0.2,0l0,0l-0.1,0.1c0,0-0.1,0-0.1,0.1
		c-3.2,3.5-8.9,2.7-9,2.6H21h-0.1h-0.1h-0.1l-0.1,0.1l-0.1,0.1c0,0,0,0.1-0.1,0.1v0.1c-0.3,1-0.4,1.7-0.6,2.1
		c-0.3-0.1-0.6-0.1-1.1,0c-0.1,0-0.1,0-0.1,0.1c-0.1-0.5-0.1-1-0.1-1.5C18.4,9.8,22.2,6.4,28.4,6.4z M20.3,22.4
		c-0.1-0.2-0.2-0.4-0.4-0.5c-0.2-0.1-0.4-0.1-0.6,0h-0.1c-0.1,0-0.2-0.1-0.3-0.1c-0.3-0.2-0.6-0.8-0.7-1.8c-0.1-1.1,0.3-2,0.8-2.1
		c0.4-0.1,0.6,0,0.8,0.1c0.1,0,0.2,0.1,0.2,0.1c0.2,0.1,0.4,0,0.6-0.1s0.3-0.3,0.3-0.5s0.3-1.1,0.5-2.2c0.3,0,0.7,0,1.2,0
		c2,0,5.3-0.4,7.8-2.6c0.7,0.9,2.2,2.3,4.8,2.5c0.3,1,0.5,2.1,0.6,2.2c0,0.2,0.1,0.4,0.3,0.6c0.2,0.1,0.4,0.2,0.6,0.1
		c0,0,0.1-0.1,0.2-0.1c0.2-0.1,0.4-0.2,0.8-0.1c0.4,0.1,0.9,1,0.8,2.1c-0.1,0.9-0.4,1.5-0.7,1.8c-0.1,0.1-0.2,0.1-0.2,0.1s0,0-0.1,0
		c-0.2-0.1-0.4-0.1-0.6,0c-0.2,0.1-0.3,0.2-0.4,0.5c-0.7,2.7-2.1,4.9-4,6.3c-2.5,1.8-5.7,1.8-8.2,0C22.4,27.3,21,25.1,20.3,22.4z
		 M24.4,30.4c1.2,0.7,2.6,1,3.9,1s2.7-0.4,3.9-1c0.3,1,0.8,2,1.6,2.8c-0.4,1.1-3,3.3-5.5,4.9c-2.6-1.6-5.2-3.8-5.5-4.9
		C23.6,32.4,24.1,31.5,24.4,30.4z M10.4,43.5v-1.9c0-2.1,1.2-4.1,3.1-5c1.3-0.7,2.7-1.2,4.2-1.7c0.7-0.2,1.3-0.4,1.9-0.6
		c0,0,0.7-0.2,1.9-0.4c0.9,2.1,4.7,4.6,6.1,5.5v10.5c-8.1-0.1-13.1-2.1-15.4-3.3C11.1,45.9,10.4,44.8,10.4,43.5z M46.3,43.5
		c0,1.2-0.7,2.4-1.8,3c-2.3,1.2-7.3,3.2-15.4,3.3V39.4c1.4-0.9,5.2-3.4,6.1-5.5c0.6,0.1,1.3,0.2,1.9,0.4c0.6,0.1,1.2,0.3,1.9,0.6
		c1.5,0.5,3,1.1,4.2,1.7c1.9,1,3.1,2.9,3.1,5.1C46.3,41.7,46.3,43.5,46.3,43.5z"/>
</g>
</svg>
