<?xml version="1.0" encoding="utf-8"?>
<!-- Generator: Adobe Illustrator 23.0.3, SVG Export Plug-In . SVG Version: 6.00 Build 0)  -->
<svg version="1.1" id="Layer_1" xmlns="http://www.w3.org/2000/svg" xmlns:xlink="http://www.w3.org/1999/xlink" x="0px" y="0px"
	 viewBox="0 0 56.7 56.7" style="enable-background:new 0 0 56.7 56.7;" xml:space="preserve">
<style type="text/css">
	.st0{fill:#1A171B;}
</style>
<path class="st0" d="M6.6,54.5c0-0.2,0-0.4,0-0.6c0.4-7,0.8-14.1,1.2-21.1C8,30,8.1,27.2,8.3,24.4c0.1-1.4,0.1-2.9,0.2-4.3
	c0-0.7,0.1-1.4,0.2-2.2c0.1-0.6,0-1.3,0.3-1.9c0.7-1.2,2.4-1.1,3.7-0.9c-0.7,11.2-1.4,22.4-2.1,33.7c0,0.6,0,1.4,0.4,1.8
	c0.4,0.4,1,0.4,1.5,0.4c7.1,0,14.1,0,21.2,0c4,0,7.9,0,11.9,0c0.2,0,0.5,0,0.7-0.1c0.4-0.2,0.4-0.8,0.4-1.2c-0.3-7-0.8-14-1.2-21
	c-0.1-2.5-0.3-5.1-0.4-7.6c0-0.7-0.2-1.6-0.8-2c-0.8-0.5-2.2-0.3-3.1,0c-0.8,0.2-1.6,0.6-1.8,1.3c-0.2,0.4,0,1,0,1.5
	c0.1,0.3,0.1,0.6,0,0.9c-0.1,0.6-0.7,0.7-1.3,0.7s-2,0.2-2.5-0.4c-0.2-0.2-0.2-0.6-0.2-0.9c0.1-2.4,0.1-4.8,0.2-7.2
	c0.1-2.9-0.1-5.6-2.4-7.7c-2.7-2.4-6.8-2.4-9.4,0.1c-1.2,1.1-1.9,2.6-2.2,4.1c-0.1,0.7-0.1,1.4,0.1,2c0.7,2.1,3.2,1.8,5,1.6
	c0.8-0.1,2-0.4,2.8,0.1c1,0.6,1,2,0.8,3c0,0.1-0.1,0.6-0.1,0.6c-1.4,0-2.8,0-4.1,0c-0.7,0-1.4,0-2.1,0c-0.6,0-1.3-0.1-1.8,0.2
	c-0.6,0.4-0.6,1.2-0.5,1.9c0.1,1.1-0.3,2.2-1.5,2.5c-0.6,0.1-1.2,0.1-1.7,0c-0.2,0-0.5-0.1-0.6-0.2c-0.3-0.3-0.2-1-0.1-1.3
	c0-0.6,0.1-1.2,0.1-1.8c0-2.4-0.1-4.7,0.1-7.1c0.3-3.3,1.2-6.4,3.8-8.7C25.5,1.1,31,0.9,35,3.6c3,2.1,4.7,5.6,4.8,9.3
	c0,1.3,0.5,2.1,1.9,2.1c1.8,0,3.5,0,5.3,0c0.5,0,1.1,0,1.4,0.4c0.2,0.3,0.3,0.6,0.3,1c0.3,5.3,0.6,10.6,0.9,15.9
	c0.3,5.2,0.7,10.4,0.9,15.7c0.1,2,0.1,4,0.2,6c0,0.2,0,0.4-0.1,0.5c-0.1,0.2-0.4,0.2-0.6,0.2C35.6,54.9,21.7,55,7.8,55
	c-0.4,0-0.9,0-1.1-0.4C6.6,54.6,6.6,54.5,6.6,54.5z"/>
</svg>
