<?xml version="1.0" encoding="utf-8"?>
<!-- Generator: Adobe Illustrator 24.2.3, SVG Export Plug-In . SVG Version: 6.00 Build 0)  -->
<svg version="1.1" id="Layer_1" xmlns="http://www.w3.org/2000/svg" xmlns:xlink="http://www.w3.org/1999/xlink" x="0px" y="0px"
	 viewBox="0 0 56.7 56.7" style="enable-background:new 0 0 56.7 56.7;" xml:space="preserve">
<style type="text/css">
	.st0{fill:#1A171B;}
</style>
<g>
	<path class="st0" d="M49.3,17h-7.2c-0.4,0-0.8,0.4-0.8,0.8c0,0.4,0.4,0.8,0.8,0.8h7.2c1.5,0,2.7,1.2,2.7,2.7V23H39.4
		c-0.4,0-0.8,0.4-0.8,0.8c0,0.4,0.4,0.8,0.8,0.8H52V30H17.6c-0.4,0-0.8,0.4-0.8,0.8c0,0.4,0.4,0.8,0.8,0.8H52v11.9
		c0,1.5-1.2,2.7-2.7,2.7H9.1c-1.5,0-2.7-1.2-2.7-2.7V31.6h5.3c0.5,0,0.8-0.4,0.8-0.8c0-0.4-0.4-0.8-0.8-0.8H6.4v-5.4h13.2
		c0.4,0,0.8-0.4,0.8-0.8c0-0.4-0.4-0.8-0.8-0.8H6.4v-1.7c0-1.5,1.2-2.7,2.7-2.7h7.7c0.4,0,0.8-0.4,0.8-0.8c0-0.4-0.4-0.8-0.8-0.8
		H9.1c-2.3,0-4.3,2-4.3,4.3v2.5v7v12.8c0,2.4,1.9,4.3,4.3,4.3h40.3c2.3,0,4.3-2,4.2-4.4V30.8v-7v-2.5C53.6,18.9,51.7,17,49.3,17z"/>
	<path class="st0" d="M47.7,42.7c0.8,0,1.5-0.7,1.5-1.5v-4c0-0.8-0.7-1.5-1.5-1.5h-9c-0.8,0-1.5,0.7-1.5,1.5v4
		c0,0.8,0.7,1.5,1.5,1.5H47.7z M38.8,37.3h8.8v3.8h-8.8V37.3z"/>
	<path class="st0" d="M19.9,41.9c0,0.4,0.4,0.8,0.8,0.8h13.9c0.5,0,0.8-0.4,0.8-0.8c0-0.4-0.4-0.8-0.8-0.8H20.7
		C20.3,41.1,19.9,41.5,19.9,41.9z"/>
	<path class="st0" d="M34.6,39.1c0.5,0,0.8-0.3,0.8-0.8c0-0.4-0.4-0.8-0.8-0.8h-9.8c-0.4,0-0.8,0.4-0.8,0.8c0,0.4,0.4,0.8,0.8,0.8
		H34.6z"/>
	<path class="st0" d="M29.2,25.9c5.5,0,10-4.5,9.9-9.9c0-1.9-0.5-3.6-1.4-5.1l1.2-1.3c0.3-0.3,0.3-0.8,0-1.1c-0.3-0.3-0.8-0.3-1.1,0
		l-1,1.1c-1.8-2.1-4.5-3.5-7.6-3.5c-5.5,0-9.9,4.4-9.9,9.9S23.7,25.9,29.2,25.9z M29.2,7.6c2.6,0,5,1.2,6.5,3.1l-6.5,7.1l-4.5-3.6
		c-0.3-0.3-0.8-0.2-1.1,0.1c-0.3,0.3-0.2,0.8,0.1,1.1l5,4c0.1,0.1,0.3,0.2,0.5,0.2c0.3,0,0.5-0.1,0.6-0.1l6.8-7.4
		c0.6,1.1,0.9,2.4,0.9,3.8c0,4.6-3.7,8.3-8.3,8.3c-4.6,0-8.3-3.7-8.3-8.3C20.9,11.3,24.6,7.6,29.2,7.6z"/>
</g>
</svg>
