<?xml version="1.0" encoding="utf-8"?>
<!-- Generator: Adobe Illustrator 24.2.3, SVG Export Plug-In . SVG Version: 6.00 Build 0)  -->
<svg version="1.1" id="Layer_1" xmlns="http://www.w3.org/2000/svg" xmlns:xlink="http://www.w3.org/1999/xlink" x="0px" y="0px"
	 viewBox="0 0 28.4 28.4" style="enable-background:new 0 0 28.4 28.4;" xml:space="preserve">
<style type="text/css">
	.st0{fill:#1A171B;}
</style>
<path class="st0" d="M27,24v-0.1l0,0l0,0l-2-3.6V7.6C25,6.7,24.3,6,23.4,6h-5.1c0.1-0.3,0.1-0.6,0.1-0.9c0-2.3-1.8-4.1-4.1-4.1
	s-4.1,1.8-4.1,4.1c0,0.3,0,0.6,0.1,0.9H5.1C4.2,6,3.4,6.7,3.4,7.6v12.7l-1.9,3.5l0,0l0,0v0.1l0,0V25c0,0.9,0.7,1.6,1.6,1.6h22.4
	c0.9,0,1.6-0.7,1.6-1.6v-1C27,24,27,24,27,24z M14.3,1.8c1.8,0,3.3,1.5,3.3,3.3c0,2.3-2.5,5.5-3.3,6.5c-0.9-1-3.3-4.2-3.3-6.5
	C11,3.3,12.4,1.8,14.3,1.8z M17.5,9.3h1.9l2.2,2.5h-1.2h-1.8l-0.1-0.2L17.5,9.3z M16.7,9.5L16.7,9.5l1,2.3H15
	C15.5,11.3,16.2,10.4,16.7,9.5z M17.9,12.6c-0.2,0.8-0.8,1.4-1.6,1.4c-0.8,0-1.4-0.6-1.6-1.4H17.9z M10.8,11.8l1-2.3
	c0.6,0.9,1.2,1.8,1.6,2.3H10.8z M13.8,12.6C13.6,13.4,13,14,12.2,14s-1.4-0.6-1.6-1.4H13.8z M9.9,11.8H7.7H6.9l2.2-2.5H11L9.9,11.8z
	 M8.3,12.6h1.5C9.6,13.4,9,14,8.2,14s-1.5-0.6-1.6-1.4H8.3z M8,14.7C8.1,14.7,8.1,14.7,8,14.7c0.9,0,1.7-0.5,2.1-1.2
	c0.4,0.7,1.2,1.2,2,1.2c0.9,0,1.6-0.5,2.1-1.2c0.4,0.7,1.2,1.2,2,1.2c0.9,0,1.6-0.5,2.1-1.2c0.4,0.7,1.2,1.2,2.1,1.2c0,0,0,0,0.1,0
	v3.1H8V14.7z M20.4,13.9c-0.8,0-1.5-0.6-1.6-1.4h1.3H22C21.9,13.4,21.2,13.9,20.4,13.9z M4.3,7.6c0-0.5,0.4-0.9,0.9-0.9h5.3
	c0.2,0.6,0.5,1.2,0.8,1.8H8.9c-0.1,0-0.2,0-0.3,0.1l-2.8,3.3c0,0,0,0.1-0.1,0.1l0,0v0.1l0,0c0,1.1,0.7,2,1.6,2.4v3.7
	c0,0.2,0.2,0.4,0.4,0.4h13.2c0.2,0,0.4-0.2,0.4-0.4v-3.7c0.9-0.3,1.6-1.3,1.6-2.4l0,0V12l0,0c0,0,0-0.1-0.1-0.1L20,8.6
	c-0.1-0.1-0.2-0.1-0.3-0.1h-2.3c0.3-0.6,0.6-1.2,0.8-1.8h5.3c0.5,0,0.9,0.4,0.9,0.9v12.5h-20L4.3,7.6L4.3,7.6z M4.1,20.8h20.3
	l1.5,2.8H2.6L4.1,20.8z M26.2,25.1c0,0.4-0.4,0.8-0.8,0.8H3.1c-0.4,0-0.8-0.3-0.8-0.8v-0.8h23.9C26.2,24.3,26.2,25.1,26.2,25.1z"/>
<path class="st0" d="M16.4,5.1c0-1.1-1-2.1-2.1-2.1s-2.1,0.9-2.1,2.1s0.9,2.1,2.1,2.1C15.4,7.2,16.4,6.3,16.4,5.1z M13,5.1
	c0-0.7,0.6-1.3,1.3-1.3s1.3,0.6,1.3,1.3S15,6.4,14.3,6.4C13.5,6.4,13,5.8,13,5.1z"/>
</svg>
