<?xml version="1.0" encoding="utf-8"?>
<!-- Generator: Adobe Illustrator 24.2.3, SVG Export Plug-In . SVG Version: 6.00 Build 0)  -->
<svg version="1.1" id="Layer_1" xmlns="http://www.w3.org/2000/svg" xmlns:xlink="http://www.w3.org/1999/xlink" x="0px" y="0px"
	 viewBox="0 0 56.7 56.7" style="enable-background:new 0 0 56.7 56.7;" xml:space="preserve">
<g>
	<path d="M29.1,29.4c1.8,0,3.2,1.3,3.2,2.9c0,0.4,0.4,0.8,0.8,0.8c0.4,0,0.8-0.4,0.8-0.8c0-2.2-1.7-4.1-4-4.4V27
		c0-0.4-0.4-0.8-0.8-0.8c-0.4,0-0.8,0.4-0.8,0.8v0.9c-2.3,0.4-4,2.2-4,4.4c0,2.5,2.2,4.5,4.8,4.5c1.8,0,3.2,1.3,3.2,2.9
		s-1.4,2.9-3.2,2.9c-1.8,0-3.2-1.3-3.2-2.9c0-0.4-0.4-0.8-0.8-0.8c-0.4,0-0.8,0.4-0.8,0.8c0,2.2,1.8,4.1,4,4.4v1
		c0,0.4,0.4,0.8,0.8,0.8c0.4,0,0.8-0.4,0.8-0.8v-1c2.2-0.4,3.9-2.3,4-4.4c0-2.5-2.2-4.5-4.8-4.5c-1.8,0-3.2-1.3-3.2-2.9
		C25.9,30.7,27.3,29.4,29.1,29.4z"/>
	<path d="M14.7,29.3c0.4,0.2,0.9,0,1.1-0.4c1.5-3.1,4-5.5,7-6.9c0.1,0,0.1,0,0.2,0c0.2,0.1,0.4,0.1,0.6,0.1h11c0.2,0,0.4,0,0.7-0.1
		c0,0,0.1,0,0.1,0c5.2,2.4,8.6,7.7,8.6,13.5c0,0.4-0.1,0.8-0.1,1.2c0,0.5,0.3,0.9,0.8,0.9c0.4,0,0.8-0.3,0.8-0.6
		c0.1-0.5,0.1-0.9,0.1-1.4c0-6-3.3-11.6-8.5-14.5c0.8-0.7,1.3-1.7,1.3-2.8c0-1.5-0.9-2.8-2.1-3.4c3.4-5.4,2.1-11.3,2-11.6
		C38.2,3,38,2.8,37.8,2.7c-0.3-0.1-0.6,0-0.8,0.2c-1,1-2.6,2-4.7,2.8c-2.8,1.2-5.8,1.4-8.5,0.5c-1.2-0.4-2.1-0.9-2.7-1.5
		c-0.2-0.2-0.4-0.3-0.7-0.2c-0.3,0-0.5,0.2-0.6,0.5c0,0.2-1.4,4.7,2,10c-1.2,0.6-2,1.9-2,3.3c0,1.1,0.5,2.1,1.3,2.8
		c-2.9,1.6-5.3,4.1-6.8,7.1C14.2,28.6,14.3,29.1,14.7,29.3z M23.4,14.5c-2.3-3.3-2.5-6.2-2.3-7.8c0.6,0.4,1.4,0.8,2.3,1
		c3,1,6.4,0.9,9.6-0.5c1.6-0.7,3-1.4,4-2.2c0.2,2,0.2,6-2.2,9.5c-0.1,0-0.1,0-0.2,0H32l1.1-2.5c0.2-0.4,0-0.8-0.4-1
		c-0.4-0.2-0.8,0-1,0.4l-1.4,3.1h-2.4l-1.4-3.1c-0.1-0.4-0.6-0.6-1-0.4c-0.4,0.1-0.6,0.6-0.4,1l1.1,2.5h-2.6
		C23.5,14.5,23.5,14.5,23.4,14.5z M23,16.2C23,16.2,23,16.2,23,16.2C23.1,16.2,23.1,16.2,23,16.2c0.3-0.1,0.4-0.1,0.6-0.1h10.9h0.1
		c1.2,0,2.2,1,2.2,2.2c0,1.2-1,2.2-2.2,2.2h-11c-1.2,0-2.2-1-2.2-2.2C21.4,17.3,22.1,16.5,23,16.2z"/>
	<path d="M43.5,41.6c-0.4-0.2-0.9,0-1.1,0.4c-2.5,5.1-7.6,8.3-13.3,8.3c-8.2,0-14.9-6.7-14.9-14.9c0-0.2,0-0.4,0-0.6
		c0-0.4-0.4-0.8-0.8-0.8c-0.4,0-0.8,0.4-0.8,0.8c0,0.2,0,0.5,0,0.7c0,6.6,3.9,12.3,9.5,14.9h-6.8c-0.4,0-0.8,0.4-0.8,0.8
		s0.4,0.8,0.8,0.8h27.6c0.4,0,0.8-0.4,0.8-0.8s-0.4-0.8-0.8-0.8h-6.7c3.3-1.6,6-4.2,7.7-7.7C44,42.3,43.9,41.8,43.5,41.6z"/>
	<path d="M10.7,32.6h9.8c0.4,0,0.8-0.3,0.8-0.8c0-0.4-0.4-0.8-0.8-0.8h-9.8l0.7-0.8c0.2-0.3,0.2-0.8-0.1-1.1
		c-0.3-0.2-0.8-0.2-1.1,0.1l-1.8,2c0,0,0,0,0,0c-0.2,0.2-0.3,0.4-0.3,0.6c0,0.3,0.2,0.6,0.5,0.7l1.6,1.8c0.2,0.2,0.4,0.3,0.6,0.3
		c0.1,0,0.3,0,0.4-0.2c0.4-0.3,0.4-0.8,0.1-1.1L10.7,32.6z"/>
	<path d="M50.1,39.2l-1.8-2c-0.3-0.4-0.8-0.4-1.1-0.1c-0.4,0.3-0.4,0.8-0.1,1.1l0.6,0.7h-9.8c-0.4,0-0.8,0.4-0.8,0.8
		s0.4,0.8,0.8,0.8h9.8l-0.6,0.7c-0.2,0.3-0.2,0.8,0.1,1.1c0.1,0.1,0.3,0.2,0.5,0.2s0.4-0.1,0.6-0.2l1.8-2
		C50.4,40,50.4,39.5,50.1,39.2z"/>
</g>
</svg>
