<?xml version="1.0" encoding="utf-8"?>
<!-- Generator: Adobe Illustrator 23.0.3, SVG Export Plug-In . SVG Version: 6.00 Build 0)  -->
<svg version="1.1" id="Layer_1" xmlns="http://www.w3.org/2000/svg" xmlns:xlink="http://www.w3.org/1999/xlink" x="0px" y="0px"
	 viewBox="0 0 56.7 56.7" style="enable-background:new 0 0 56.7 56.7;" xml:space="preserve">
<g>
	<g>
		<g>
			<path d="M27.6,53.3c-2.2,0-4.4-1-6.1-2.7c-1.4-1.4-2.9-2.9-4.3-4.3c-2.8-2.7-5.6-5.6-8.4-8.4c-1.7-1.7-2.6-4.1-2.4-6.4
				c0.2-2.3,1.3-4.4,3.2-5.9l0.5-0.4l0.6,0.7c1,1,1.9,2.1,3,3.3c1.3,1.3,3,1.7,4.9,1.1c1.7-0.7,2.7-2,3-3.9c0.2-1.3-0.2-2.5-1.1-3.4
				c-1-1-2.1-2-3.3-3.1L16,18.8l0.7-0.5c2.5-1.9,5.1-2.4,8-1.5c1.3,0.5,2.6,1.3,3.8,2.4c3.4,3.3,6.8,6.7,10.1,10.1
				c2,2,5,2.2,7.1,0.5c2.2-1.8,2.7-4.9,1.1-7.2c-0.6-0.9-1.4-1.7-2.3-2.5c-0.4-0.4-0.9-0.8-1.3-1.3c-1.7-1.8-3.5-3.6-5.3-5.3
				c-0.9-0.9-1.8-1.8-2.7-2.7c-0.8-0.8-1.6-1.5-2.3-2.3c-0.8-0.7-1.5-1.5-2.3-2.3c-0.3-0.2-0.6-0.5-0.8-0.9l-0.7-0.9L30.1,4
				c1.8-0.8,3.7-0.9,5.3-0.2c1.4,0.6,2.8,1.3,3.9,2.2c3.5,3.3,6.7,6.6,10.1,10c1.1,1.1,2.2,2.2,3.4,3.4c3.6,3.6,3.6,8.7,0,12.3
				c-4.2,4.3-8.5,8.6-12.7,12.7c-2.1,2.1-4.2,4.2-6.3,6.3C32,52.4,29.8,53.3,27.6,53.3z M9.9,27.2c-1.3,1.2-2,2.7-2.1,4.4
				c-0.1,1.9,0.6,3.9,2,5.3c2.8,2.9,5.6,5.7,8.4,8.4c1.4,1.4,2.9,2.8,4.3,4.3c1.5,1.5,3.2,2.3,5.1,2.3s3.6-0.8,5.1-2.3
				c2.1-2.1,4.2-4.2,6.3-6.3c4.2-4.1,8.5-8.4,12.7-12.7c3-3,3-7.2,0-10.1c-1.1-1.1-2.2-2.3-3.4-3.4c-3.4-3.4-6.6-6.6-10-9.9
				c-0.9-0.7-2.1-1.4-3.5-1.9c-0.9-0.4-2-0.4-3.1-0.2l0,0c0.8,0.8,1.6,1.6,2.4,2.3c0.8,0.7,1.5,1.5,2.3,2.3c0.9,0.9,1.8,1.8,2.7,2.7
				c1.8,1.7,3.6,3.5,5.3,5.3c0.4,0.4,0.8,0.8,1.2,1.2c0.9,0.8,1.7,1.7,2.5,2.8c2,2.9,1.4,6.9-1.5,9.2c-2.7,2.1-6.6,1.8-9.1-0.7
				c-3.3-3.4-6.7-6.8-10.1-10.1c-1-0.9-2.1-1.6-3.2-2c-2.1-0.6-4-0.4-5.8,0.8c1.1,1.1,2.1,2,3.1,3c1.2,1.2,1.8,2.8,1.5,4.6
				c-0.3,2.4-1.7,4.2-4,5.1c-2.5,0.8-4.8,0.3-6.5-1.5C11.6,29.1,10.8,28.2,9.9,27.2z"/>
		</g>
		<g>
			<path d="M42.6,28.6c-0.8,0-1.6-0.3-2.2-1c-2-1.9-4-3.9-5.9-5.8c-2-1.9-3.9-3.9-5.9-5.8c-0.7-0.7-1.5-1.4-2.4-1.9
				c-3.5-1.9-7.2-1.3-10,1.5c-0.2,0.2-0.4,0.5-0.6,0.9L15,17.3l-0.7-0.7c-2-1.9-2.2-4.6-0.3-6.6c2-2.3,4.8-3.5,8.3-3.7
				C25.5,6,28.1,7,30.3,9.3l14,14c1.3,1.3,1.2,2.6,0.9,3.5c-0.4,1-1.2,1.6-2.1,1.8C42.9,28.6,42.8,28.6,42.6,28.6z M21.9,11.4
				c1.6,0,3.3,0.4,4.9,1.3c1.1,0.6,2,1.4,2.8,2.1c2,1.9,4,3.9,5.9,5.8c2,1.9,3.9,3.9,5.9,5.8c0.4,0.4,0.9,0.6,1.4,0.5
				c0.4-0.1,0.8-0.4,1-0.9c0.2-0.4,0.3-1.1-0.5-1.9l-14-14c-1.9-2-4.1-2.8-6.9-2.5c-3.1,0.2-5.5,1.3-7.3,3.3c-1,1.1-1.2,2.5-0.4,3.7
				c0.1-0.1,0.2-0.2,0.3-0.3C17,12.5,19.4,11.4,21.9,11.4z M14.1,15.8l0.7,0.3L14.1,15.8z"/>
		</g>
		<g>
			<path d="M4.1,29l-0.6-0.5c-1.2-0.9-1.8-2.3-1.8-4c0-2,1-4.1,2.7-5.4l0.7-0.6l0.4,0.9c0.2,0.4,0.4,0.9,0.6,1.3
				c0.4,0.9,0.9,1.8,1.2,2.7l0.1,0.4L7.2,24c-0.4,0.6-0.7,1.2-1.1,1.8c-0.5,0.8-1,1.7-1.6,2.6L4.1,29z M4.6,20.9
				c-0.9,1-1.4,2.3-1.4,3.6c0,0.8,0.2,1.6,0.7,2.2c0.4-0.6,0.7-1.2,1.1-1.7c0.3-0.5,0.6-1,0.9-1.5c-0.3-0.7-0.7-1.5-1-2.2
				C4.7,21.2,4.6,21.1,4.6,20.9z"/>
		</g>
		<g>
			<path d="M16.7,29c-1.7-0.1-2.9-1.5-2.9-3.1c0-1.7,1.3-2.9,2.9-2.9c0.9,0,1.7,0.3,2.2,0.9c0.5,0.6,0.8,1.4,0.7,2.2
				C19.8,27.6,18.4,29,16.7,29z M16.8,24.5c-0.8,0-1.4,0.6-1.4,1.4c0,0.9,0.7,1.5,1.4,1.6c0.7,0,1.5-0.5,1.5-1.5
				c0-0.4-0.1-0.8-0.3-1.1C17.7,24.7,17.4,24.5,16.8,24.5z"/>
		</g>
	</g>
</g>
</svg>
