<?xml version="1.0" encoding="utf-8"?>
<!-- Generator: Adobe Illustrator 24.2.3, SVG Export Plug-In . SVG Version: 6.00 Build 0)  -->
<svg version="1.1" id="Layer_1" xmlns="http://www.w3.org/2000/svg" xmlns:xlink="http://www.w3.org/1999/xlink" x="0px" y="0px"
	 viewBox="0 0 56.7 56.7" style="enable-background:new 0 0 56.7 56.7;" xml:space="preserve">
<style type="text/css">
	.st0{display:none;}
	.st1{display:inline;}
	.st2{fill:none;stroke:#000000;stroke-width:1.5;stroke-miterlimit:10;}
</style>
<g>
	<g class="st0">
		<g class="st1">
			<path class="st2" d="M25.2,23.8c-0.6,0-1.1-0.4-1.1-1c0-0.2-0.2-0.4-0.4-0.4c-0.2,0-0.4,0.2-0.4,0.4c0,0.8,0.6,1.5,1.5,1.6v0.4
				c0,0.2,0.2,0.4,0.4,0.4c0.2,0,0.4-0.2,0.4-0.4v-0.4c0.8-0.2,1.5-0.9,1.5-1.6s-0.5-1.6-1.8-1.6c-0.7,0-1.1-0.3-1.1-1
				c0-0.5,0.5-1,1.1-1s1.1,0.4,1.1,1c0,0.2,0.2,0.4,0.4,0.4c0.2,0,0.4-0.2,0.4-0.4c0-0.8-0.6-1.5-1.5-1.6v-0.4
				c0-0.2-0.2-0.4-0.4-0.4c-0.2,0-0.4,0.2-0.4,0.4v0.4c-0.8,0.2-1.5,0.9-1.5,1.6s0.5,1.6,1.8,1.6c0.7,0,1.1,0.3,1.1,1
				C26.2,23.3,25.8,23.8,25.2,23.8z"/>
		</g>
	</g>
	<g>
		<path class="st2" d="M10,26.2c1,1.1,2,2.2,3.1,3.4c1.6,1.6,3.6,2,5.7,1.3c2-0.8,3.2-2.3,3.5-4.5c0.2-1.5-0.2-2.9-1.3-4
			c-1.2-1.2-2.4-2.3-3.8-3.6c2.3-1.8,4.7-2.2,7.3-1.4c1.3,0.5,2.5,1.3,3.5,2.2c3.4,3.3,6.8,6.7,10.1,10.1c2.2,2.2,5.7,2.5,8.1,0.6
			c2.5-2,3.1-5.6,1.3-8.2c-1-1.5-2.4-2.6-3.6-3.9c-2.6-2.7-5.3-5.3-8-8c-1.6-1.6-3.1-3-4.7-4.6c-0.3-0.2-0.5-0.5-0.8-0.9
			C32,4,33.7,3.9,35.1,4.5c1.3,0.5,2.6,1.2,3.7,2.1c4.6,4.4,8.9,8.8,13.4,13.3c3.3,3.3,3.3,7.9,0,11.2c-6.3,6.4-12.7,12.7-19,19
			c-3.3,3.3-7.9,3.3-11.2,0c-4.3-4.3-8.5-8.4-12.7-12.7C6.1,34.2,6.3,29,10,26.2z"/>
		<path class="st2" d="M14.8,16.1c-1.8-1.7-1.8-3.9-0.3-5.5c2-2.2,4.7-3.3,7.8-3.5c2.9-0.3,5.4,0.5,7.5,2.7c1.2,1.2,2.3,2.3,3.5,3.5
			c3.5,3.5,7,7,10.5,10.5c0.8,0.8,1.1,1.7,0.7,2.7c-0.7,1.6-2.4,1.8-3.6,0.6c-4-3.9-7.9-7.8-11.9-11.7c-0.8-0.8-1.6-1.5-2.6-2
			c-3.7-2-7.8-1.5-10.9,1.6C15.2,15.3,15,15.7,14.8,16.1z"/>
		<path class="st2" d="M4.8,19.7c0.6,1.3,1.3,2.6,1.8,3.9c-0.9,1.4-1.7,2.8-2.7,4.3C1.5,26,2,21.9,4.8,19.7z"/>
		<path class="st2" d="M14.6,25.9c0-1.3,1-2.2,2.2-2.2c1.4,0,2.3,1.1,2.2,2.3c0,1.3-1.1,2.2-2.3,2.2C15.6,28.1,14.6,27.2,14.6,25.9z
			"/>
	</g>
</g>
</svg>
